<?xml version="1.0" encoding="utf-8"?>
<!-- Generator: Adobe Illustrator 23.0.1, SVG Export Plug-In . SVG Version: 6.00 Build 0)  -->
<svg version="1.1" id="Layer_1" xmlns="http://www.w3.org/2000/svg" xmlns:xlink="http://www.w3.org/1999/xlink" x="0px" y="0px"
	 viewBox="0 0 100 52.42" style="enable-background:new 0 0 100 52.42;" xml:space="preserve">
<style type="text/css">
	.st0{display:none;}
	.st1{display:inline;}
	.st2{fill:none;stroke:#414042;stroke-width:3;stroke-miterlimit:10;}
	.st3{display:inline;fill:none;stroke:#414042;stroke-width:3;stroke-miterlimit:10;}
	.st4{display:inline;fill:#FFFFFF;}
	.st5{display:inline;fill:#383838;}
	.st6{display:inline;fill:none;stroke:#C2C4C6;stroke-width:3;stroke-miterlimit:10;}
	.st7{fill:#AEAAAA;}
	.st8{display:inline;fill:none;stroke:#CDCDCD;stroke-width:3;stroke-miterlimit:10;}
	.st9{display:inline;fill:#CDCDCD;}
	.st10{display:inline;fill:#F4F4F4;}
	.st11{display:inline;fill:none;stroke:#F4F4F4;stroke-width:3;stroke-miterlimit:10;}
	.st12{display:inline;fill:none;stroke:#CDCDCD;stroke-width:2;stroke-miterlimit:10;}
	.st13{display:inline;fill:#F7F7F7;stroke:#F4F4F4;stroke-miterlimit:10;}
	.st14{display:inline;fill:#414042;}
	.st15{display:inline;fill:#D1D3D4;}
	.st16{display:inline;fill:none;stroke:#D1D3D4;stroke-width:3;stroke-miterlimit:10;}
	.st17{display:inline;fill:none;stroke:#414042;stroke-width:2;stroke-miterlimit:10;}
	.st18{display:inline;fill:#D2D2D4;stroke:#D1D3D4;stroke-miterlimit:10;}
	.st19{fill:#414042;}
	.st20{fill:#383838;}
	.st21{fill:#C3C4C5;}
	.st22{fill:none;stroke:#414042;stroke-width:5;stroke-miterlimit:10;}
	.st23{fill:none;stroke:#C2C4C6;stroke-width:3;stroke-miterlimit:10;}
	.st24{fill:#BCBEC0;}
	.st25{fill:#C4C6C8;stroke:#C4C6C8;stroke-miterlimit:10;}
	.st26{display:inline;fill:none;stroke:#C4C6C8;stroke-width:4;stroke-miterlimit:10;}
	.st27{fill:none;stroke:#C4C6C8;stroke-width:3;stroke-miterlimit:10;}
	.st28{display:inline;fill:none;stroke:#C4C6C8;stroke-width:3;stroke-miterlimit:10;}
	.st29{display:inline;fill:none;stroke:#414042;stroke-width:4;stroke-miterlimit:10;}
	.st30{fill:none;stroke:#C4C6C8;stroke-width:4;stroke-miterlimit:10;}
	.st31{display:none;fill:#FFFFFF;}
	.st32{fill:#C4C6C8;}
	.st33{fill:#C4C5C7;}
	.st34{fill-rule:evenodd;clip-rule:evenodd;fill:#414042;}
	.st35{fill-rule:evenodd;clip-rule:evenodd;fill:#C4C6C8;stroke:#C4C6C8;stroke-miterlimit:10;}
	.st36{fill:#B1B3B6;}
	.st37{fill:none;stroke:#B1B3B6;stroke-width:3;stroke-miterlimit:10;}
</style>
<g id="Layer_6">
	<g id="_x34_" class="st0">
		<g class="st1">
			<path class="st2" d="M27.97-9.63h50.77c4.97,0,9,4.03,9,9v56c0,4.97-4.03,9-9,9H22.75c-4.97,0-9-4.03-9-9v-56"/>
			<line class="st2" x1="22.75" y1="-9.63" x2="27.97" y2="-9.63"/>
		</g>
		<g class="st1">
			<line class="st2" x1="23.74" y1="19.23" x2="78.26" y2="19.23"/>
			<line class="st2" x1="23.74" y1="30.85" x2="78.26" y2="30.85"/>
			<line class="st2" x1="23.74" y1="42.07" x2="78.26" y2="42.07"/>
		</g>
		<line class="st3" x1="14.75" y1="10.32" x2="36.79" y2="10.32"/>
		<line class="st3" x1="36.79" y1="-8.9" x2="36.79" y2="11.82"/>
		<rect x="11.94" y="-11.37" class="st4" width="23.36" height="20.14"/>
		<line class="st3" x1="36.71" y1="-9.84" x2="13.75" y2="10.32"/>
	</g>
	<g id="_x32_" class="st0">
		<path class="st3" d="M21.82-8.57h55.99c4.97,0,9,4.03,9,9v55.99c0,4.97-4.03,9-9,9H21.82c-4.97,0-9-4.03-9-9V0.43"/>
		<polygon class="st5" points="49.79,22.28 41.46,30.53 5.13,-8.57 13.46,-16.81 		"/>
		<path class="st5" d="M50.34,23.3l2.02,6.44c0.75,2.38-1.47,4.6-3.76,3.76l-6.18-2.27"/>
	</g>
	<g id="_x32__light" class="st0">
		<path class="st6" d="M21.82-8.57h55.99c4.97,0,9,4.03,9,9v55.99c0,4.97-4.03,9-9,9H21.82c-4.97,0-9-4.03-9-9V0.43"/>
		<g class="st1">
			<polygon class="st7" points="49.79,22.28 41.46,30.53 5.13,-8.57 13.46,-16.81 			"/>
			<path class="st7" d="M50.34,23.3l2.02,6.44c0.75,2.38-1.47,4.6-3.76,3.76l-6.18-2.27"/>
		</g>
	</g>
</g>
<g id="Layer_14">
</g>
<g id="Reference">
</g>
<g id="Printer_x28_Light_x29_" class="st0">
	<path class="st8" d="M64.81,63.81H35.19c-4.97,0-9-4.03-9-9V-0.26c0-4.97,4.03-9,9-9H64.8c4.97,0,9,4.03,9,9v55.07
		C73.81,59.78,69.78,63.81,64.81,63.81z"/>
	<path class="st9" d="M78.49,39.5H21.51c-4.97,0-9-4.03-9-9V10.24c0-4.97,4.03-9,9-9H78.5c4.97,0,9,4.03,9,9v20.27
		C87.49,35.47,83.46,39.5,78.49,39.5z"/>
	<circle class="st10" cx="80.42" cy="8.65" r="3.03"/>
	<circle class="st10" cx="80.42" cy="16.71" r="3.03"/>
	<path class="st11" d="M26.19,39.46c0-4.97,4.03-9,9-9H64.8c4.97,0,9,4.03,9,9"/>
	<line class="st12" x1="50" y1="42.69" x2="66.15" y2="42.69"/>
	<line class="st12" x1="50" y1="46.67" x2="66.15" y2="46.67"/>
	<line class="st12" x1="33.85" y1="50.67" x2="66.15" y2="50.67"/>
	<line class="st12" x1="33.85" y1="54.67" x2="66.15" y2="54.67"/>
	<line class="st12" x1="33.85" y1="58.67" x2="66.15" y2="58.67"/>
	<path class="st10" d="M31.32,10.09h-11.5c-0.76,0-1.38-0.62-1.38-1.38V8.14c0-0.76,0.62-1.38,1.38-1.38h11.5
		c0.76,0,1.38,0.62,1.38,1.38v0.57C32.7,9.48,32.08,10.09,31.32,10.09z"/>
	<path class="st10" d="M31.32,14.41h-11.5c-0.76,0-1.38-0.62-1.38-1.38v-0.57c0-0.76,0.62-1.38,1.38-1.38h11.5
		c0.76,0,1.38,0.62,1.38,1.38v0.57C32.7,13.79,32.08,14.41,31.32,14.41z"/>
	<path class="st13" d="M71.98,39H27.64v-5.06c0-1.1,0.9-2,2-2h40.34c1.1,0,2,0.9,2,2C71.98,33.94,71.98,39,71.98,39z"/>
</g>
<g id="Printer" class="st0">
	<path class="st3" d="M64.81,63.81H35.19c-4.97,0-9-4.03-9-9V-0.26c0-4.97,4.03-9,9-9H64.8c4.97,0,9,4.03,9,9v55.07
		C73.81,59.78,69.78,63.81,64.81,63.81z"/>
	<path class="st14" d="M78.49,39.5H21.51c-4.97,0-9-4.03-9-9V10.24c0-4.97,4.03-9,9-9H78.5c4.97,0,9,4.03,9,9v20.27
		C87.49,35.47,83.46,39.5,78.49,39.5z"/>
	<circle class="st15" cx="80.42" cy="8.65" r="3.03"/>
	<circle class="st15" cx="80.42" cy="16.71" r="3.03"/>
	<path class="st16" d="M26.19,39.46c0-4.97,4.03-9,9-9H64.8c4.97,0,9,4.03,9,9"/>
	<line class="st17" x1="50" y1="42.69" x2="66.15" y2="42.69"/>
	<line class="st17" x1="50" y1="46.67" x2="66.15" y2="46.67"/>
	<line class="st17" x1="33.85" y1="50.67" x2="66.15" y2="50.67"/>
	<line class="st17" x1="33.85" y1="54.67" x2="66.15" y2="54.67"/>
	<line class="st17" x1="33.85" y1="58.67" x2="66.15" y2="58.67"/>
	<path class="st15" d="M31.32,10.09h-11.5c-0.76,0-1.38-0.62-1.38-1.38V8.14c0-0.76,0.62-1.38,1.38-1.38h11.5
		c0.76,0,1.38,0.62,1.38,1.38v0.57C32.7,9.48,32.08,10.09,31.32,10.09z"/>
	<path class="st15" d="M31.32,14.41h-11.5c-0.76,0-1.38-0.62-1.38-1.38v-0.57c0-0.76,0.62-1.38,1.38-1.38h11.5
		c0.76,0,1.38,0.62,1.38,1.38v0.57C32.7,13.79,32.08,14.41,31.32,14.41z"/>
	<path class="st18" d="M71.98,39H27.64v-5.06c0-1.1,0.9-2,2-2h40.34c1.1,0,2,0.9,2,2C71.98,33.94,71.98,39,71.98,39z"/>
</g>
<g id="_x32__2_" class="st0">
	<g class="st1">
		<path class="st19" d="M86.39,11.76c-0.78-1.59-1.71-2.85-2.8-3.78l-18.2-15.5c-1.09-0.93-2.57-1.72-4.43-2.38
			c-1.87-0.66-3.58-0.99-5.13-0.99h-24.6v6.36h18.95l0.04,20.67c0,1.32,0.54,2.45,1.63,3.38s2.41,1.39,3.97,1.39h24.27v38.16H20.35
			l-0.02-34.33h-7.44v35.92c0,1.33,0.54,2.45,1.63,3.38s2.41,1.39,3.97,1.39h63.47c1.56,0,2.88-0.46,3.97-1.39
			c1.09-0.93,1.63-2.05,1.63-3.38V16.13C87.56,14.81,87.17,13.35,86.39,11.76z M57.69,14.54V-4.14c1.13,0.33,1.92,0.7,2.39,1.09
			L78.34,12.5c0.47,0.4,0.89,1.08,1.28,2.04C79.62,14.54,57.69,14.54,57.69,14.54z"/>
		
			<rect x="16.59" y="-14.79" transform="matrix(0.7626 -0.6469 0.6469 0.7626 1.5174 17.981)" class="st20" width="17.33" height="43.43"/>
		<path class="st20" d="M43.04,35.35l-6.83-8.06l7.47-6.34l6.83,8.06c1.04,1.22,0.89,3.05-0.34,4.09l-3.05,2.59
			C45.91,36.72,44.08,36.57,43.04,35.35z"/>
		<path class="st19" d="M86.39,11.76c-0.78-1.59-1.71-2.85-2.8-3.78l-18.2-15.5c-1.09-0.93-2.57-1.72-4.43-2.38
			c-1.87-0.66-3.58-0.99-5.13-0.99h-24.6v6.36h18.95l0.04,20.67c0,1.32,0.54,2.45,1.63,3.38s2.41,1.39,3.97,1.39h24.27v38.16H20.35
			l-0.02-34.33h-7.44v35.92c0,1.33,0.54,2.45,1.63,3.38s2.41,1.39,3.97,1.39h63.47c1.56,0,2.88-0.46,3.97-1.39
			c1.09-0.93,1.63-2.05,1.63-3.38V16.13C87.56,14.81,87.17,13.35,86.39,11.76z M57.69,14.54V-4.14c1.13,0.33,1.92,0.7,2.39,1.09
			L78.34,12.5c0.47,0.4,0.89,1.08,1.28,2.04C79.62,14.54,57.69,14.54,57.69,14.54z"/>
	</g>
</g>
<g id="_x32__light_2_" class="st0">
	<g class="st1">
		<path class="st21" d="M86.39,11.76c-0.78-1.59-1.71-2.85-2.8-3.78l-18.2-15.5c-1.09-0.93-2.57-1.72-4.43-2.38
			c-1.87-0.66-3.58-0.99-5.13-0.99h-24.6v6.36h18.95l0.04,20.67c0,1.32,0.54,2.45,1.63,3.38s2.41,1.39,3.97,1.39h24.27v38.16H20.35
			l-0.02-34.33h-7.44v35.92c0,1.33,0.54,2.45,1.63,3.38s2.41,1.39,3.97,1.39h63.47c1.56,0,2.88-0.46,3.97-1.39
			c1.09-0.93,1.63-2.05,1.63-3.38V16.13C87.56,14.81,87.17,13.35,86.39,11.76z M57.69,14.54V-4.14c1.13,0.33,1.92,0.7,2.39,1.09
			L78.34,12.5c0.47,0.4,0.89,1.08,1.28,2.04C79.62,14.54,57.69,14.54,57.69,14.54z"/>
		
			<rect x="16.59" y="-14.79" transform="matrix(0.7626 -0.6469 0.6469 0.7626 1.5174 17.981)" class="st21" width="17.33" height="43.43"/>
		<path class="st21" d="M43.04,35.35l-6.83-8.06l7.47-6.34l6.83,8.06c1.04,1.22,0.89,3.05-0.34,4.09l-3.05,2.59
			C45.91,36.72,44.08,36.57,43.04,35.35z"/>
		<path class="st21" d="M86.39,11.76c-0.78-1.59-1.71-2.85-2.8-3.78l-18.2-15.5c-1.09-0.93-2.57-1.72-4.43-2.38
			c-1.87-0.66-3.58-0.99-5.13-0.99h-24.6v6.36h18.95l0.04,20.67c0,1.32,0.54,2.45,1.63,3.38s2.41,1.39,3.97,1.39h24.27v38.16H20.35
			l-0.02-34.33h-7.44v35.92c0,1.33,0.54,2.45,1.63,3.38s2.41,1.39,3.97,1.39h63.47c1.56,0,2.88-0.46,3.97-1.39
			c1.09-0.93,1.63-2.05,1.63-3.38V16.13C87.56,14.81,87.17,13.35,86.39,11.76z M57.69,14.54V-4.14c1.13,0.33,1.92,0.7,2.39,1.09
			L78.34,12.5c0.47,0.4,0.89,1.08,1.28,2.04C79.62,14.54,57.69,14.54,57.69,14.54z"/>
	</g>
</g>
<g id="_x33_" class="st0">
	<g class="st1">
		<path class="st22" d="M21.82-8.57h55.99c4.97,0,9,4.03,9,9v55.99c0,4.97-4.03,9-9,9H21.82c-4.97,0-9-4.03-9-9V0.43"/>
		<line class="st22" x1="12.82" y1="0.53" x2="12.82" y2="-7.18"/>
		<line class="st22" x1="11.32" y1="-8.57" x2="21.82" y2="-8.57"/>
	</g>
	<g class="st1">
		<path d="M21.39,16.36H30c5.04,0,8.3,2.6,8.3,7.01v0.06c0,4.75-3.63,7.24-8.58,7.24h-2.78v5.72h-5.55V16.36z M29.61,26.31
			c1.95,0,3.18-1.06,3.18-2.63v-0.06c0-1.72-1.23-2.6-3.2-2.6h-2.63v5.29H29.61z"/>
		<path d="M40.66,16.36h7.75c7.12,0,11.27,4.12,11.27,9.9v0.06c0,5.78-4.21,10.07-11.39,10.07h-7.64L40.66,16.36L40.66,16.36z
			 M46.21,21.25v10.21h2.26c3.35,0,5.55-1.83,5.55-5.06v-0.06c0-3.2-2.2-5.09-5.55-5.09C48.47,21.25,46.21,21.25,46.21,21.25z"/>
		<path d="M62.58,16.36H78.6v4.86H68.13v3.4h9.47v4.61h-9.47v7.15h-5.55C62.58,36.38,62.58,16.36,62.58,16.36z"/>
	</g>
</g>
<g id="_x32__light_1_" class="st0">
	<g class="st1">
		<path class="st23" d="M21.82-8.57h55.99c4.97,0,9,4.03,9,9v55.99c0,4.97-4.03,9-9,9H21.82c-4.97,0-9-4.03-9-9V0.43"/>
		<line class="st23" x1="12.82" y1="0.53" x2="12.82" y2="-7.18"/>
		<line class="st23" x1="11.32" y1="-8.57" x2="21.82" y2="-8.57"/>
	</g>
	<g class="st1">
		<path class="st24" d="M21.39,16.36H30c5.04,0,8.3,2.6,8.3,7.01v0.06c0,4.75-3.63,7.24-8.58,7.24h-2.78v5.72h-5.55V16.36z
			 M29.61,26.31c1.95,0,3.18-1.06,3.18-2.63v-0.06c0-1.72-1.23-2.6-3.2-2.6h-2.63v5.29H29.61z"/>
		<path class="st24" d="M40.66,16.36h7.75c7.12,0,11.27,4.12,11.27,9.9v0.06c0,5.78-4.21,10.07-11.39,10.07h-7.64L40.66,16.36
			L40.66,16.36z M46.21,21.25v10.21h2.26c3.35,0,5.55-1.83,5.55-5.06v-0.06c0-3.2-2.2-5.09-5.55-5.09
			C48.47,21.25,46.21,21.25,46.21,21.25z"/>
		<path class="st24" d="M62.58,16.36H78.6v4.86H68.13v3.4h9.47v4.61h-9.47v7.15h-5.55C62.58,36.38,62.58,16.36,62.58,16.36z"/>
	</g>
</g>
<g id="_x34__Light" class="st0">
	<g class="st1">
		<path class="st25" d="M86.39,11.76c-0.78-1.59-1.71-2.85-2.8-3.78l-18.2-15.5c-1.09-0.93-2.57-1.72-4.43-2.38
			c-1.87-0.66-3.58-0.99-5.13-0.99H18.49c-1.56,0-2.88,0.46-3.97,1.39s-1.63,2.05-1.63,3.38v66.77c0,1.33,0.54,2.45,1.63,3.38
			s2.41,1.39,3.97,1.39h63.47c1.56,0,2.88-0.46,3.97-1.39c1.09-0.93,1.63-2.05,1.63-3.38V16.13C87.56,14.81,87.17,13.35,86.39,11.76
			z M57.69-4.14c1.13,0.33,1.92,0.7,2.39,1.09L78.34,12.5c0.47,0.4,0.89,1.08,1.28,2.04H57.69V-4.14z M80.09,59.06H20.35v-63.6
			h29.87v20.67c0,1.32,0.54,2.45,1.63,3.38s2.41,1.39,3.97,1.39h24.27C80.09,20.9,80.09,59.06,80.09,59.06z"/>
	</g>
	<line class="st26" x1="32.64" y1="28.91" x2="69.47" y2="28.91"/>
	<line class="st26" x1="32.64" y1="38.53" x2="69.47" y2="38.53"/>
	<line class="st26" x1="32.64" y1="48.16" x2="69.47" y2="48.16"/>
</g>
<g id="_x35_" class="st0">
</g>
<g id="_x35__copy" class="st0">
</g>
<g id="_x36_" class="st0">
	<g class="st1">
		<path class="st2" d="M85.69,56.42c2.49,2.06,2.49,5.4,0,7.46s-6.53,2.06-9.02,0L37.49,31.49c-1.24-1.03-1.87-2.38-1.87-3.73
			s0.62-2.7,1.87-3.73L76.66-8.35c2.49-2.06,6.53-2.06,9.02,0c2.49,2.06,2.49,5.4,0,7.46L51.03,27.77L85.69,56.42z M26.2-10.9H14.81
			c-0.67,0-1.22,0.45-1.22,1.01v72.71c0,0.56,0.55,1.01,1.22,1.01H26.2c0.68,0,1.22-0.45,1.22-1.01V-9.89
			C27.42-10.44,26.88-10.9,26.2-10.9z"/>
	</g>
</g>
<g id="_x36__Light" class="st0">
	<g class="st1">
		<path class="st27" d="M85.69,56.42c2.49,2.06,2.49,5.4,0,7.46s-6.53,2.06-9.02,0L37.49,31.49c-1.24-1.03-1.87-2.38-1.87-3.73
			s0.62-2.7,1.87-3.73L76.66-8.35c2.49-2.06,6.53-2.06,9.02,0c2.49,2.06,2.49,5.4,0,7.46L51.03,27.77L85.69,56.42z M26.2-10.9H14.81
			c-0.67,0-1.22,0.45-1.22,1.01v72.71c0,0.56,0.55,1.01,1.22,1.01H26.2c0.68,0,1.22-0.45,1.22-1.01V-9.89
			C27.42-10.44,26.88-10.9,26.2-10.9z"/>
	</g>
</g>
<g id="_x39_" class="st0">
	<g class="st1">
		<path class="st2" d="M15.46-1.89c-2.49-2.06-2.49-5.4,0-7.46s6.53-2.06,9.02,0l39.17,32.38c1.24,1.03,1.87,2.38,1.87,3.73
			s-0.62,2.7-1.87,3.73L24.48,62.86c-2.49,2.06-6.53,2.06-9.02,0s-2.49-5.4,0-7.46l34.66-28.65L15.46-1.89z M74.95,65.42h11.39
			c0.67,0,1.22-0.45,1.22-1.01V-8.3c0-0.56-0.55-1.01-1.22-1.01H74.95c-0.68,0-1.22,0.45-1.22,1.01v72.71
			C73.72,64.97,74.27,65.42,74.95,65.42z"/>
	</g>
</g>
<g id="_x39__Light" class="st0">
	<g class="st1">
		<path class="st27" d="M15.46-1.89c-2.49-2.06-2.49-5.4,0-7.46s6.53-2.06,9.02,0l39.17,32.38c1.24,1.03,1.87,2.38,1.87,3.73
			s-0.62,2.7-1.87,3.73L24.48,62.86c-2.49,2.06-6.53,2.06-9.02,0s-2.49-5.4,0-7.46l34.66-28.65L15.46-1.89z M74.95,65.42h11.39
			c0.67,0,1.22-0.45,1.22-1.01V-8.3c0-0.56-0.55-1.01-1.22-1.01H74.95c-0.68,0-1.22,0.45-1.22,1.01v72.71
			C73.72,64.97,74.27,65.42,74.95,65.42z"/>
	</g>
</g>
<g id="_x38_" class="st0">
	<path class="st14" d="M83.65,23.53L44.48-8.85c-2.49-2.06-6.53-2.06-9.02,0s-2.49,5.4,0,7.46l27.68,22.88H6.4
		c-3.25,0-5.89,2.64-5.89,5.89s2.64,5.89,5.89,5.89h56.46L35.46,55.9c-2.49,2.06-2.49,5.4,0,7.46s6.53,2.06,9.02,0l39.17-32.38
		c1.24-1.03,1.87-2.38,1.87-3.73S84.9,24.55,83.65,23.53z"/>
</g>
<g id="_x38__light" class="st0">
	<path class="st28" d="M83.65,23.53L44.48-8.85c-2.49-2.06-6.53-2.06-9.02,0s-2.49,5.4,0,7.46l27.68,22.88H21.4
		c-3.25,0-5.89,2.64-5.89,5.89s2.64,5.89,5.89,5.89h41.46L35.46,55.9c-2.49,2.06-2.49,5.4,0,7.46s6.53,2.06,9.02,0l39.17-32.38
		c1.24-1.03,1.87-2.38,1.87-3.73S84.9,24.55,83.65,23.53z"/>
</g>
<g id="_x37_" class="st0">
	<path class="st14" d="M17.37,30.98l39.17,32.38c2.49,2.06,6.53,2.06,9.02,0s2.49-5.4,0-7.46L37.89,33.02h55.74
		c3.25,0,5.89-2.64,5.89-5.89s-2.64-5.89-5.89-5.89H38.18L65.57-1.4c2.49-2.06,2.49-5.4,0-7.46c-2.49-2.06-6.53-2.06-9.02,0
		L17.37,23.52c-1.24,1.03-1.87,2.38-1.87,3.73C15.51,28.6,16.13,29.95,17.37,30.98z"/>
</g>
<g id="_x37__light" class="st0">
	<path class="st28" d="M17.37,30.98l39.17,32.38c2.49,2.06,6.53,2.06,9.02,0s2.49-5.4,0-7.46L37.89,33.02h41.74
		c3.25,0,5.89-2.64,5.89-5.89s-2.64-5.89-5.89-5.89H38.18L65.57-1.4c2.49-2.06,2.49-5.4,0-7.46c-2.49-2.06-6.53-2.06-9.02,0
		L17.37,23.52c-1.24,1.03-1.87,2.38-1.87,3.73C15.51,28.6,16.13,29.95,17.37,30.98z"/>
</g>
<g id="_x31_1" class="st0">
</g>
<g id="_x31_1_light" class="st0">
</g>
<g id="_x31_1_1_" class="st0">
</g>
<g id="_x31_1_light_1_" class="st0">
</g>
<g id="_x31_2_1_" class="st0">
	<circle class="st3" cx="50" cy="26.63" r="37.52"/>
	<line class="st29" x1="68.53" y1="26.36" x2="31.47" y2="26.38"/>
</g>
<g id="_x31_2_Light" class="st0">
	<circle class="st28" cx="50" cy="26.63" r="37.52"/>
	<line class="st26" x1="68.53" y1="26.36" x2="31.47" y2="26.38"/>
</g>
<g id="_x31_3" class="st0">
	<circle class="st3" cx="50" cy="26.63" r="37.52"/>
	<g class="st1">
		<line class="st2" x1="49.99" y1="7.84" x2="50.01" y2="44.9"/>
		<line class="st2" x1="68.53" y1="26.36" x2="31.47" y2="26.38"/>
	</g>
</g>
<g id="_x31_3_light" class="st0">
	<circle class="st28" cx="50" cy="26.63" r="37.52"/>
	<g class="st1">
		<line class="st30" x1="49.99" y1="7.84" x2="50.01" y2="44.9"/>
		<line class="st30" x1="68.53" y1="26.36" x2="31.47" y2="26.38"/>
	</g>
</g>
<path class="st31" d="M37.17,33.7h25.66c1.17,0,1.8-1.1,1.05-1.82L51.05,19.73c-0.55-0.52-1.54-0.52-2.08,0L36.13,31.88
	C35.37,32.6,36.01,33.7,37.17,33.7z"/>
<g id="_x31_8_1_" class="st0">
</g>
<g id="_x31_9" class="st0">
</g>
<g id="_x32_0" class="st0">
</g>
<g id="_x31_5" class="st0">
	<g class="st1">
		<g>
			<path class="st19" d="M84.08-11.42H25.2c-2.05,0-3.73,1.67-3.73,3.73v6.63h-3.23c-2.23,0-4.05,1.82-4.05,4.05
				s1.82,4.05,4.05,4.05h3.23v8.16h-3.23c-2.23,0-4.05,1.82-4.05,4.05s1.82,4.05,4.05,4.05h3.23v8.16h-3.23
				c-2.23,0-4.05,1.82-4.05,4.05c0,0.63,0.51,1.14,1.14,1.14s1.14-0.51,1.14-1.14c0-0.98,0.8-1.78,1.78-1.78h8.74
				c0.98,0,1.78,0.8,1.78,1.78s-0.8,1.78-1.78,1.78h-8.2c-0.63,0-1.14,0.51-1.14,1.14s0.51,1.14,1.14,1.14h2.7v8.16h-3.23
				c-2.23,0-4.05,1.82-4.05,4.05s1.82,4.05,4.05,4.05h3.23v6.63c0,2.05,1.67,3.73,3.73,3.73H84.1c2.05,0,3.73-1.67,3.73-3.73V-7.69
				C87.81-9.75,86.13-11.42,84.08-11.42z M18.24,4.76c-0.98,0-1.78-0.8-1.78-1.78c0-0.98,0.8-1.78,1.78-1.78h8.74
				c0.98,0,1.78,0.8,1.78,1.78c0,0.98-0.8,1.78-1.78,1.78H18.24z M18.24,21.02c-0.98,0-1.78-0.8-1.78-1.78s0.8-1.78,1.78-1.78h8.74
				c0.98,0,1.78,0.8,1.78,1.78s-0.8,1.78-1.78,1.78H18.24z M18.24,53.53c-0.98,0-1.78-0.8-1.78-1.78c0-0.98,0.8-1.78,1.78-1.78h8.74
				c0.98,0,1.78,0.8,1.78,1.78c0,0.98-0.8,1.78-1.78,1.78H18.24z M75.83,62.43c0,0.8-0.65,1.45-1.45,1.45H37.17H25.2
				c-0.8,0-1.45-0.65-1.45-1.45V55.8h3.23c2.23,0,4.05-1.82,4.05-4.05s-1.82-4.05-4.05-4.05h-3.23v-8.16h3.23
				c2.23,0,4.05-1.82,4.05-4.05s-1.82-4.05-4.05-4.05h-3.23v-8.16h3.23c2.23,0,4.05-1.82,4.05-4.05s-1.82-4.05-4.05-4.05h-3.23V7.02
				h3.23c2.23,0,4.05-1.82,4.05-4.05s-1.82-4.05-4.05-4.05h-3.23v-6.63c0-0.8,0.65-1.45,1.45-1.45h27.44h21.74
				c0.8,0,1.45,0.65,1.45,1.45C75.83-7.71,75.83,62.43,75.83,62.43z M85.53,62.43c0,0.8-0.65,1.45-1.45,1.45H77.8
				c0.19-0.45,0.3-0.94,0.3-1.45v-2.86h5.98c0.52,0,1.01-0.11,1.45-0.3C85.53,59.27,85.53,62.43,85.53,62.43z M85.53,55.84
				c0,0.8-0.65,1.45-1.45,1.45H78.1V38.94h3.72c0.63,0,1.14-0.51,1.14-1.14s-0.51-1.14-1.14-1.14H78.1V18.32h7.43V55.84z
				 M85.53,16.04H78.1V-2.31h5.98c0.8,0,1.45,0.65,1.45,1.45V16.04z M85.53-4.29c-0.45-0.19-0.94-0.3-1.45-0.3H78.1V-7.7
				c0-0.52-0.11-1.01-0.3-1.45h6.28c0.8,0,1.45,0.65,1.45,1.45C85.53-7.7,85.53-4.29,85.53-4.29z"/>
		</g>
	</g>
	<path class="st3" d="M48.79-10.79v21.8c0,0.87,0.95,1.41,1.7,0.95l1.44-0.88c0.36-0.22,0.8-0.22,1.16,0l1.44,0.88
		c0.74,0.45,1.7-0.08,1.7-0.95v-21.8"/>
	<g class="st1">
		<path class="st19" d="M32.15,16.04c0-0.51,0.4-0.91,0.91-0.91H36c0.95,0,1.7,0.26,2.17,0.74c0.38,0.38,0.57,0.84,0.57,1.41v0.02
			c0,0.94-0.5,1.46-1.09,1.79c0.96,0.37,1.56,0.93,1.56,2.04v0.02c0,1.52-1.23,2.28-3.11,2.28h-3.04c-0.51,0-0.91-0.4-0.91-0.91
			C32.15,22.52,32.15,16.04,32.15,16.04z M35.61,18.48c0.81,0,1.32-0.26,1.32-0.88v-0.02c0-0.55-0.43-0.85-1.2-0.85h-1.8v1.76
			L35.61,18.48L35.61,18.48z M36.1,21.83c0.81,0,1.29-0.28,1.29-0.9v-0.02c0-0.56-0.42-0.9-1.35-0.9h-2.11v1.83L36.1,21.83
			L36.1,21.83z"/>
		<path class="st19" d="M40.35,19.3v-0.02c0-2.36,1.86-4.3,4.43-4.3c2.56,0,4.4,1.91,4.4,4.27v0.02c0,2.36-1.86,4.3-4.43,4.3
			C42.19,23.58,40.35,21.66,40.35,19.3z M47.27,19.3v-0.02c0-1.42-1.04-2.61-2.52-2.61c-1.47,0-2.49,1.16-2.49,2.59v0.02
			c0,1.42,1.04,2.61,2.52,2.61C46.25,21.89,47.27,20.73,47.27,19.3z"/>
		<path class="st19" d="M50.45,19.3v-0.02c0-2.36,1.86-4.3,4.43-4.3c2.56,0,4.4,1.91,4.4,4.27v0.02c0,2.36-1.86,4.3-4.43,4.3
			C52.29,23.58,50.45,21.66,50.45,19.3z M57.37,19.3v-0.02c0-1.42-1.04-2.61-2.52-2.61c-1.47,0-2.49,1.16-2.49,2.59v0.02
			c0,1.42,1.04,2.61,2.52,2.61C56.35,21.89,57.37,20.73,57.37,19.3z"/>
		<path class="st19" d="M60.91,15.97c0-0.51,0.4-0.91,0.91-0.91s0.91,0.4,0.91,0.91v2.79l3.37-3.35c0.23-0.23,0.45-0.36,0.77-0.36
			c0.51,0,0.84,0.39,0.84,0.84c0,0.28-0.13,0.5-0.33,0.69l-2.34,2.18l2.55,3.21c0.14,0.18,0.25,0.37,0.25,0.64
			c0,0.51-0.39,0.89-0.93,0.89c-0.36,0-0.57-0.18-0.77-0.44l-2.37-3.11l-1.04,0.97v1.66c0,0.51-0.4,0.91-0.91,0.91
			s-0.91-0.4-0.91-0.91V15.97z"/>
		<path class="st19" d="M32.15,30.24c0-0.51,0.4-0.91,0.91-0.91h0.2c0.39,0,0.66,0.2,0.83,0.47l2.21,3.6l2.22-3.61
			c0.19-0.31,0.45-0.46,0.82-0.46h0.2c0.51,0,0.91,0.4,0.91,0.91v6.6c0,0.51-0.4,0.91-0.91,0.91c-0.5,0-0.9-0.42-0.9-0.91V32.7
			l-1.6,2.47c-0.19,0.29-0.43,0.46-0.76,0.46c-0.33,0-0.57-0.18-0.76-0.46l-1.58-2.43v4.13c0,0.5-0.4,0.89-0.9,0.89
			s-0.89-0.39-0.89-0.89C32.15,36.87,32.15,30.24,32.15,30.24z"/>
		<path class="st19" d="M41.99,36.51l2.9-6.54c0.2-0.45,0.57-0.72,1.07-0.72h0.11c0.5,0,0.85,0.27,1.06,0.72l2.9,6.54
			c0.06,0.13,0.09,0.25,0.09,0.37c0,0.49-0.38,0.88-0.87,0.88c-0.43,0-0.71-0.25-0.88-0.63l-0.56-1.31h-3.66l-0.58,1.36
			c-0.15,0.36-0.46,0.57-0.84,0.57c-0.47,0-0.84-0.38-0.84-0.86C41.88,36.77,41.93,36.64,41.99,36.51z M47.13,34.21l-1.15-2.74
			l-1.15,2.74H47.13z"/>
		<path class="st19" d="M51.55,30.29c0-0.51,0.4-0.91,0.91-0.91h2.88c1.06,0,1.88,0.3,2.42,0.84c0.46,0.46,0.71,1.12,0.71,1.9v0.02
			c0,1.31-0.65,2.11-1.66,2.53l1.27,1.54c0.18,0.23,0.3,0.42,0.3,0.7c0,0.51-0.43,0.84-0.87,0.84c-0.42,0-0.69-0.2-0.9-0.48
			l-1.78-2.25h-1.46v1.82c0,0.51-0.4,0.91-0.91,0.91s-0.91-0.4-0.91-0.91C51.55,36.84,51.55,30.29,51.55,30.29z M55.23,33.41
			c0.89,0,1.4-0.47,1.4-1.18v-0.02c0-0.78-0.55-1.19-1.44-1.19h-1.82v2.39H55.23z"/>
		<path class="st19" d="M60.14,30.22c0-0.51,0.4-0.91,0.91-0.91s0.91,0.4,0.91,0.91v2.79l3.37-3.35c0.23-0.23,0.45-0.36,0.77-0.36
			c0.51,0,0.84,0.39,0.84,0.84c0,0.29-0.13,0.5-0.33,0.69l-2.34,2.18l2.55,3.21c0.14,0.18,0.25,0.37,0.25,0.64
			c0,0.51-0.39,0.89-0.93,0.89c-0.36,0-0.57-0.18-0.77-0.44L63,34.2l-1.04,0.97v1.66c0,0.51-0.4,0.91-0.91,0.91s-0.91-0.4-0.91-0.91
			C60.14,36.83,60.14,30.22,60.14,30.22z"/>
	</g>
</g>
<g id="_x31_5_light" class="st0">
	<g class="st1">
		<g>
			<path class="st32" d="M84.06-11.39H25.18c-2.05,0-3.73,1.67-3.73,3.73v6.63h-3.23c-2.23,0-4.05,1.82-4.05,4.05
				s1.82,4.05,4.05,4.05h3.23v8.16h-3.23c-2.23,0-4.05,1.82-4.05,4.05s1.82,4.05,4.05,4.05h3.23v8.16h-3.23
				c-2.23,0-4.05,1.82-4.05,4.05c0,0.63,0.51,1.14,1.14,1.14s1.14-0.51,1.14-1.14c0-0.98,0.8-1.78,1.78-1.78h8.74
				c0.98,0,1.78,0.8,1.78,1.78s-0.8,1.78-1.78,1.78h-8.2c-0.63,0-1.14,0.51-1.14,1.14s0.51,1.14,1.14,1.14h2.7v8.16h-3.23
				c-2.23,0-4.05,1.82-4.05,4.05s1.82,4.05,4.05,4.05h3.23v6.63c0,2.05,1.67,3.73,3.73,3.73h58.88c2.05,0,3.73-1.67,3.73-3.73V-7.67
				C87.79-9.72,86.11-11.39,84.06-11.39z M18.22,4.79c-0.98,0-1.78-0.8-1.78-1.78s0.8-1.78,1.78-1.78h8.74
				c0.98,0,1.78,0.8,1.78,1.78s-0.8,1.78-1.78,1.78H18.22z M18.22,21.04c-0.98,0-1.78-0.8-1.78-1.78s0.8-1.78,1.78-1.78h8.74
				c0.98,0,1.78,0.8,1.78,1.78s-0.8,1.78-1.78,1.78H18.22z M18.22,53.56c-0.98,0-1.78-0.8-1.78-1.78c0-0.98,0.8-1.78,1.78-1.78h8.74
				c0.98,0,1.78,0.8,1.78,1.78c0,0.98-0.8,1.78-1.78,1.78H18.22z M75.81,62.46c0,0.8-0.65,1.45-1.45,1.45H37.15H25.18
				c-0.8,0-1.45-0.65-1.45-1.45v-6.63h3.23c2.23,0,4.05-1.82,4.05-4.05s-1.82-4.05-4.05-4.05h-3.23v-8.16h3.23
				c2.23,0,4.05-1.82,4.05-4.05s-1.82-4.05-4.05-4.05h-3.23v-8.16h3.23c2.23,0,4.05-1.82,4.05-4.05s-1.82-4.05-4.05-4.05h-3.23V7.05
				h3.23c2.23,0,4.05-1.82,4.05-4.05s-1.82-4.05-4.05-4.05h-3.23v-6.63c0-0.8,0.65-1.45,1.45-1.45h27.44h21.74
				c0.8,0,1.45,0.65,1.45,1.45V62.46z M85.51,62.46c0,0.8-0.65,1.45-1.45,1.45h-6.28c0.19-0.45,0.3-0.94,0.3-1.45V59.6h5.98
				c0.52,0,1.01-0.11,1.45-0.3C85.51,59.3,85.51,62.46,85.51,62.46z M85.51,55.87c0,0.8-0.65,1.45-1.45,1.45h-5.98V38.97h3.72
				c0.63,0,1.14-0.51,1.14-1.14s-0.51-1.14-1.14-1.14h-3.72V18.34h7.43V55.87z M85.51,16.07h-7.43V-2.28h5.98
				c0.8,0,1.45,0.65,1.45,1.45V16.07z M85.51-4.26c-0.45-0.19-0.94-0.3-1.45-0.3h-5.98v-3.11c0-0.52-0.11-1.01-0.3-1.45h6.28
				c0.8,0,1.45,0.65,1.45,1.45C85.51-7.67,85.51-4.26,85.51-4.26z"/>
		</g>
	</g>
	<g class="st1">
		<path class="st33" d="M32.15,16.04c0-0.51,0.4-0.91,0.91-0.91H36c0.95,0,1.7,0.26,2.17,0.74c0.38,0.38,0.57,0.84,0.57,1.41v0.02
			c0,0.94-0.5,1.46-1.09,1.79c0.96,0.37,1.56,0.93,1.56,2.04v0.02c0,1.52-1.23,2.28-3.11,2.28h-3.04c-0.51,0-0.91-0.4-0.91-0.91
			C32.15,22.52,32.15,16.04,32.15,16.04z M35.61,18.48c0.81,0,1.32-0.26,1.32-0.88v-0.02c0-0.55-0.43-0.85-1.2-0.85h-1.8v1.76
			L35.61,18.48L35.61,18.48z M36.1,21.83c0.81,0,1.29-0.28,1.29-0.9v-0.02c0-0.56-0.42-0.9-1.35-0.9h-2.11v1.83L36.1,21.83
			L36.1,21.83z"/>
		<path class="st33" d="M40.35,19.3v-0.02c0-2.36,1.86-4.3,4.43-4.3c2.56,0,4.4,1.91,4.4,4.27v0.02c0,2.36-1.86,4.3-4.43,4.3
			C42.19,23.58,40.35,21.66,40.35,19.3z M47.27,19.3v-0.02c0-1.42-1.04-2.61-2.52-2.61c-1.47,0-2.49,1.16-2.49,2.59v0.02
			c0,1.42,1.04,2.61,2.52,2.61C46.25,21.89,47.27,20.73,47.27,19.3z"/>
		<path class="st33" d="M50.45,19.3v-0.02c0-2.36,1.86-4.3,4.43-4.3c2.56,0,4.4,1.91,4.4,4.27v0.02c0,2.36-1.86,4.3-4.43,4.3
			C52.29,23.58,50.45,21.66,50.45,19.3z M57.37,19.3v-0.02c0-1.42-1.04-2.61-2.52-2.61c-1.47,0-2.49,1.16-2.49,2.59v0.02
			c0,1.42,1.04,2.61,2.52,2.61C56.35,21.89,57.37,20.73,57.37,19.3z"/>
		<path class="st33" d="M60.91,15.97c0-0.51,0.4-0.91,0.91-0.91s0.91,0.4,0.91,0.91v2.79l3.37-3.35c0.23-0.23,0.45-0.36,0.77-0.36
			c0.51,0,0.84,0.39,0.84,0.84c0,0.28-0.13,0.5-0.33,0.69l-2.34,2.18l2.55,3.21c0.14,0.18,0.25,0.37,0.25,0.64
			c0,0.51-0.39,0.89-0.93,0.89c-0.36,0-0.57-0.18-0.77-0.44l-2.37-3.11l-1.04,0.97v1.66c0,0.51-0.4,0.91-0.91,0.91
			s-0.91-0.4-0.91-0.91V15.97z"/>
		<path class="st33" d="M32.15,30.24c0-0.51,0.4-0.91,0.91-0.91h0.2c0.39,0,0.66,0.2,0.83,0.47l2.21,3.6l2.22-3.61
			c0.19-0.31,0.45-0.46,0.82-0.46h0.2c0.51,0,0.91,0.4,0.91,0.91v6.6c0,0.51-0.4,0.91-0.91,0.91c-0.5,0-0.9-0.42-0.9-0.91V32.7
			l-1.6,2.47c-0.19,0.29-0.43,0.46-0.76,0.46c-0.33,0-0.57-0.18-0.76-0.46l-1.58-2.43v4.13c0,0.5-0.4,0.89-0.9,0.89
			s-0.89-0.39-0.89-0.89C32.15,36.87,32.15,30.24,32.15,30.24z"/>
		<path class="st33" d="M41.99,36.51l2.9-6.54c0.2-0.45,0.57-0.72,1.07-0.72h0.11c0.5,0,0.85,0.27,1.06,0.72l2.9,6.54
			c0.06,0.13,0.09,0.25,0.09,0.37c0,0.49-0.38,0.88-0.87,0.88c-0.43,0-0.71-0.25-0.88-0.63l-0.56-1.31h-3.66l-0.58,1.36
			c-0.15,0.36-0.46,0.57-0.84,0.57c-0.47,0-0.84-0.38-0.84-0.86C41.88,36.77,41.93,36.64,41.99,36.51z M47.13,34.21l-1.15-2.74
			l-1.15,2.74H47.13z"/>
		<path class="st33" d="M51.55,30.29c0-0.51,0.4-0.91,0.91-0.91h2.88c1.06,0,1.88,0.3,2.42,0.84c0.46,0.46,0.71,1.12,0.71,1.9v0.02
			c0,1.31-0.65,2.11-1.66,2.53l1.27,1.54c0.18,0.23,0.3,0.42,0.3,0.7c0,0.51-0.43,0.84-0.87,0.84c-0.42,0-0.69-0.2-0.9-0.48
			l-1.78-2.25h-1.46v1.82c0,0.51-0.4,0.91-0.91,0.91s-0.91-0.4-0.91-0.91C51.55,36.84,51.55,30.29,51.55,30.29z M55.23,33.41
			c0.89,0,1.4-0.47,1.4-1.18v-0.02c0-0.78-0.55-1.19-1.44-1.19h-1.82v2.39H55.23z"/>
		<path class="st33" d="M60.14,30.22c0-0.51,0.4-0.91,0.91-0.91s0.91,0.4,0.91,0.91v2.79l3.37-3.35c0.23-0.23,0.45-0.36,0.77-0.36
			c0.51,0,0.84,0.39,0.84,0.84c0,0.29-0.13,0.5-0.33,0.69l-2.34,2.18l2.55,3.21c0.14,0.18,0.25,0.37,0.25,0.64
			c0,0.51-0.39,0.89-0.93,0.89c-0.36,0-0.57-0.18-0.77-0.44L63,34.2l-1.04,0.97v1.66c0,0.51-0.4,0.91-0.91,0.91s-0.91-0.4-0.91-0.91
			C60.14,36.83,60.14,30.22,60.14,30.22z"/>
	</g>
	<path class="st28" d="M48.79-10.79v21.8c0,0.87,0.95,1.41,1.7,0.95l1.44-0.88c0.36-0.22,0.8-0.22,1.16,0l1.44,0.88
		c0.74,0.45,1.7-0.08,1.7-0.95v-21.8"/>
</g>
<g id="_x31_6" class="st0">
	<g class="st1">
		<g id="Search">
			<path class="st34" d="M70.22,45.42l-7.81-10.85c-0.04-0.06-0.09-0.1-0.14-0.16c2.29-2.49,3.9-5.64,4.49-9.23
				c1.59-9.75-5.03-18.94-14.78-20.53S33.04,9.68,31.45,19.43c-1.59,9.75,5.03,18.94,14.78,20.53c3.58,0.58,7.09,0.06,10.18-1.33
				c0.04,0.06,0.06,0.12,0.1,0.18l7.81,10.85c1.17,1.63,3.45,2,5.07,0.83C71.02,49.32,71.39,47.05,70.22,45.42z M47.23,33.84
				c-6.37-1.04-10.69-7.04-9.65-13.41s7.04-10.69,13.41-9.65s10.69,7.04,9.65,13.41S53.6,34.88,47.23,33.84z"/>
		</g>
		<g>
			<g>
				<path class="st19" d="M83.08-11.54H24.2c-2.05,0-3.73,1.67-3.73,3.73v6.63h-3.23c-2.23,0-4.05,1.82-4.05,4.05
					s1.82,4.05,4.05,4.05h3.23v8.16h-3.23c-2.23,0-4.05,1.82-4.05,4.05s1.82,4.05,4.05,4.05h3.23v8.16h-3.23
					c-2.23,0-4.05,1.82-4.05,4.05c0,0.63,0.51,1.14,1.14,1.14s1.14-0.51,1.14-1.14c0-0.98,0.8-1.78,1.78-1.78h8.74
					c0.98,0,1.78,0.8,1.78,1.78s-0.8,1.78-1.78,1.78h-8.2c-0.63,0-1.14,0.51-1.14,1.14s0.51,1.14,1.14,1.14h2.7v8.16h-3.23
					c-2.23,0-4.05,1.82-4.05,4.05s1.82,4.05,4.05,4.05h3.23v6.63c0,2.05,1.67,3.73,3.73,3.73H83.1c2.05,0,3.73-1.67,3.73-3.73V-7.81
					C86.81-9.86,85.14-11.54,83.08-11.54z M17.24,4.64c-0.98,0-1.78-0.8-1.78-1.78c0-0.98,0.8-1.78,1.78-1.78h8.74
					c0.98,0,1.78,0.8,1.78,1.78c0,0.98-0.8,1.78-1.78,1.78H17.24z M17.24,20.9c-0.98,0-1.78-0.8-1.78-1.78s0.8-1.78,1.78-1.78h8.74
					c0.98,0,1.78,0.8,1.78,1.78s-0.8,1.78-1.78,1.78H17.24z M17.24,53.41c-0.98,0-1.78-0.8-1.78-1.78c0-0.98,0.8-1.78,1.78-1.78
					h8.74c0.98,0,1.78,0.8,1.78,1.78c0,0.98-0.8,1.78-1.78,1.78H17.24z M74.83,62.31c0,0.8-0.65,1.45-1.45,1.45H36.17H24.2
					c-0.8,0-1.45-0.65-1.45-1.45v-6.63h3.23c2.23,0,4.05-1.82,4.05-4.05s-1.82-4.05-4.05-4.05h-3.23v-8.16h3.23
					c2.23,0,4.05-1.82,4.05-4.05s-1.82-4.05-4.05-4.05h-3.23v-8.15h3.23c2.23,0,4.05-1.82,4.05-4.05s-1.82-4.05-4.05-4.05h-3.23
					V6.91h3.23c2.23,0,4.05-1.82,4.05-4.05s-1.82-4.05-4.05-4.05h-3.23v-6.63c0-0.8,0.65-1.45,1.45-1.45h27.44h21.74
					c0.8,0,1.45,0.65,1.45,1.45C74.83-7.82,74.83,62.31,74.83,62.31z M84.53,62.31c0,0.8-0.65,1.45-1.45,1.45H76.8
					c0.19-0.45,0.3-0.94,0.3-1.45v-2.86h5.98c0.52,0,1.01-0.11,1.45-0.3C84.53,59.15,84.53,62.31,84.53,62.31z M84.53,55.73
					c0,0.8-0.65,1.45-1.45,1.45H77.1V38.83h3.72c0.63,0,1.14-0.51,1.14-1.14s-0.51-1.14-1.14-1.14H77.1V18.2h7.43V55.73z
					 M84.53,15.93H77.1V-2.43h5.98c0.8,0,1.45,0.65,1.45,1.45V15.93z M84.53-4.4c-0.45-0.19-0.94-0.3-1.45-0.3H77.1v-3.11
					c0-0.52-0.11-1.01-0.3-1.45h6.28c0.8,0,1.45,0.65,1.45,1.45C84.53-7.81,84.53-4.4,84.53-4.4z"/>
			</g>
		</g>
		<g>
			<path class="st19" d="M47.94,24.38c-0.74-0.13-1.17-0.78-1.16-1.48l0.04-1.77c0.02-0.86,0.6-1.36,1.43-1.32
				c2.25,0.1,3.39-0.41,3.6-1.66l0.01-0.05c0.2-1.14-0.55-1.95-2.03-2.2c-1.09-0.19-2.09-0.02-3.12,0.51
				c-0.34,0.18-0.78,0.29-1.21,0.21c-0.96-0.16-1.64-1.11-1.47-2.08c0.08-0.48,0.37-0.95,0.89-1.26c1.54-0.89,3.36-1.31,5.59-0.93
				c3.65,0.62,5.82,2.93,5.24,6.3l-0.01,0.05c-0.55,3.22-3.01,4.16-5.87,4.25l-0.15,0.44c-0.21,0.64-0.85,1.13-1.58,1.01
				L47.94,24.38z M47.65,26.05c1.27,0.22,2.05,1.32,1.84,2.53l-0.01,0.05c-0.21,1.22-1.31,1.99-2.58,1.78s-2.05-1.31-1.84-2.53
				l0.01-0.05C45.28,26.62,46.38,25.84,47.65,26.05z"/>
		</g>
	</g>
</g>
<g id="_x31_6_Light" class="st0">
	<g class="st1">
		<g id="Search_2_">
			<path class="st35" d="M70.22,45.42l-7.81-10.85c-0.04-0.06-0.09-0.1-0.14-0.16c2.29-2.49,3.9-5.64,4.49-9.23
				c1.59-9.75-5.03-18.94-14.78-20.53S33.04,9.68,31.45,19.43c-1.59,9.75,5.03,18.94,14.78,20.53c3.58,0.58,7.09,0.06,10.18-1.33
				c0.04,0.06,0.06,0.12,0.1,0.18l7.81,10.85c1.17,1.63,3.45,2,5.07,0.83C71.02,49.32,71.39,47.05,70.22,45.42z M47.23,33.84
				c-6.37-1.04-10.69-7.04-9.65-13.41s7.04-10.69,13.41-9.65s10.69,7.04,9.65,13.41S53.6,34.88,47.23,33.84z"/>
		</g>
		<g>
			<g>
				<path class="st25" d="M83.08-11.54H24.2c-2.05,0-3.73,1.67-3.73,3.73v6.63h-3.23c-2.23,0-4.05,1.82-4.05,4.05
					s1.82,4.05,4.05,4.05h3.23v8.16h-3.23c-2.23,0-4.05,1.82-4.05,4.05s1.82,4.05,4.05,4.05h3.23v8.16h-3.23
					c-2.23,0-4.05,1.82-4.05,4.05c0,0.63,0.51,1.14,1.14,1.14s1.14-0.51,1.14-1.14c0-0.98,0.8-1.78,1.78-1.78h8.74
					c0.98,0,1.78,0.8,1.78,1.78s-0.8,1.78-1.78,1.78h-8.2c-0.63,0-1.14,0.51-1.14,1.14s0.51,1.14,1.14,1.14h2.7v8.16h-3.23
					c-2.23,0-4.05,1.82-4.05,4.05s1.82,4.05,4.05,4.05h3.23v6.63c0,2.05,1.67,3.73,3.73,3.73H83.1c2.05,0,3.73-1.67,3.73-3.73V-7.81
					C86.81-9.86,85.14-11.54,83.08-11.54z M17.24,4.64c-0.98,0-1.78-0.8-1.78-1.78c0-0.98,0.8-1.78,1.78-1.78h8.74
					c0.98,0,1.78,0.8,1.78,1.78c0,0.98-0.8,1.78-1.78,1.78H17.24z M17.24,20.9c-0.98,0-1.78-0.8-1.78-1.78s0.8-1.78,1.78-1.78h8.74
					c0.98,0,1.78,0.8,1.78,1.78s-0.8,1.78-1.78,1.78H17.24z M17.24,53.41c-0.98,0-1.78-0.8-1.78-1.78c0-0.98,0.8-1.78,1.78-1.78
					h8.74c0.98,0,1.78,0.8,1.78,1.78c0,0.98-0.8,1.78-1.78,1.78H17.24z M74.83,62.31c0,0.8-0.65,1.45-1.45,1.45H36.17H24.2
					c-0.8,0-1.45-0.65-1.45-1.45v-6.63h3.23c2.23,0,4.05-1.82,4.05-4.05s-1.82-4.05-4.05-4.05h-3.23v-8.16h3.23
					c2.23,0,4.05-1.82,4.05-4.05s-1.82-4.05-4.05-4.05h-3.23v-8.15h3.23c2.23,0,4.05-1.82,4.05-4.05s-1.82-4.05-4.05-4.05h-3.23
					V6.91h3.23c2.23,0,4.05-1.82,4.05-4.05s-1.82-4.05-4.05-4.05h-3.23v-6.63c0-0.8,0.65-1.45,1.45-1.45h27.44h21.74
					c0.8,0,1.45,0.65,1.45,1.45C74.83-7.82,74.83,62.31,74.83,62.31z M84.53,62.31c0,0.8-0.65,1.45-1.45,1.45H76.8
					c0.19-0.45,0.3-0.94,0.3-1.45v-2.86h5.98c0.52,0,1.01-0.11,1.45-0.3C84.53,59.15,84.53,62.31,84.53,62.31z M84.53,55.73
					c0,0.8-0.65,1.45-1.45,1.45H77.1V38.83h3.72c0.63,0,1.14-0.51,1.14-1.14s-0.51-1.14-1.14-1.14H77.1V18.2h7.43V55.73z
					 M84.53,15.93H77.1V-2.43h5.98c0.8,0,1.45,0.65,1.45,1.45V15.93z M84.53-4.4c-0.45-0.19-0.94-0.3-1.45-0.3H77.1v-3.11
					c0-0.52-0.11-1.01-0.3-1.45h6.28c0.8,0,1.45,0.65,1.45,1.45C84.53-7.81,84.53-4.4,84.53-4.4z"/>
			</g>
		</g>
		<g>
			<path class="st25" d="M47.94,24.38c-0.74-0.13-1.17-0.78-1.16-1.48l0.04-1.77c0.02-0.86,0.6-1.36,1.43-1.32
				c2.25,0.1,3.39-0.41,3.6-1.66l0.01-0.05c0.2-1.14-0.55-1.95-2.03-2.2c-1.09-0.19-2.09-0.02-3.12,0.51
				c-0.34,0.18-0.78,0.29-1.21,0.21c-0.96-0.16-1.64-1.11-1.47-2.08c0.08-0.48,0.37-0.95,0.89-1.26c1.54-0.89,3.36-1.31,5.59-0.93
				c3.65,0.62,5.82,2.93,5.24,6.3l-0.01,0.05c-0.55,3.22-3.01,4.16-5.87,4.25l-0.15,0.44c-0.21,0.64-0.85,1.13-1.58,1.01
				L47.94,24.38z M47.65,26.05c1.27,0.22,2.05,1.32,1.84,2.53l-0.01,0.05c-0.21,1.22-1.31,1.99-2.58,1.78s-2.05-1.31-1.84-2.53
				l0.01-0.05C45.28,26.62,46.38,25.84,47.65,26.05z"/>
		</g>
	</g>
</g>
<g id="_x31_7" class="st0">
	<g class="st1">
		<path class="st19" d="M30.52,44.37l-9.41,9.57l0.04-5.14c0-1.11-0.88-2-1.97-2s-1.97,0.9-1.97,2v10.01c0,0.59,0.24,1.07,0.62,1.4
			c0.36,0.37,0.85,0.6,1.4,0.6h9.79c1.09,0,1.97-0.9,1.97-2s-0.88-2-1.97-2h-5.18l9.45-9.61L30.52,44.37z"/>
		<path class="st19" d="M29.03-2.14c1.09,0,1.97-0.9,1.97-2s-0.88-2-1.97-2h-9.79c-0.55,0-1.05,0.23-1.4,0.6
			c-0.38,0.33-0.62,0.81-0.62,1.4V5.87c0,1.11,0.88,2,1.97,2s1.97-0.9,1.97-2l-0.04-5.14l9.41,9.57l2.79-2.83l-9.45-9.61
			C23.87-2.14,29.03-2.14,29.03-2.14z"/>
		<path class="st19" d="M80.82,46.8c-1.09,0-1.97,0.9-1.97,2l0.04,5.14l-9.41-9.57l-2.79,2.83l9.45,9.61h-5.18
			c-1.09,0-1.97,0.9-1.97,2s0.88,2,1.97,2h9.79c0.55,0,1.05-0.23,1.4-0.6c0.38-0.33,0.62-0.81,0.62-1.4V48.8
			C82.79,47.69,81.91,46.8,80.82,46.8z"/>
		<path class="st19" d="M80.77-6.14h-9.79c-1.09,0-1.97,0.9-1.97,2c0,1.11,0.88,2,1.97,2h5.18L66.7,7.47l2.79,2.83l9.41-9.57
			l-0.04,5.14c0,1.11,0.88,2,1.97,2c1.09,0,1.97-0.9,1.97-2V-4.14c0-0.59-0.24-1.07-0.62-1.4C81.81-5.91,81.32-6.14,80.77-6.14z"/>
		<path class="st2" d="M86.23,58.93c0,2.91-2.32,5.26-5.18,5.26h-62.1c-2.86,0-5.18-2.35-5.18-5.26V-4.19c0-2.9,2.32-5.26,5.18-5.26
			h62.1c2.86,0,5.18,2.36,5.18,5.26V58.93z"/>
		<path class="st19" d="M59.09,44.37H40.91c-4.2,0-7.61-3.41-7.61-7.61V17.91c0-4.2,3.41-7.61,7.61-7.61h18.18
			c4.2,0,7.61,3.41,7.61,7.61v18.85C66.7,40.96,63.29,44.37,59.09,44.37z"/>
	</g>
</g>
<g id="_x31_7_light" class="st0">
	<g class="st1">
		<path class="st36" d="M30.52,44.37l-9.41,9.57l0.04-5.14c0-1.11-0.88-2-1.97-2s-1.97,0.9-1.97,2v10.01c0,0.59,0.24,1.07,0.62,1.4
			c0.36,0.37,0.85,0.6,1.4,0.6h9.79c1.09,0,1.97-0.9,1.97-2s-0.88-2-1.97-2h-5.18l9.45-9.61L30.52,44.37z"/>
		<path class="st36" d="M29.03-2.14c1.09,0,1.97-0.9,1.97-2s-0.88-2-1.97-2h-9.79c-0.55,0-1.05,0.23-1.4,0.6
			c-0.38,0.33-0.62,0.81-0.62,1.4V5.87c0,1.11,0.88,2,1.97,2s1.97-0.9,1.97-2l-0.04-5.14l9.41,9.57l2.79-2.83l-9.45-9.61
			C23.87-2.14,29.03-2.14,29.03-2.14z"/>
		<path class="st36" d="M80.82,46.8c-1.09,0-1.97,0.9-1.97,2l0.04,5.14l-9.41-9.57l-2.79,2.83l9.45,9.61h-5.18
			c-1.09,0-1.97,0.9-1.97,2s0.88,2,1.97,2h9.79c0.55,0,1.05-0.23,1.4-0.6c0.38-0.33,0.62-0.81,0.62-1.4V48.8
			C82.79,47.69,81.91,46.8,80.82,46.8z"/>
		<path class="st36" d="M80.77-6.14h-9.79c-1.09,0-1.97,0.9-1.97,2c0,1.11,0.88,2,1.97,2h5.18L66.7,7.47l2.79,2.83l9.41-9.57
			l-0.04,5.14c0,1.11,0.88,2,1.97,2c1.09,0,1.97-0.9,1.97-2V-4.14c0-0.59-0.24-1.07-0.62-1.4C81.81-5.91,81.32-6.14,80.77-6.14z"/>
		<path class="st37" d="M86.23,58.93c0,2.91-2.32,5.26-5.18,5.26h-62.1c-2.86,0-5.18-2.35-5.18-5.26V-4.19
			c0-2.9,2.32-5.26,5.18-5.26h62.1c2.86,0,5.18,2.36,5.18,5.26V58.93z"/>
		<path class="st36" d="M59.09,44.37H40.91c-4.2,0-7.61-3.41-7.61-7.61V17.91c0-4.2,3.41-7.61,7.61-7.61h18.18
			c4.2,0,7.61,3.41,7.61,7.61v18.85C66.7,40.96,63.29,44.37,59.09,44.37z"/>
	</g>
</g>
<g>
	<g>
		<g>
			<path class="st19" d="M97.42,16.32c-0.51-1.03-1.11-1.85-1.82-2.45L83.8,3.82c-0.71-0.6-1.67-1.12-2.87-1.54
				c-1.21-0.43-2.32-0.64-3.33-0.64H53.4c-1.01,0-1.87,0.3-2.57,0.9c-0.71,0.6-1.06,1.33-1.06,2.19v43.29
				c0,0.86,0.35,1.59,1.06,2.19c0.71,0.6,1.56,0.9,2.57,0.9h41.15c1.01,0,1.87-0.3,2.57-0.9s1.06-1.33,1.06-2.19V19.15
				C98.18,18.3,97.93,17.35,97.42,16.32z M78.81,6.01c0.73,0.21,1.24,0.45,1.55,0.71L92.2,16.8c0.3,0.26,0.58,0.7,0.83,1.32H78.81
				V6.01z M93.34,46.99H54.6V5.75h19.37v13.4c0,0.86,0.35,1.59,1.06,2.19c0.71,0.6,1.56,0.9,2.57,0.9h15.74
				C93.34,22.24,93.34,46.99,93.34,46.99z"/>
		</g>
		<g>
			<path class="st19" d="M88.45,28.86H60.57c-0.7,0-1.26-0.57-1.26-1.26v-0.37c0-0.7,0.57-1.26,1.26-1.26h27.87
				c0.7,0,1.26,0.57,1.26,1.26v0.37C89.71,28.29,89.15,28.86,88.45,28.86z"/>
			<path class="st19" d="M88.45,35.89H60.57c-0.7,0-1.26-0.57-1.26-1.26v-0.37c0-0.7,0.57-1.26,1.26-1.26h27.87
				c0.7,0,1.26,0.57,1.26,1.26v0.37C89.71,35.32,89.15,35.89,88.45,35.89z"/>
			<path class="st19" d="M88.45,43.25H60.57c-0.7,0-1.26-0.57-1.26-1.26v-0.37c0-0.7,0.57-1.26,1.26-1.26h27.87
				c0.7,0,1.26,0.57,1.26,1.26v0.37C89.71,42.68,89.15,43.25,88.45,43.25z"/>
		</g>
	</g>
	<g>
		<g>
			<path class="st19" d="M1.82,19.15v28.86c0,0.86,0.35,1.59,1.06,2.19c0.71,0.6,1.56,0.9,2.57,0.9H46.6c1.01,0,1.87-0.3,2.57-0.9
				c0.71-0.6,1.06-1.33,1.06-2.19V4.73c0-0.86-0.35-1.59-1.06-2.19c-0.71-0.6-1.56-0.9-2.57-0.9H22.39c-1,0-2.11,0.21-3.33,0.64
				C17.86,2.7,16.9,3.22,16.2,3.82L4.4,13.87c-0.71,0.6-1.31,1.42-1.82,2.45S1.82,18.3,1.82,19.15z M21.19,18.12H6.97
				c0.25-0.62,0.53-1.06,0.83-1.32L19.64,6.72c0.3-0.25,0.82-0.49,1.55-0.71V18.12z M6.66,22.24H22.4c1.01,0,1.87-0.3,2.57-0.9
				c0.71-0.6,1.06-1.34,1.06-2.19V5.75H45.4v41.23H6.66C6.66,46.99,6.66,22.24,6.66,22.24z"/>
		</g>
		<g>
			<path class="st19" d="M11.55,28.86h27.87c0.7,0,1.26-0.57,1.26-1.26v-0.37c0-0.7-0.57-1.26-1.26-1.26H11.55
				c-0.7,0-1.26,0.57-1.26,1.26v0.37C10.29,28.29,10.85,28.86,11.55,28.86z"/>
			<path class="st19" d="M11.55,35.89h27.87c0.7,0,1.26-0.57,1.26-1.26v-0.37c0-0.7-0.57-1.26-1.26-1.26H11.55
				c-0.7,0-1.26,0.57-1.26,1.26v0.37C10.29,35.32,10.85,35.89,11.55,35.89z"/>
			<path class="st19" d="M11.55,43.25h27.87c0.7,0,1.26-0.57,1.26-1.26v-0.37c0-0.7-0.57-1.26-1.26-1.26H11.55
				c-0.7,0-1.26,0.57-1.26,1.26v0.37C10.29,42.68,10.85,43.25,11.55,43.25z"/>
		</g>
	</g>
</g>
</svg>
