<?xml version="1.0" encoding="utf-8"?>
<!-- Generator: Adobe Illustrator 23.0.1, SVG Export Plug-In . SVG Version: 6.00 Build 0)  -->
<svg version="1.1" xmlns="http://www.w3.org/2000/svg" xmlns:xlink="http://www.w3.org/1999/xlink" x="0px" y="0px"
	 viewBox="0 0 150 150" style="enable-background:new 0 0 150 150;" xml:space="preserve">
<style type="text/css">
	.st0{display:none;}
	.st1{display:inline;}
	.st2{fill:none;stroke:#414042;stroke-width:3;stroke-miterlimit:10;}
	.st3{display:inline;fill:none;stroke:#414042;stroke-width:3;stroke-miterlimit:10;}
	.st4{display:inline;fill:#FFFFFF;}
	.st5{display:inline;fill:#383838;}
	.st6{display:inline;fill:none;stroke:#C2C4C6;stroke-width:3;stroke-miterlimit:10;}
	.st7{fill:#AEAAAA;}
	.st8{display:inline;fill:#414042;}
	.st9{display:inline;fill:#D1D3D4;}
	.st10{display:inline;fill:none;stroke:#D1D3D4;stroke-width:3;stroke-miterlimit:10;}
	.st11{display:inline;fill:none;stroke:#414042;stroke-width:2;stroke-miterlimit:10;}
	.st12{display:inline;fill:#D2D2D4;stroke:#D1D3D4;stroke-miterlimit:10;}
	.st13{display:inline;fill:none;stroke:#CDCDCD;stroke-width:3;stroke-miterlimit:10;}
	.st14{display:inline;fill:#CDCDCD;}
	.st15{display:inline;fill:#F4F4F4;}
	.st16{display:inline;fill:none;stroke:#F4F4F4;stroke-width:3;stroke-miterlimit:10;}
	.st17{display:inline;fill:none;stroke:#CDCDCD;stroke-width:2;stroke-miterlimit:10;}
	.st18{fill:#414042;}
	.st19{fill:#383838;}
	.st20{fill:#C3C4C5;}
	.st21{fill:none;stroke:#414042;stroke-width:5;stroke-miterlimit:10;}
	.st22{fill:none;stroke:#C2C4C6;stroke-width:3;stroke-miterlimit:10;}
	.st23{fill:#BCBEC0;}
	.st24{display:inline;fill:#414042;stroke:#414042;stroke-width:3;stroke-miterlimit:10;}
	.st25{fill:#C4C6C8;stroke:#C4C6C8;stroke-miterlimit:10;}
	.st26{display:inline;fill:none;stroke:#C4C6C8;stroke-width:4;stroke-miterlimit:10;}
	.st27{display:inline;fill:#C4C6C8;stroke:#C4C6C8;stroke-width:3;stroke-miterlimit:10;}
	.st28{fill:none;stroke:#C4C6C8;stroke-width:3;stroke-miterlimit:10;}
	.st29{display:inline;fill:none;stroke:#C4C6C8;stroke-width:3;stroke-miterlimit:10;}
	.st30{fill:#414042;stroke:#414042;stroke-width:3;stroke-miterlimit:10;}
	.st31{display:inline;fill:#C4C6C8;stroke:#C4C6C8;stroke-miterlimit:10;}
	.st32{display:inline;fill:none;stroke:#414042;stroke-width:4;stroke-miterlimit:10;}
	.st33{fill:none;stroke:#C4C6C8;stroke-width:4;stroke-miterlimit:10;}
	.st34{display:inline;fill:#751D28;}
	.st35{display:inline;fill:#973242;}
	.st36{display:inline;fill:#40403F;}
	.st37{display:inline;opacity:0.8;}
	.st38{display:inline;fill:#C2C2C1;}
	.st39{display:inline;fill:#FFFFFF;stroke:#414042;stroke-width:2;stroke-miterlimit:10;}
	.st40{fill:#C4C6C8;}
	.st41{fill:#C4C5C7;}
	.st42{fill-rule:evenodd;clip-rule:evenodd;fill:#414042;}
	.st43{fill-rule:evenodd;clip-rule:evenodd;fill:#C4C6C8;stroke:#C4C6C8;stroke-miterlimit:10;}
	.st44{fill:#B1B3B6;}
	.st45{fill:none;stroke:#B1B3B6;stroke-width:3;stroke-miterlimit:10;}
</style>
<g id="Layer_6">
	<g id="_x34_" class="st0">
	</g>
	<g id="_x32_" class="st0">
	</g>
	<g id="_x32__light" class="st0">
	</g>
</g>
<g id="Layer_14">
</g>
<g id="Reference" class="st0">
</g>
<g id="Printer" class="st0">
</g>
<g id="Printer_x28_Light_x29_" class="st0">
</g>
<g id="_x32__2_" class="st0">
</g>
<g id="_x32__light_2_" class="st0">
</g>
<g id="_x33_" class="st0">
</g>
<g id="_x32__light_1_" class="st0">
</g>
<g id="_x34__1_" class="st0">
</g>
<g id="_x34__Light" class="st0">
</g>
<g id="_x35_" class="st0">
</g>
<g id="_x35__copy" class="st0">
</g>
<g id="_x36_" class="st0">
</g>
<g id="_x36__Light" class="st0">
</g>
<g id="_x39_" class="st0">
</g>
<g id="_x39__Light" class="st0">
</g>
<g id="_x38_" class="st0">
</g>
<g id="_x38__light" class="st0">
</g>
<g id="_x37_" class="st0">
</g>
<g id="_x37__light" class="st0">
</g>
<g id="_x31_1">
	<path class="st2" d="M75.91,32.98l7.92-9.58c0.5-0.61,0.5-1.6,0-2.21c-0.5-0.61-1.32-0.61-1.82,0l-5.59,6.77v-10.2
		c0-0.8-0.64-1.44-1.44-1.44s-1.44,0.64-1.44,1.44V27.9L68,21.2c-0.5-0.61-1.32-0.61-1.82,0c-0.5,0.61-0.5,1.6,0,2.21l7.92,9.58
		c0.25,0.3,0.58,0.46,0.91,0.46C75.33,33.44,75.66,33.29,75.91,32.98z"/>
	<path class="st2" d="M121.66,75.91l9.58,7.92c0.61,0.5,1.6,0.5,2.21,0c0.61-0.5,0.61-1.32,0-1.82l-6.77-5.59h10.2
		c0.8,0,1.44-0.64,1.44-1.44s-0.64-1.44-1.44-1.44h-10.13l6.7-5.54c0.61-0.5,0.61-1.32,0-1.82c-0.61-0.5-1.6-0.5-2.21,0l-9.58,7.92
		c-0.3,0.25-0.46,0.58-0.46,0.91C121.21,75.33,121.36,75.66,121.66,75.91z"/>
	<path class="st2" d="M27.79,74.09l-9.58-7.92c-0.61-0.5-1.6-0.5-2.21,0c-0.61,0.5-0.61,1.32,0,1.82l6.77,5.59h-10.2
		c-0.8,0-1.44,0.64-1.44,1.44s0.64,1.44,1.44,1.44H22.7L16.01,82c-0.61,0.5-0.61,1.32,0,1.82c0.61,0.5,1.6,0.5,2.21,0l9.58-7.92
		c0.3-0.25,0.46-0.58,0.46-0.91C28.24,74.67,28.09,74.34,27.79,74.09z"/>
	<path class="st2" d="M74.09,120.72l-7.92,9.58c-0.5,0.61-0.5,1.6,0,2.21c0.5,0.61,1.32,0.61,1.82,0l5.59-6.77v10.2
		c0,0.8,0.64,1.44,1.44,1.44s1.44-0.64,1.44-1.44V125.8l5.54,6.7c0.5,0.61,1.32,0.61,1.82,0c0.5-0.61,0.5-1.6,0-2.21l-7.92-9.58
		c-0.25-0.3-0.58-0.46-0.91-0.46C74.67,120.26,74.34,120.41,74.09,120.72z"/>
	<g>
		<g>
			<path class="st30" d="M111.17,61.35c-0.78-1.59-1.71-2.85-2.8-3.78l-18.2-15.5c-1.09-0.93-2.57-1.72-4.43-2.38
				c-1.87-0.66-3.58-0.99-5.13-0.99H43.27c-1.56,0-2.88,0.46-3.97,1.39c-1.09,0.93-1.63,2.05-1.63,3.38v66.77
				c0,1.33,0.54,2.45,1.63,3.38c1.09,0.93,2.41,1.39,3.97,1.39h63.47c1.56,0,2.88-0.46,3.97-1.39c1.09-0.93,1.63-2.05,1.63-3.38
				V65.72C112.33,64.4,111.95,62.94,111.17,61.35z M82.47,45.45c1.13,0.33,1.92,0.7,2.39,1.09l18.26,15.55
				c0.47,0.4,0.89,1.08,1.28,2.04H82.47V45.45z M104.87,108.65H45.13V45.05H75v20.67c0,1.32,0.54,2.45,1.63,3.38
				c1.09,0.93,2.41,1.39,3.97,1.39h24.27V108.65z"/>
		</g>
		<line class="st30" x1="57.42" y1="78.5" x2="94.25" y2="78.5"/>
		<line class="st30" x1="57.42" y1="88.12" x2="94.25" y2="88.12"/>
		<line class="st30" x1="57.42" y1="97.75" x2="94.25" y2="97.75"/>
	</g>
</g>
<g id="_x31_1_light" class="st0">
	<path class="st31" d="M75.91,32.98l7.92-9.58c0.5-0.61,0.5-1.6,0-2.21c-0.5-0.61-1.32-0.61-1.82,0l-5.59,6.77v-10.2
		c0-0.8-0.64-1.44-1.44-1.44s-1.44,0.64-1.44,1.44V27.9L68,21.2c-0.5-0.61-1.32-0.61-1.82,0c-0.5,0.61-0.5,1.6,0,2.21l7.92,9.58
		c0.25,0.3,0.58,0.46,0.91,0.46C75.33,33.44,75.66,33.29,75.91,32.98z"/>
	<path class="st31" d="M121.66,75.91l9.58,7.92c0.61,0.5,1.6,0.5,2.21,0c0.61-0.5,0.61-1.32,0-1.82l-6.77-5.59h10.2
		c0.8,0,1.44-0.64,1.44-1.44s-0.64-1.44-1.44-1.44h-10.13l6.7-5.54c0.61-0.5,0.61-1.32,0-1.82c-0.61-0.5-1.6-0.5-2.21,0l-9.58,7.92
		c-0.3,0.25-0.46,0.58-0.46,0.91C121.21,75.33,121.36,75.66,121.66,75.91z"/>
	<path class="st31" d="M27.79,74.09l-9.58-7.92c-0.61-0.5-1.6-0.5-2.21,0c-0.61,0.5-0.61,1.32,0,1.82l6.77,5.59h-10.2
		c-0.8,0-1.44,0.64-1.44,1.44s0.64,1.44,1.44,1.44H22.7L16.01,82c-0.61,0.5-0.61,1.32,0,1.82c0.61,0.5,1.6,0.5,2.21,0l9.58-7.92
		c0.3-0.25,0.46-0.58,0.46-0.91C28.24,74.67,28.09,74.34,27.79,74.09z"/>
	<path class="st31" d="M74.09,120.72l-7.92,9.58c-0.5,0.61-0.5,1.6,0,2.21c0.5,0.61,1.32,0.61,1.82,0l5.59-6.77v10.2
		c0,0.8,0.64,1.44,1.44,1.44s1.44-0.64,1.44-1.44V125.8l5.54,6.7c0.5,0.61,1.32,0.61,1.82,0c0.5-0.61,0.5-1.6,0-2.21l-7.92-9.58
		c-0.25-0.3-0.58-0.46-0.91-0.46C74.67,120.26,74.34,120.41,74.09,120.72z"/>
	<g class="st1">
		<path class="st25" d="M111.17,61.35c-0.78-1.59-1.71-2.85-2.8-3.78l-18.2-15.5c-1.09-0.93-2.57-1.72-4.43-2.38
			c-1.87-0.66-3.58-0.99-5.13-0.99H43.27c-1.56,0-2.88,0.46-3.97,1.39c-1.09,0.93-1.63,2.05-1.63,3.38v66.77
			c0,1.33,0.54,2.45,1.63,3.38c1.09,0.93,2.41,1.39,3.97,1.39h63.47c1.56,0,2.88-0.46,3.97-1.39c1.09-0.93,1.63-2.05,1.63-3.38
			V65.72C112.33,64.4,111.95,62.94,111.17,61.35z M82.47,45.45c1.13,0.33,1.92,0.7,2.39,1.09l18.26,15.55
			c0.47,0.4,0.89,1.08,1.28,2.04H82.47V45.45z M104.87,108.65H45.13V45.05H75v20.67c0,1.32,0.54,2.45,1.63,3.38
			c1.09,0.93,2.41,1.39,3.97,1.39h24.27V108.65z"/>
	</g>
	<line class="st27" x1="57.42" y1="78.5" x2="94.25" y2="78.5"/>
	<line class="st27" x1="57.42" y1="88.12" x2="94.25" y2="88.12"/>
	<line class="st27" x1="57.42" y1="97.75" x2="94.25" y2="97.75"/>
</g>
<g id="_x31_1_1_" class="st0">
	<path class="st3" d="M121.66,75.91l9.58,7.92c0.61,0.5,1.6,0.5,2.21,0c0.61-0.5,0.61-1.32,0-1.82l-6.77-5.59h10.2
		c0.8,0,1.44-0.64,1.44-1.44s-0.64-1.44-1.44-1.44h-10.13l6.7-5.54c0.61-0.5,0.61-1.32,0-1.82c-0.61-0.5-1.6-0.5-2.21,0l-9.58,7.92
		c-0.3,0.25-0.46,0.58-0.46,0.91C121.21,75.33,121.36,75.66,121.66,75.91z"/>
	<path class="st3" d="M27.79,74.09l-9.58-7.92c-0.61-0.5-1.6-0.5-2.21,0c-0.61,0.5-0.61,1.32,0,1.82l6.77,5.59h-10.2
		c-0.8,0-1.44,0.64-1.44,1.44s0.64,1.44,1.44,1.44H22.7L16.01,82c-0.61,0.5-0.61,1.32,0,1.82c0.61,0.5,1.6,0.5,2.21,0l9.58-7.92
		c0.3-0.25,0.46-0.58,0.46-0.91C28.24,74.67,28.09,74.34,27.79,74.09z"/>
	<g class="st1">
		<g>
			<path class="st30" d="M111.17,61.35c-0.78-1.59-1.71-2.85-2.8-3.78l-18.2-15.5c-1.09-0.93-2.57-1.72-4.43-2.38
				c-1.87-0.66-3.58-0.99-5.13-0.99H43.27c-1.56,0-2.88,0.46-3.97,1.39c-1.09,0.93-1.63,2.05-1.63,3.38v66.77
				c0,1.33,0.54,2.45,1.63,3.38c1.09,0.93,2.41,1.39,3.97,1.39h63.47c1.56,0,2.88-0.46,3.97-1.39c1.09-0.93,1.63-2.05,1.63-3.38
				V65.72C112.33,64.4,111.95,62.94,111.17,61.35z M82.47,45.45c1.13,0.33,1.92,0.7,2.39,1.09l18.26,15.55
				c0.47,0.4,0.89,1.08,1.28,2.04H82.47V45.45z M104.87,108.65H45.13V45.05H75v20.67c0,1.32,0.54,2.45,1.63,3.38
				c1.09,0.93,2.41,1.39,3.97,1.39h24.27V108.65z"/>
		</g>
		<line class="st30" x1="57.42" y1="78.5" x2="94.25" y2="78.5"/>
		<line class="st30" x1="57.42" y1="88.12" x2="94.25" y2="88.12"/>
		<line class="st30" x1="57.42" y1="97.75" x2="94.25" y2="97.75"/>
	</g>
</g>
<g id="_x31_1_light_1_" class="st0">
	<path class="st3" d="M121.66,75.91l9.58,7.92c0.61,0.5,1.6,0.5,2.21,0c0.61-0.5,0.61-1.32,0-1.82l-6.77-5.59h10.2
		c0.8,0,1.44-0.64,1.44-1.44s-0.64-1.44-1.44-1.44h-10.13l6.7-5.54c0.61-0.5,0.61-1.32,0-1.82c-0.61-0.5-1.6-0.5-2.21,0l-9.58,7.92
		c-0.3,0.25-0.46,0.58-0.46,0.91C121.21,75.33,121.36,75.66,121.66,75.91z"/>
	<path class="st3" d="M27.79,74.09l-9.58-7.92c-0.61-0.5-1.6-0.5-2.21,0c-0.61,0.5-0.61,1.32,0,1.82l6.77,5.59h-10.2
		c-0.8,0-1.44,0.64-1.44,1.44s0.64,1.44,1.44,1.44H22.7L16.01,82c-0.61,0.5-0.61,1.32,0,1.82c0.61,0.5,1.6,0.5,2.21,0l9.58-7.92
		c0.3-0.25,0.46-0.58,0.46-0.91C28.24,74.67,28.09,74.34,27.79,74.09z"/>
	<g class="st1">
		<g>
			<path class="st30" d="M111.17,61.35c-0.78-1.59-1.71-2.85-2.8-3.78l-18.2-15.5c-1.09-0.93-2.57-1.72-4.43-2.38
				c-1.87-0.66-3.58-0.99-5.13-0.99H43.27c-1.56,0-2.88,0.46-3.97,1.39c-1.09,0.93-1.63,2.05-1.63,3.38v66.77
				c0,1.33,0.54,2.45,1.63,3.38c1.09,0.93,2.41,1.39,3.97,1.39h63.47c1.56,0,2.88-0.46,3.97-1.39c1.09-0.93,1.63-2.05,1.63-3.38
				V65.72C112.33,64.4,111.95,62.94,111.17,61.35z M82.47,45.45c1.13,0.33,1.92,0.7,2.39,1.09l18.26,15.55
				c0.47,0.4,0.89,1.08,1.28,2.04H82.47V45.45z M104.87,108.65H45.13V45.05H75v20.67c0,1.32,0.54,2.45,1.63,3.38
				c1.09,0.93,2.41,1.39,3.97,1.39h24.27V108.65z"/>
		</g>
		<line class="st30" x1="57.42" y1="78.5" x2="94.25" y2="78.5"/>
		<line class="st30" x1="57.42" y1="88.12" x2="94.25" y2="88.12"/>
		<line class="st30" x1="57.42" y1="97.75" x2="94.25" y2="97.75"/>
	</g>
</g>
<g id="_x31_2_1_" class="st0">
</g>
<g id="_x31_2_Light" class="st0">
</g>
<g id="_x31_3" class="st0">
</g>
<g id="_x31_3_light" class="st0">
</g>
<g id="_x31_4" class="st0">
	<path class="st34" d="M112.57,113.05H37.43c-8.33,0-15.07-6.75-15.07-15.07V56.5c0-8.33,6.75-15.07,15.07-15.07h75.14
		c8.33,0,15.07,6.75,15.07,15.07v41.47C127.65,106.3,120.9,113.05,112.57,113.05z"/>
	<path class="st35" d="M112.88,70.95H37.12c-8.15,0-14.76-6.61-14.76-14.76v0c0-8.15,6.61-14.76,14.76-14.76h75.76
		c8.15,0,14.76,6.61,14.76,14.76v0C127.65,64.34,121.04,70.95,112.88,70.95z"/>
	<path class="st36" d="M56.26,102.3h37.48c1.71,0,2.63-1.88,1.52-3.09L76.52,78.55c-0.8-0.88-2.25-0.88-3.05,0L54.74,99.2
		C53.63,100.42,54.55,102.3,56.26,102.3z"/>
</g>
<g id="_x31_8_1_" class="st0">
	<circle class="st37" cx="75.58" cy="74.73" r="66.03"/>
	<circle class="st38" cx="74.42" cy="73.73" r="66.03"/>
	<path class="st39" d="M113.27,70.69L68.03,33.3c-2.88-2.38-7.54-2.38-10.42,0c-2.88,2.38-2.88,6.23,0,8.61l31.96,26.42H41.37
		c-3.76,0-6.8,3.05-6.8,6.8s3.05,6.8,6.8,6.8h47.88l-31.64,26.15c-2.88,2.38-2.88,6.24,0,8.61c2.88,2.38,7.54,2.38,10.42,0
		l45.24-37.4c1.44-1.19,2.16-2.75,2.16-4.31C115.43,73.44,114.71,71.88,113.27,70.69z"/>
</g>
<g id="_x31_9" class="st0">
	<circle class="st37" cx="75.58" cy="74.73" r="66.03"/>
	<circle class="st38" cx="74.42" cy="73.73" r="66.03"/>
	<path class="st39" d="M36.73,70.69l45.24-37.4c2.88-2.38,7.54-2.38,10.42,0c2.88,2.38,2.88,6.23,0,8.61L60.42,68.33h48.21
		c3.76,0,6.8,3.05,6.8,6.8s-3.05,6.8-6.8,6.8H60.75l31.64,26.15c2.88,2.38,2.88,6.24,0,8.61c-2.88,2.38-7.54,2.38-10.42,0
		l-45.24-37.4c-1.44-1.19-2.16-2.75-2.16-4.31C34.57,73.44,35.29,71.88,36.73,70.69z"/>
</g>
<g id="_x32_0" class="st0">
</g>
<g id="_x31_5" class="st0">
</g>
<g id="_x31_5_light" class="st0">
</g>
<g id="_x31_6" class="st0">
</g>
<g id="_x31_6_Light" class="st0">
</g>
<g id="_x31_7" class="st0">
</g>
<g id="_x31_7_light" class="st0">
</g>
</svg>
