<?xml version="1.0" encoding="utf-8"?>
<!-- Generator: Adobe Illustrator 23.0.1, SVG Export Plug-In . SVG Version: 6.00 Build 0)  -->
<svg version="1.1" xmlns="http://www.w3.org/2000/svg" xmlns:xlink="http://www.w3.org/1999/xlink" x="0px" y="0px"
	 viewBox="0 0 100 100" style="enable-background:new 0 0 100 100;" xml:space="preserve">
<style type="text/css">
	.st0{display:none;}
	.st1{display:inline;}
	.st2{fill:none;stroke:#414042;stroke-width:3;stroke-miterlimit:10;}
	.st3{display:inline;fill:none;stroke:#414042;stroke-width:3;stroke-miterlimit:10;}
	.st4{display:inline;fill:#FFFFFF;}
	.st5{display:inline;fill:#383838;}
	.st6{display:inline;fill:none;stroke:#C2C4C6;stroke-width:3;stroke-miterlimit:10;}
	.st7{fill:#AEAAAA;}
	.st8{display:inline;fill:none;stroke:#C4C6C8;stroke-width:3;stroke-miterlimit:10;}
	.st9{display:inline;fill:none;stroke:#C4C6C8;stroke-width:4;stroke-miterlimit:10;}
	.st10{fill:none;stroke:#C4C6C8;stroke-width:4;stroke-miterlimit:10;}
	.st11{display:inline;fill:#414042;}
	.st12{display:inline;fill:#D1D3D4;}
	.st13{display:inline;fill:none;stroke:#D1D3D4;stroke-width:3;stroke-miterlimit:10;}
	.st14{display:inline;fill:none;stroke:#414042;stroke-width:2;stroke-miterlimit:10;}
	.st15{display:inline;fill:#D2D2D4;stroke:#D1D3D4;stroke-miterlimit:10;}
	.st16{display:inline;fill:none;stroke:#CDCDCD;stroke-width:3;stroke-miterlimit:10;}
	.st17{display:inline;fill:#CDCDCD;}
	.st18{display:inline;fill:#F4F4F4;}
	.st19{display:inline;fill:none;stroke:#F4F4F4;stroke-width:3;stroke-miterlimit:10;}
	.st20{display:inline;fill:none;stroke:#CDCDCD;stroke-width:2;stroke-miterlimit:10;}
	.st21{fill:#414042;}
	.st22{fill:#383838;}
	.st23{fill:#C3C4C5;}
	.st24{fill:none;stroke:#414042;stroke-width:5;stroke-miterlimit:10;}
	.st25{fill:none;stroke:#C2C4C6;stroke-width:3;stroke-miterlimit:10;}
	.st26{fill:#BCBEC0;}
	.st27{display:inline;fill:#414042;stroke:#414042;stroke-width:3;stroke-miterlimit:10;}
	.st28{fill:#C4C6C8;stroke:#C4C6C8;stroke-miterlimit:10;}
	.st29{display:inline;fill:#C4C6C8;stroke:#C4C6C8;stroke-width:3;stroke-miterlimit:10;}
	.st30{fill:none;stroke:#C4C6C8;stroke-width:3;stroke-miterlimit:10;}
	.st31{fill:#414042;stroke:#414042;stroke-width:3;stroke-miterlimit:10;}
	.st32{display:inline;fill:#C4C6C8;stroke:#C4C6C8;stroke-miterlimit:10;}
	.st33{fill:#C4C6C8;stroke:#C4C6C8;stroke-width:3;stroke-miterlimit:10;}
	.st34{display:inline;fill:none;stroke:#414042;stroke-width:5;stroke-miterlimit:10;}
	.st35{display:inline;fill:none;stroke:#C4C6C8;stroke-width:5;stroke-miterlimit:10;}
	.st36{fill:none;stroke:#C4C6C8;stroke-width:5;stroke-miterlimit:10;}
	.st37{display:inline;fill:#751D28;}
	.st38{display:inline;fill:#973242;}
	.st39{display:inline;fill:#40403F;}
	.st40{display:inline;opacity:0.8;}
	.st41{display:inline;fill:#C2C2C1;}
	.st42{display:inline;fill:#FFFFFF;stroke:#414042;stroke-width:2;stroke-miterlimit:10;}
	.st43{fill:#C4C6C8;}
	.st44{fill:#C4C5C7;}
	.st45{fill-rule:evenodd;clip-rule:evenodd;fill:#414042;}
	.st46{fill-rule:evenodd;clip-rule:evenodd;fill:#C4C6C8;stroke:#C4C6C8;stroke-miterlimit:10;}
	.st47{fill:#B1B3B6;}
	.st48{fill:none;stroke:#B1B3B6;stroke-width:3;stroke-miterlimit:10;}
</style>
<g id="Layer_6">
	<g id="_x34_" class="st0">
		<g class="st1">
			<path class="st2" d="M27.97,14h50.77c4.97,0,9,4.03,9,9V79c0,4.97-4.03,9-9,9H22.75c-4.97,0-9-4.03-9-9V23"/>
			<line class="st2" x1="22.75" y1="14" x2="27.97" y2="14"/>
		</g>
		<g class="st1">
			<line class="st2" x1="23.74" y1="42.86" x2="78.26" y2="42.86"/>
			<line class="st2" x1="23.74" y1="54.48" x2="78.26" y2="54.48"/>
			<line class="st2" x1="23.74" y1="65.7" x2="78.26" y2="65.7"/>
		</g>
		<line class="st3" x1="14.75" y1="33.95" x2="36.79" y2="33.95"/>
		<line class="st3" x1="36.79" y1="14.73" x2="36.79" y2="35.45"/>
		<rect x="11.94" y="12.26" class="st4" width="23.36" height="20.14"/>
		<line class="st3" x1="36.71" y1="13.79" x2="13.75" y2="33.95"/>
	</g>
	<g id="_x32_" class="st0">
		<path class="st3" d="M21.82,15.06h55.99c4.97,0,9,4.03,9,9v55.99c0,4.97-4.03,9-9,9H21.82c-4.97,0-9-4.03-9-9V24.06"/>
		<polygon class="st5" points="49.79,45.91 41.46,54.16 5.13,15.06 13.46,6.82 		"/>
		<path class="st5" d="M50.34,46.93l2.02,6.44c0.75,2.38-1.47,4.6-3.76,3.76l-6.18-2.27"/>
	</g>
	<g id="_x32__light" class="st0">
		<path class="st6" d="M21.82,15.06h55.99c4.97,0,9,4.03,9,9v55.99c0,4.97-4.03,9-9,9H21.82c-4.97,0-9-4.03-9-9V24.06"/>
		<g class="st1">
			<polygon class="st7" points="49.79,45.91 41.46,54.16 5.13,15.06 13.46,6.82 			"/>
			<path class="st7" d="M50.34,46.93l2.02,6.44c0.75,2.38-1.47,4.6-3.76,3.76l-6.18-2.27"/>
		</g>
	</g>
	<g id="_x31_2_Light" class="st0">
		<circle class="st8" cx="50" cy="50.26" r="37.52"/>
		<line class="st9" x1="68.53" y1="49.99" x2="31.47" y2="50.01"/>
	</g>
	<g id="_x31_3" class="st0">
		<circle class="st3" cx="50" cy="50.26" r="37.52"/>
		<g class="st1">
			<line class="st2" x1="49.99" y1="31.47" x2="50.01" y2="68.53"/>
			<line class="st2" x1="68.53" y1="49.99" x2="31.47" y2="50.01"/>
		</g>
	</g>
	<g id="_x31_3_light" class="st0">
		<circle class="st8" cx="50" cy="50.26" r="37.52"/>
		<g class="st1">
			<line class="st10" x1="49.99" y1="31.47" x2="50.01" y2="68.53"/>
			<line class="st10" x1="68.53" y1="49.99" x2="31.47" y2="50.01"/>
		</g>
	</g>
</g>
<g id="Layer_14">
</g>
<g id="Reference" class="st0">
</g>
<g id="Printer" class="st0">
	<path class="st3" d="M64.81,87.44H35.19c-4.97,0-9-4.03-9-9V23.37c0-4.97,4.03-9,9-9h29.61c4.97,0,9,4.03,9,9v55.07
		C73.81,83.41,69.78,87.44,64.81,87.44z"/>
	<path class="st11" d="M78.49,63.13H21.51c-4.97,0-9-4.03-9-9V33.87c0-4.97,4.03-9,9-9h56.99c4.97,0,9,4.03,9,9v20.27
		C87.49,59.1,83.46,63.13,78.49,63.13z"/>
	<circle class="st12" cx="80.42" cy="32.28" r="3.03"/>
	<circle class="st12" cx="80.42" cy="40.34" r="3.03"/>
	<path class="st13" d="M26.19,63.09c0-4.97,4.03-9,9-9h29.61c4.97,0,9,4.03,9,9"/>
	<line class="st14" x1="50" y1="66.32" x2="66.15" y2="66.32"/>
	<line class="st14" x1="50" y1="70.3" x2="66.15" y2="70.3"/>
	<line class="st14" x1="33.85" y1="74.3" x2="66.15" y2="74.3"/>
	<line class="st14" x1="33.85" y1="78.3" x2="66.15" y2="78.3"/>
	<line class="st14" x1="33.85" y1="82.3" x2="66.15" y2="82.3"/>
	<path class="st12" d="M31.32,33.72h-11.5c-0.76,0-1.38-0.62-1.38-1.38v-0.57c0-0.76,0.62-1.38,1.38-1.38h11.5
		c0.76,0,1.38,0.62,1.38,1.38v0.57C32.7,33.11,32.08,33.72,31.32,33.72z"/>
	<path class="st12" d="M31.32,38.04h-11.5c-0.76,0-1.38-0.62-1.38-1.38v-0.57c0-0.76,0.62-1.38,1.38-1.38h11.5
		c0.76,0,1.38,0.62,1.38,1.38v0.57C32.7,37.42,32.08,38.04,31.32,38.04z"/>
	<path class="st15" d="M71.98,62.63H27.64v-5.06c0-1.1,0.9-2,2-2h40.34c1.1,0,2,0.9,2,2V62.63z"/>
</g>
<g id="Printer_x28_Light_x29_" class="st0">
	<path class="st16" d="M64.81,87.44H35.19c-4.97,0-9-4.03-9-9V23.37c0-4.97,4.03-9,9-9h29.61c4.97,0,9,4.03,9,9v55.07
		C73.81,83.41,69.78,87.44,64.81,87.44z"/>
	<path class="st17" d="M78.49,63.13H21.51c-4.97,0-9-4.03-9-9V33.87c0-4.97,4.03-9,9-9h56.99c4.97,0,9,4.03,9,9v20.27
		C87.49,59.1,83.46,63.13,78.49,63.13z"/>
	<circle class="st18" cx="80.42" cy="32.28" r="3.03"/>
	<circle class="st18" cx="80.42" cy="40.34" r="3.03"/>
	<path class="st19" d="M26.19,63.09c0-4.97,4.03-9,9-9h29.61c4.97,0,9,4.03,9,9"/>
	<line class="st20" x1="50" y1="66.32" x2="66.15" y2="66.32"/>
	<line class="st20" x1="50" y1="70.3" x2="66.15" y2="70.3"/>
	<line class="st20" x1="33.85" y1="74.3" x2="66.15" y2="74.3"/>
	<line class="st20" x1="33.85" y1="78.3" x2="66.15" y2="78.3"/>
	<line class="st20" x1="33.85" y1="82.3" x2="66.15" y2="82.3"/>
	<path class="st18" d="M31.32,33.72h-11.5c-0.76,0-1.38-0.62-1.38-1.38v-0.57c0-0.76,0.62-1.38,1.38-1.38h11.5
		c0.76,0,1.38,0.62,1.38,1.38v0.57C32.7,33.11,32.08,33.72,31.32,33.72z"/>
	<path class="st18" d="M31.32,38.04h-11.5c-0.76,0-1.38-0.62-1.38-1.38v-0.57c0-0.76,0.62-1.38,1.38-1.38h11.5
		c0.76,0,1.38,0.62,1.38,1.38v0.57C32.7,37.42,32.08,38.04,31.32,38.04z"/>
</g>
<g id="_x32__2_" class="st0">
	<g class="st1">
		<path class="st21" d="M86.39,35.39c-0.78-1.59-1.71-2.85-2.8-3.78l-18.2-15.5c-1.09-0.93-2.57-1.72-4.43-2.38
			c-1.87-0.66-3.58-0.99-5.13-0.99H31.23v6.36h18.95l0.04,20.67c0,1.32,0.54,2.45,1.63,3.38c1.09,0.93,2.41,1.39,3.97,1.39h24.27
			v38.16H20.35l-0.02-34.33h-7.44v35.92c0,1.33,0.54,2.45,1.63,3.38c1.09,0.93,2.41,1.39,3.97,1.39h63.47
			c1.56,0,2.88-0.46,3.97-1.39c1.09-0.93,1.63-2.05,1.63-3.38V39.76C87.56,38.44,87.17,36.98,86.39,35.39z M57.69,38.17V19.49
			c1.13,0.33,1.92,0.7,2.39,1.09l18.26,15.55c0.47,0.4,0.89,1.08,1.28,2.04H57.69z"/>
		
			<rect x="16.59" y="8.83" transform="matrix(0.7626 -0.6469 0.6469 0.7626 -13.7637 23.5958)" class="st22" width="17.33" height="43.43"/>
		<path class="st22" d="M43.04,58.98l-6.83-8.06l7.47-6.34l6.83,8.06c1.04,1.22,0.89,3.05-0.34,4.09l-3.05,2.59
			C45.91,60.35,44.08,60.2,43.04,58.98z"/>
		<path class="st21" d="M86.39,35.39c-0.78-1.59-1.71-2.85-2.8-3.78l-18.2-15.5c-1.09-0.93-2.57-1.72-4.43-2.38
			c-1.87-0.66-3.58-0.99-5.13-0.99H31.23v6.36h18.95l0.04,20.67c0,1.32,0.54,2.45,1.63,3.38c1.09,0.93,2.41,1.39,3.97,1.39h24.27
			v38.16H20.35l-0.02-34.33h-7.44v35.92c0,1.33,0.54,2.45,1.63,3.38c1.09,0.93,2.41,1.39,3.97,1.39h63.47
			c1.56,0,2.88-0.46,3.97-1.39c1.09-0.93,1.63-2.05,1.63-3.38V39.76C87.56,38.44,87.17,36.98,86.39,35.39z M57.69,38.17V19.49
			c1.13,0.33,1.92,0.7,2.39,1.09l18.26,15.55c0.47,0.4,0.89,1.08,1.28,2.04H57.69z"/>
	</g>
</g>
<g id="_x32__light_2_" class="st0">
	<g class="st1">
		<path class="st23" d="M86.39,35.39c-0.78-1.59-1.71-2.85-2.8-3.78l-18.2-15.5c-1.09-0.93-2.57-1.72-4.43-2.38
			c-1.87-0.66-3.58-0.99-5.13-0.99H31.23v6.36h18.95l0.04,20.67c0,1.32,0.54,2.45,1.63,3.38c1.09,0.93,2.41,1.39,3.97,1.39h24.27
			v38.16H20.35l-0.02-34.33h-7.44v35.92c0,1.33,0.54,2.45,1.63,3.38c1.09,0.93,2.41,1.39,3.97,1.39h63.47
			c1.56,0,2.88-0.46,3.97-1.39c1.09-0.93,1.63-2.05,1.63-3.38V39.76C87.56,38.44,87.17,36.98,86.39,35.39z M57.69,38.17V19.49
			c1.13,0.33,1.92,0.7,2.39,1.09l18.26,15.55c0.47,0.4,0.89,1.08,1.28,2.04H57.69z"/>
		
			<rect x="16.59" y="8.83" transform="matrix(0.7626 -0.6469 0.6469 0.7626 -13.7637 23.5958)" class="st23" width="17.33" height="43.43"/>
		<path class="st23" d="M43.04,58.98l-6.83-8.06l7.47-6.34l6.83,8.06c1.04,1.22,0.89,3.05-0.34,4.09l-3.05,2.59
			C45.91,60.35,44.08,60.2,43.04,58.98z"/>
		<path class="st23" d="M86.39,35.39c-0.78-1.59-1.71-2.85-2.8-3.78l-18.2-15.5c-1.09-0.93-2.57-1.72-4.43-2.38
			c-1.87-0.66-3.58-0.99-5.13-0.99H31.23v6.36h18.95l0.04,20.67c0,1.32,0.54,2.45,1.63,3.38c1.09,0.93,2.41,1.39,3.97,1.39h24.27
			v38.16H20.35l-0.02-34.33h-7.44v35.92c0,1.33,0.54,2.45,1.63,3.38c1.09,0.93,2.41,1.39,3.97,1.39h63.47
			c1.56,0,2.88-0.46,3.97-1.39c1.09-0.93,1.63-2.05,1.63-3.38V39.76C87.56,38.44,87.17,36.98,86.39,35.39z M57.69,38.17V19.49
			c1.13,0.33,1.92,0.7,2.39,1.09l18.26,15.55c0.47,0.4,0.89,1.08,1.28,2.04H57.69z"/>
	</g>
</g>
<g id="_x33_" class="st0">
	<g class="st1">
		<path class="st24" d="M21.82,15.06h55.99c4.97,0,9,4.03,9,9v55.99c0,4.97-4.03,9-9,9H21.82c-4.97,0-9-4.03-9-9V24.06"/>
		<line class="st24" x1="12.82" y1="24.16" x2="12.82" y2="16.45"/>
		<line class="st24" x1="11.32" y1="15.06" x2="21.82" y2="15.06"/>
	</g>
	<g class="st1">
		<path d="M21.39,39.99h8.61c5.04,0,8.3,2.6,8.3,7.01v0.06c0,4.75-3.63,7.24-8.58,7.24h-2.78v5.72h-5.55V39.99z M29.61,49.94
			c1.95,0,3.18-1.06,3.18-2.63v-0.06c0-1.72-1.23-2.6-3.2-2.6h-2.63v5.29H29.61z"/>
		<path d="M40.66,39.99h7.75c7.12,0,11.27,4.12,11.27,9.9v0.06c0,5.78-4.21,10.07-11.39,10.07h-7.64V39.99z M46.21,44.88v10.21h2.26
			c3.35,0,5.55-1.83,5.55-5.06v-0.06c0-3.2-2.2-5.09-5.55-5.09H46.21z"/>
		<path d="M62.58,39.99h16.02v4.86H68.13v3.4h9.47v4.61h-9.47v7.15h-5.55V39.99z"/>
	</g>
</g>
<g id="_x32__light_1_" class="st0">
	<g class="st1">
		<path class="st25" d="M21.82,15.06h55.99c4.97,0,9,4.03,9,9v55.99c0,4.97-4.03,9-9,9H21.82c-4.97,0-9-4.03-9-9V24.06"/>
		<line class="st25" x1="12.82" y1="24.16" x2="12.82" y2="16.45"/>
		<line class="st25" x1="11.32" y1="15.06" x2="21.82" y2="15.06"/>
	</g>
	<g class="st1">
		<path class="st26" d="M21.39,39.99h8.61c5.04,0,8.3,2.6,8.3,7.01v0.06c0,4.75-3.63,7.24-8.58,7.24h-2.78v5.72h-5.55V39.99z
			 M29.61,49.94c1.95,0,3.18-1.06,3.18-2.63v-0.06c0-1.72-1.23-2.6-3.2-2.6h-2.63v5.29H29.61z"/>
		<path class="st26" d="M40.66,39.99h7.75c7.12,0,11.27,4.12,11.27,9.9v0.06c0,5.78-4.21,10.07-11.39,10.07h-7.64V39.99z
			 M46.21,44.88v10.21h2.26c3.35,0,5.55-1.83,5.55-5.06v-0.06c0-3.2-2.2-5.09-5.55-5.09H46.21z"/>
		<path class="st26" d="M62.58,39.99h16.02v4.86H68.13v3.4h9.47v4.61h-9.47v7.15h-5.55V39.99z"/>
	</g>
</g>
<g id="_x34__1_" class="st0">
	<g class="st1">
		<path class="st21" d="M86.39,35.39c-0.78-1.59-1.71-2.85-2.8-3.78l-18.2-15.5c-1.09-0.93-2.57-1.72-4.43-2.38
			c-1.87-0.66-3.58-0.99-5.13-0.99H18.49c-1.56,0-2.88,0.46-3.97,1.39c-1.09,0.93-1.63,2.05-1.63,3.38v66.77
			c0,1.33,0.54,2.45,1.63,3.38c1.09,0.93,2.41,1.39,3.97,1.39h63.47c1.56,0,2.88-0.46,3.97-1.39c1.09-0.93,1.63-2.05,1.63-3.38
			V39.76C87.56,38.44,87.17,36.98,86.39,35.39z M57.69,19.49c1.13,0.33,1.92,0.7,2.39,1.09l18.26,15.55
			c0.47,0.4,0.89,1.08,1.28,2.04H57.69V19.49z M80.09,82.69H20.35V19.09h29.87v20.67c0,1.32,0.54,2.45,1.63,3.38
			c1.09,0.93,2.41,1.39,3.97,1.39h24.27V82.69z"/>
	</g>
	<line class="st27" x1="32.64" y1="52.54" x2="69.47" y2="52.54"/>
	<line class="st27" x1="32.64" y1="62.16" x2="69.47" y2="62.16"/>
	<line class="st27" x1="32.64" y1="71.79" x2="69.47" y2="71.79"/>
</g>
<g id="_x34__Light" class="st0">
	<g class="st1">
		<path class="st28" d="M86.39,35.39c-0.78-1.59-1.71-2.85-2.8-3.78l-18.2-15.5c-1.09-0.93-2.57-1.72-4.43-2.38
			c-1.87-0.66-3.58-0.99-5.13-0.99H18.49c-1.56,0-2.88,0.46-3.97,1.39c-1.09,0.93-1.63,2.05-1.63,3.38v66.77
			c0,1.33,0.54,2.45,1.63,3.38c1.09,0.93,2.41,1.39,3.97,1.39h63.47c1.56,0,2.88-0.46,3.97-1.39c1.09-0.93,1.63-2.05,1.63-3.38
			V39.76C87.56,38.44,87.17,36.98,86.39,35.39z M57.69,19.49c1.13,0.33,1.92,0.7,2.39,1.09l18.26,15.55
			c0.47,0.4,0.89,1.08,1.28,2.04H57.69V19.49z M80.09,82.69H20.35V19.09h29.87v20.67c0,1.32,0.54,2.45,1.63,3.38
			c1.09,0.93,2.41,1.39,3.97,1.39h24.27V82.69z"/>
	</g>
	<line class="st9" x1="32.64" y1="52.54" x2="69.47" y2="52.54"/>
	<line class="st9" x1="32.64" y1="62.16" x2="69.47" y2="62.16"/>
	<line class="st9" x1="32.64" y1="71.79" x2="69.47" y2="71.79"/>
</g>
<g id="_x35_" class="st0">
</g>
<g id="_x35__copy" class="st0">
</g>
<g id="_x36_" class="st0">
	<g class="st1">
		<path class="st2" d="M85.69,80.05c2.49,2.06,2.49,5.4,0,7.46c-2.49,2.06-6.53,2.06-9.02,0L37.49,55.12
			c-1.24-1.03-1.87-2.38-1.87-3.73s0.62-2.7,1.87-3.73l39.17-32.38c2.49-2.06,6.53-2.06,9.02,0c2.49,2.06,2.49,5.4,0,7.46
			L51.03,51.4L85.69,80.05z M26.2,12.73H14.81c-0.67,0-1.22,0.45-1.22,1.01v72.71c0,0.56,0.55,1.01,1.22,1.01H26.2
			c0.68,0,1.22-0.45,1.22-1.01V13.74C27.42,13.19,26.88,12.73,26.2,12.73z"/>
	</g>
</g>
<g id="_x36__Light" class="st0">
	<g class="st1">
		<path class="st30" d="M85.69,80.05c2.49,2.06,2.49,5.4,0,7.46c-2.49,2.06-6.53,2.06-9.02,0L37.49,55.12
			c-1.24-1.03-1.87-2.38-1.87-3.73s0.62-2.7,1.87-3.73l39.17-32.38c2.49-2.06,6.53-2.06,9.02,0c2.49,2.06,2.49,5.4,0,7.46
			L51.03,51.4L85.69,80.05z M26.2,12.73H14.81c-0.67,0-1.22,0.45-1.22,1.01v72.71c0,0.56,0.55,1.01,1.22,1.01H26.2
			c0.68,0,1.22-0.45,1.22-1.01V13.74C27.42,13.19,26.88,12.73,26.2,12.73z"/>
	</g>
</g>
<g id="_x39_" class="st0">
	<g class="st1">
		<path class="st2" d="M15.46,21.74c-2.49-2.06-2.49-5.4,0-7.46c2.49-2.06,6.53-2.06,9.02,0l39.17,32.38
			c1.24,1.03,1.87,2.38,1.87,3.73c0,1.35-0.62,2.7-1.87,3.73L24.48,86.49c-2.49,2.06-6.53,2.06-9.02,0c-2.49-2.06-2.49-5.4,0-7.46
			l34.66-28.65L15.46,21.74z M74.95,89.05h11.39c0.67,0,1.22-0.45,1.22-1.01V15.33c0-0.56-0.55-1.01-1.22-1.01H74.95
			c-0.68,0-1.22,0.45-1.22,1.01v72.71C73.72,88.6,74.27,89.05,74.95,89.05z"/>
	</g>
</g>
<g id="_x39__Light" class="st0">
	<g class="st1">
		<path class="st30" d="M15.46,21.74c-2.49-2.06-2.49-5.4,0-7.46c2.49-2.06,6.53-2.06,9.02,0l39.17,32.38
			c1.24,1.03,1.87,2.38,1.87,3.73c0,1.35-0.62,2.7-1.87,3.73L24.48,86.49c-2.49,2.06-6.53,2.06-9.02,0c-2.49-2.06-2.49-5.4,0-7.46
			l34.66-28.65L15.46,21.74z M74.95,89.05h11.39c0.67,0,1.22-0.45,1.22-1.01V15.33c0-0.56-0.55-1.01-1.22-1.01H74.95
			c-0.68,0-1.22,0.45-1.22,1.01v72.71C73.72,88.6,74.27,89.05,74.95,89.05z"/>
	</g>
</g>
<g id="_x38_" class="st0">
	<path class="st3" d="M83.65,47.16L44.48,14.78c-2.49-2.06-6.53-2.06-9.02,0c-2.49,2.06-2.49,5.4,0,7.46l27.68,22.88H21.4
		c-3.25,0-5.89,2.64-5.89,5.89s2.64,5.89,5.89,5.89h41.46L35.46,79.53c-2.49,2.06-2.49,5.4,0,7.46c2.49,2.06,6.53,2.06,9.02,0
		l39.17-32.38c1.24-1.03,1.87-2.38,1.87-3.73C85.52,49.53,84.9,48.18,83.65,47.16z"/>
</g>
<g id="_x38__light" class="st0">
	<path class="st8" d="M83.65,47.16L44.48,14.78c-2.49-2.06-6.53-2.06-9.02,0c-2.49,2.06-2.49,5.4,0,7.46l27.68,22.88H21.4
		c-3.25,0-5.89,2.64-5.89,5.89s2.64,5.89,5.89,5.89h41.46L35.46,79.53c-2.49,2.06-2.49,5.4,0,7.46c2.49,2.06,6.53,2.06,9.02,0
		l39.17-32.38c1.24-1.03,1.87-2.38,1.87-3.73C85.52,49.53,84.9,48.18,83.65,47.16z"/>
</g>
<g id="_x37_" class="st0">
	<path class="st3" d="M17.37,54.61l39.17,32.38c2.49,2.06,6.53,2.06,9.02,0c2.49-2.06,2.49-5.4,0-7.46L37.89,56.65h41.74
		c3.25,0,5.89-2.64,5.89-5.89s-2.64-5.89-5.89-5.89H38.18l27.39-22.64c2.49-2.06,2.49-5.4,0-7.46c-2.49-2.06-6.53-2.06-9.02,0
		L17.37,47.15c-1.24,1.03-1.87,2.38-1.87,3.73C15.51,52.23,16.13,53.58,17.37,54.61z"/>
</g>
<g id="_x37__light" class="st0">
	<path class="st8" d="M17.37,54.61l39.17,32.38c2.49,2.06,6.53,2.06,9.02,0c2.49-2.06,2.49-5.4,0-7.46L37.89,56.65h41.74
		c3.25,0,5.89-2.64,5.89-5.89s-2.64-5.89-5.89-5.89H38.18l27.39-22.64c2.49-2.06,2.49-5.4,0-7.46c-2.49-2.06-6.53-2.06-9.02,0
		L17.37,47.15c-1.24,1.03-1.87,2.38-1.87,3.73C15.51,52.23,16.13,53.58,17.37,54.61z"/>
</g>
<g id="_x31_1" class="st0">
</g>
<g id="_x31_1_light" class="st0">
</g>
<g id="_x31_1_1_" class="st0">
</g>
<g id="_x31_1_light_1_" class="st0">
</g>
<g id="_x31_2_1_" class="st0">
	<circle class="st34" cx="50" cy="50.26" r="37.52"/>
	<path class="st34" d="M31.47,51.01c-0.55,0-1-0.45-1-1c0-0.55,0.45-1,1-1l37.06-0.03h0c0.55,0,1,0.45,1,1c0,0.55-0.45,1-1,1
		L31.47,51.01C31.47,51.01,31.47,51.01,31.47,51.01z"/>
</g>
<g id="_x31_2_light" class="st0">
	<circle class="st35" cx="50" cy="50.26" r="37.52"/>
	<path class="st35" d="M31.47,51.01c-0.55,0-1-0.45-1-1c0-0.55,0.45-1,1-1l37.06-0.03h0c0.55,0,1,0.45,1,1c0,0.55-0.45,1-1,1
		L31.47,51.01C31.47,51.01,31.47,51.01,31.47,51.01z"/>
	<line class="st35" x1="68.53" y1="49.99" x2="31.47" y2="50.01"/>
</g>
<g id="_x31_3_1_" class="st0">
	<circle class="st34" cx="50" cy="50.26" r="37.52"/>
	<g class="st1">
		<path class="st24" d="M31.47,51.01c-0.55,0-1-0.45-1-1c0-0.55,0.45-1,1-1l37.06-0.03h0c0.55,0,1,0.45,1,1c0,0.55-0.45,1-1,1
			L31.47,51.01C31.47,51.01,31.47,51.01,31.47,51.01z"/>
	</g>
	<g class="st1">
		<path class="st24" d="M48.99,31.47c0-0.55,0.45-1,1-1c0.55,0,1,0.45,1,1l0.03,37.06v0c0,0.55-0.45,1-1,1c-0.55,0-1-0.45-1-1
			L48.99,31.47C48.99,31.47,48.99,31.47,48.99,31.47z"/>
	</g>
</g>
<g id="_x31_3_light_1_" class="st0">
	<circle class="st35" cx="50" cy="50.26" r="37.52"/>
	<g class="st1">
		<path class="st36" d="M31.47,51.01c-0.55,0-1-0.45-1-1c0-0.55,0.45-1,1-1l37.06-0.03h0c0.55,0,1,0.45,1,1c0,0.55-0.45,1-1,1
			L31.47,51.01C31.47,51.01,31.47,51.01,31.47,51.01z"/>
	</g>
	<g class="st1">
		<path class="st36" d="M48.99,31.47c0-0.55,0.45-1,1-1c0.55,0,1,0.45,1,1l0.03,37.06v0c0,0.55-0.45,1-1,1c-0.55,0-1-0.45-1-1
			L48.99,31.47C48.99,31.47,48.99,31.47,48.99,31.47z"/>
	</g>
</g>
<g id="_x31_4" class="st0">
</g>
<g id="_x31_8_1_" class="st0">
</g>
<g id="_x31_9" class="st0">
</g>
<g id="_x32_0" class="st0">
</g>
<g id="_x31_5" class="st0">
	<g class="st1">
		<g>
			<path class="st21" d="M84.08,12.21H25.2c-2.05,0-3.73,1.67-3.73,3.73v6.63h-3.23c-2.23,0-4.05,1.82-4.05,4.05
				s1.82,4.05,4.05,4.05h3.23v8.16h-3.23c-2.23,0-4.05,1.82-4.05,4.05s1.82,4.05,4.05,4.05h3.23v8.16h-3.23
				c-2.23,0-4.05,1.82-4.05,4.05c0,0.63,0.51,1.14,1.14,1.14s1.14-0.51,1.14-1.14c0-0.98,0.8-1.78,1.78-1.78h8.74
				c0.98,0,1.78,0.8,1.78,1.78s-0.8,1.78-1.78,1.78h-8.2c-0.63,0-1.14,0.51-1.14,1.14s0.51,1.14,1.14,1.14h2.7v8.16h-3.23
				c-2.23,0-4.05,1.82-4.05,4.05c0,2.23,1.82,4.05,4.05,4.05h3.23v6.63c0,2.05,1.67,3.73,3.73,3.73h58.88
				c2.05,0,3.73-1.67,3.73-3.73V15.94C87.81,13.88,86.13,12.21,84.08,12.21z M18.24,28.39c-0.98,0-1.78-0.8-1.78-1.78
				c0-0.98,0.8-1.78,1.78-1.78h8.74c0.98,0,1.78,0.8,1.78,1.78c0,0.98-0.8,1.78-1.78,1.78H18.24z M18.24,44.65
				c-0.98,0-1.78-0.8-1.78-1.78s0.8-1.78,1.78-1.78h8.74c0.98,0,1.78,0.8,1.78,1.78s-0.8,1.78-1.78,1.78H18.24z M18.24,77.16
				c-0.98,0-1.78-0.8-1.78-1.78c0-0.98,0.8-1.78,1.78-1.78h8.74c0.98,0,1.78,0.8,1.78,1.78c0,0.98-0.8,1.78-1.78,1.78H18.24z
				 M75.83,86.06c0,0.8-0.65,1.45-1.45,1.45H37.17H25.2c-0.8,0-1.45-0.65-1.45-1.45v-6.63h3.23c2.23,0,4.05-1.82,4.05-4.05
				c0-2.23-1.82-4.05-4.05-4.05h-3.23v-8.16h3.23c2.23,0,4.05-1.82,4.05-4.05c0-2.23-1.82-4.05-4.05-4.05h-3.23v-8.16h3.23
				c2.23,0,4.05-1.82,4.05-4.05s-1.82-4.05-4.05-4.05h-3.23v-8.16h3.23c2.23,0,4.05-1.82,4.05-4.05s-1.82-4.05-4.05-4.05h-3.23
				v-6.63c0-0.8,0.65-1.45,1.45-1.45h27.44h21.74c0.8,0,1.45,0.65,1.45,1.45V86.06z M85.53,86.06c0,0.8-0.65,1.45-1.45,1.45h-6.28
				c0.19-0.45,0.3-0.94,0.3-1.45V83.2h5.98c0.52,0,1.01-0.11,1.45-0.3V86.06z M85.53,79.47c0,0.8-0.65,1.45-1.45,1.45H78.1V62.57
				h3.72c0.63,0,1.14-0.51,1.14-1.14c0-0.63-0.51-1.14-1.14-1.14H78.1V41.95h7.43V79.47z M85.53,39.67H78.1V21.32h5.98
				c0.8,0,1.45,0.65,1.45,1.45V39.67z M85.53,19.34c-0.45-0.19-0.94-0.3-1.45-0.3H78.1v-3.11c0-0.52-0.11-1.01-0.3-1.45h6.28
				c0.8,0,1.45,0.65,1.45,1.45V19.34z"/>
		</g>
	</g>
	<path class="st3" d="M48.79,12.84v21.8c0,0.87,0.95,1.41,1.7,0.95l1.44-0.88c0.36-0.22,0.8-0.22,1.16,0l1.44,0.88
		c0.74,0.45,1.7-0.08,1.7-0.95v-21.8"/>
	<g class="st1">
		<path class="st21" d="M32.15,39.67c0-0.51,0.4-0.91,0.91-0.91H36c0.95,0,1.7,0.26,2.17,0.74c0.38,0.38,0.57,0.84,0.57,1.41v0.02
			c0,0.94-0.5,1.46-1.09,1.79c0.96,0.37,1.56,0.93,1.56,2.04v0.02c0,1.52-1.23,2.28-3.11,2.28h-3.04c-0.51,0-0.91-0.4-0.91-0.91
			V39.67z M35.61,42.11c0.81,0,1.32-0.26,1.32-0.88v-0.02c0-0.55-0.43-0.85-1.2-0.85h-1.8v1.76H35.61z M36.1,45.46
			c0.81,0,1.29-0.28,1.29-0.9v-0.02c0-0.56-0.42-0.9-1.35-0.9h-2.11v1.83H36.1z"/>
		<path class="st21" d="M40.35,42.93v-0.02c0-2.36,1.86-4.3,4.43-4.3c2.56,0,4.4,1.91,4.4,4.27v0.02c0,2.36-1.86,4.3-4.43,4.3
			C42.19,47.21,40.35,45.29,40.35,42.93z M47.27,42.93v-0.02c0-1.42-1.04-2.61-2.52-2.61c-1.47,0-2.49,1.16-2.49,2.59v0.02
			c0,1.42,1.04,2.61,2.52,2.61C46.25,45.52,47.27,44.36,47.27,42.93z"/>
		<path class="st21" d="M50.45,42.93v-0.02c0-2.36,1.86-4.3,4.43-4.3c2.56,0,4.4,1.91,4.4,4.27v0.02c0,2.36-1.86,4.3-4.43,4.3
			C52.29,47.21,50.45,45.29,50.45,42.93z M57.37,42.93v-0.02c0-1.42-1.04-2.61-2.52-2.61c-1.47,0-2.49,1.16-2.49,2.59v0.02
			c0,1.42,1.04,2.61,2.52,2.61C56.35,45.52,57.37,44.36,57.37,42.93z"/>
		<path class="st21" d="M60.91,39.6c0-0.51,0.4-0.91,0.91-0.91c0.51,0,0.91,0.4,0.91,0.91v2.79l3.37-3.35
			c0.23-0.23,0.45-0.36,0.77-0.36c0.51,0,0.84,0.39,0.84,0.84c0,0.28-0.13,0.5-0.33,0.69l-2.34,2.18l2.55,3.21
			c0.14,0.18,0.25,0.37,0.25,0.64c0,0.51-0.39,0.89-0.93,0.89c-0.36,0-0.57-0.18-0.77-0.44l-2.37-3.11l-1.04,0.97v1.66
			c0,0.51-0.4,0.91-0.91,0.91c-0.51,0-0.91-0.4-0.91-0.91V39.6z"/>
		<path class="st21" d="M32.15,53.87c0-0.51,0.4-0.91,0.91-0.91h0.2c0.39,0,0.66,0.2,0.83,0.47l2.21,3.6l2.22-3.61
			c0.19-0.31,0.45-0.46,0.82-0.46h0.2c0.51,0,0.91,0.4,0.91,0.91v6.6c0,0.51-0.4,0.91-0.91,0.91c-0.5,0-0.9-0.42-0.9-0.91v-4.14
			l-1.6,2.47c-0.19,0.29-0.43,0.46-0.76,0.46c-0.33,0-0.57-0.18-0.76-0.46l-1.58-2.43v4.13c0,0.5-0.4,0.89-0.9,0.89
			c-0.5,0-0.89-0.39-0.89-0.89V53.87z"/>
		<path class="st21" d="M41.99,60.14l2.9-6.54c0.2-0.45,0.57-0.72,1.07-0.72h0.11c0.5,0,0.85,0.27,1.06,0.72l2.9,6.54
			c0.06,0.13,0.09,0.25,0.09,0.37c0,0.49-0.38,0.88-0.87,0.88c-0.43,0-0.71-0.25-0.88-0.63l-0.56-1.31h-3.66l-0.58,1.36
			c-0.15,0.36-0.46,0.57-0.84,0.57c-0.47,0-0.84-0.38-0.84-0.86C41.88,60.4,41.93,60.27,41.99,60.14z M47.13,57.84l-1.15-2.74
			l-1.15,2.74H47.13z"/>
		<path class="st21" d="M51.55,53.92c0-0.51,0.4-0.91,0.91-0.91h2.88c1.06,0,1.88,0.3,2.42,0.84c0.46,0.46,0.71,1.12,0.71,1.9v0.02
			c0,1.31-0.65,2.11-1.66,2.53l1.27,1.54c0.18,0.23,0.3,0.42,0.3,0.7c0,0.51-0.43,0.84-0.87,0.84c-0.42,0-0.69-0.2-0.9-0.48
			l-1.78-2.25h-1.46v1.82c0,0.51-0.4,0.91-0.91,0.91c-0.51,0-0.91-0.4-0.91-0.91V53.92z M55.23,57.04c0.89,0,1.4-0.47,1.4-1.18
			v-0.02c0-0.78-0.55-1.19-1.44-1.19h-1.82v2.39H55.23z"/>
		<path class="st21" d="M60.14,53.85c0-0.51,0.4-0.91,0.91-0.91c0.51,0,0.91,0.4,0.91,0.91v2.79l3.37-3.35
			c0.23-0.23,0.45-0.36,0.77-0.36c0.51,0,0.84,0.39,0.84,0.84c0,0.29-0.13,0.5-0.33,0.69l-2.34,2.18l2.55,3.21
			c0.14,0.18,0.25,0.37,0.25,0.64c0,0.51-0.39,0.89-0.93,0.89c-0.36,0-0.57-0.18-0.77-0.44l-2.37-3.11l-1.04,0.97v1.66
			c0,0.51-0.4,0.91-0.91,0.91c-0.51,0-0.91-0.4-0.91-0.91V53.85z"/>
	</g>
</g>
<g id="_x31_5_light" class="st0">
	<g class="st1">
		<g>
			<path class="st43" d="M84.06,12.24H25.18c-2.05,0-3.73,1.67-3.73,3.73v6.63h-3.23c-2.23,0-4.05,1.82-4.05,4.05
				s1.82,4.05,4.05,4.05h3.23v8.16h-3.23c-2.23,0-4.05,1.82-4.05,4.05s1.82,4.05,4.05,4.05h3.23v8.16h-3.23
				c-2.23,0-4.05,1.82-4.05,4.05c0,0.63,0.51,1.14,1.14,1.14c0.63,0,1.14-0.51,1.14-1.14c0-0.98,0.8-1.78,1.78-1.78h8.74
				c0.98,0,1.78,0.8,1.78,1.78s-0.8,1.78-1.78,1.78h-8.2c-0.63,0-1.14,0.51-1.14,1.14c0,0.63,0.51,1.14,1.14,1.14h2.7v8.16h-3.23
				c-2.23,0-4.05,1.82-4.05,4.05c0,2.23,1.82,4.05,4.05,4.05h3.23v6.63c0,2.05,1.67,3.73,3.73,3.73h58.88
				c2.05,0,3.73-1.67,3.73-3.73V15.96C87.79,13.91,86.11,12.24,84.06,12.24z M18.22,28.42c-0.98,0-1.78-0.8-1.78-1.78
				s0.8-1.78,1.78-1.78h8.74c0.98,0,1.78,0.8,1.78,1.78s-0.8,1.78-1.78,1.78H18.22z M18.22,44.67c-0.98,0-1.78-0.8-1.78-1.78
				s0.8-1.78,1.78-1.78h8.74c0.98,0,1.78,0.8,1.78,1.78s-0.8,1.78-1.78,1.78H18.22z M18.22,77.19c-0.98,0-1.78-0.8-1.78-1.78
				c0-0.98,0.8-1.78,1.78-1.78h8.74c0.98,0,1.78,0.8,1.78,1.78c0,0.98-0.8,1.78-1.78,1.78H18.22z M75.81,86.09
				c0,0.8-0.65,1.45-1.45,1.45H37.15H25.18c-0.8,0-1.45-0.65-1.45-1.45v-6.63h3.23c2.23,0,4.05-1.82,4.05-4.05
				c0-2.23-1.82-4.05-4.05-4.05h-3.23V63.2h3.23c2.23,0,4.05-1.82,4.05-4.05s-1.82-4.05-4.05-4.05h-3.23v-8.16h3.23
				c2.23,0,4.05-1.82,4.05-4.05c0-2.23-1.82-4.05-4.05-4.05h-3.23v-8.16h3.23c2.23,0,4.05-1.82,4.05-4.05s-1.82-4.05-4.05-4.05
				h-3.23v-6.63c0-0.8,0.65-1.45,1.45-1.45h27.44h21.74c0.8,0,1.45,0.65,1.45,1.45V86.09z M85.51,86.09c0,0.8-0.65,1.45-1.45,1.45
				h-6.28c0.19-0.45,0.3-0.94,0.3-1.45v-2.86h5.98c0.52,0,1.01-0.11,1.45-0.3V86.09z M85.51,79.5c0,0.8-0.65,1.45-1.45,1.45h-5.98
				V62.6h3.72c0.63,0,1.14-0.51,1.14-1.14c0-0.63-0.51-1.14-1.14-1.14h-3.72V41.97h7.43V79.5z M85.51,39.7h-7.43V21.35h5.98
				c0.8,0,1.45,0.65,1.45,1.45V39.7z M85.51,19.37c-0.45-0.19-0.94-0.3-1.45-0.3h-5.98v-3.11c0-0.52-0.11-1.01-0.3-1.45h6.28
				c0.8,0,1.45,0.65,1.45,1.45V19.37z"/>
		</g>
	</g>
	<g class="st1">
		<path class="st44" d="M32.15,39.67c0-0.51,0.4-0.91,0.91-0.91H36c0.95,0,1.7,0.26,2.17,0.74c0.38,0.38,0.57,0.84,0.57,1.41v0.02
			c0,0.94-0.5,1.46-1.09,1.79c0.96,0.37,1.56,0.93,1.56,2.04v0.02c0,1.52-1.23,2.28-3.11,2.28h-3.04c-0.51,0-0.91-0.4-0.91-0.91
			V39.67z M35.61,42.11c0.81,0,1.32-0.26,1.32-0.88v-0.02c0-0.55-0.43-0.85-1.2-0.85h-1.8v1.76H35.61z M36.1,45.46
			c0.81,0,1.29-0.28,1.29-0.9v-0.02c0-0.56-0.42-0.9-1.35-0.9h-2.11v1.83H36.1z"/>
		<path class="st44" d="M40.35,42.93v-0.02c0-2.36,1.86-4.3,4.43-4.3c2.56,0,4.4,1.91,4.4,4.27v0.02c0,2.36-1.86,4.3-4.43,4.3
			C42.19,47.21,40.35,45.29,40.35,42.93z M47.27,42.93v-0.02c0-1.42-1.04-2.61-2.52-2.61c-1.47,0-2.49,1.16-2.49,2.59v0.02
			c0,1.42,1.04,2.61,2.52,2.61C46.25,45.52,47.27,44.36,47.27,42.93z"/>
		<path class="st44" d="M50.45,42.93v-0.02c0-2.36,1.86-4.3,4.43-4.3c2.56,0,4.4,1.91,4.4,4.27v0.02c0,2.36-1.86,4.3-4.43,4.3
			C52.29,47.21,50.45,45.29,50.45,42.93z M57.37,42.93v-0.02c0-1.42-1.04-2.61-2.52-2.61c-1.47,0-2.49,1.16-2.49,2.59v0.02
			c0,1.42,1.04,2.61,2.52,2.61C56.35,45.52,57.37,44.36,57.37,42.93z"/>
		<path class="st44" d="M60.91,39.6c0-0.51,0.4-0.91,0.91-0.91c0.51,0,0.91,0.4,0.91,0.91v2.79l3.37-3.35
			c0.23-0.23,0.45-0.36,0.77-0.36c0.51,0,0.84,0.39,0.84,0.84c0,0.28-0.13,0.5-0.33,0.69l-2.34,2.18l2.55,3.21
			c0.14,0.18,0.25,0.37,0.25,0.64c0,0.51-0.39,0.89-0.93,0.89c-0.36,0-0.57-0.18-0.77-0.44l-2.37-3.11l-1.04,0.97v1.66
			c0,0.51-0.4,0.91-0.91,0.91c-0.51,0-0.91-0.4-0.91-0.91V39.6z"/>
		<path class="st44" d="M32.15,53.87c0-0.51,0.4-0.91,0.91-0.91h0.2c0.39,0,0.66,0.2,0.83,0.47l2.21,3.6l2.22-3.61
			c0.19-0.31,0.45-0.46,0.82-0.46h0.2c0.51,0,0.91,0.4,0.91,0.91v6.6c0,0.51-0.4,0.91-0.91,0.91c-0.5,0-0.9-0.42-0.9-0.91v-4.14
			l-1.6,2.47c-0.19,0.29-0.43,0.46-0.76,0.46c-0.33,0-0.57-0.18-0.76-0.46l-1.58-2.43v4.13c0,0.5-0.4,0.89-0.9,0.89
			c-0.5,0-0.89-0.39-0.89-0.89V53.87z"/>
		<path class="st44" d="M41.99,60.14l2.9-6.54c0.2-0.45,0.57-0.72,1.07-0.72h0.11c0.5,0,0.85,0.27,1.06,0.72l2.9,6.54
			c0.06,0.13,0.09,0.25,0.09,0.37c0,0.49-0.38,0.88-0.87,0.88c-0.43,0-0.71-0.25-0.88-0.63l-0.56-1.31h-3.66l-0.58,1.36
			c-0.15,0.36-0.46,0.57-0.84,0.57c-0.47,0-0.84-0.38-0.84-0.86C41.88,60.4,41.93,60.27,41.99,60.14z M47.13,57.84l-1.15-2.74
			l-1.15,2.74H47.13z"/>
		<path class="st44" d="M51.55,53.92c0-0.51,0.4-0.91,0.91-0.91h2.88c1.06,0,1.88,0.3,2.42,0.84c0.46,0.46,0.71,1.12,0.71,1.9v0.02
			c0,1.31-0.65,2.11-1.66,2.53l1.27,1.54c0.18,0.23,0.3,0.42,0.3,0.7c0,0.51-0.43,0.84-0.87,0.84c-0.42,0-0.69-0.2-0.9-0.48
			l-1.78-2.25h-1.46v1.82c0,0.51-0.4,0.91-0.91,0.91c-0.51,0-0.91-0.4-0.91-0.91V53.92z M55.23,57.04c0.89,0,1.4-0.47,1.4-1.18
			v-0.02c0-0.78-0.55-1.19-1.44-1.19h-1.82v2.39H55.23z"/>
		<path class="st44" d="M60.14,53.85c0-0.51,0.4-0.91,0.91-0.91c0.51,0,0.91,0.4,0.91,0.91v2.79l3.37-3.35
			c0.23-0.23,0.45-0.36,0.77-0.36c0.51,0,0.84,0.39,0.84,0.84c0,0.29-0.13,0.5-0.33,0.69l-2.34,2.18l2.55,3.21
			c0.14,0.18,0.25,0.37,0.25,0.64c0,0.51-0.39,0.89-0.93,0.89c-0.36,0-0.57-0.18-0.77-0.44l-2.37-3.11l-1.04,0.97v1.66
			c0,0.51-0.4,0.91-0.91,0.91c-0.51,0-0.91-0.4-0.91-0.91V53.85z"/>
	</g>
	<path class="st8" d="M48.79,12.84v21.8c0,0.87,0.95,1.41,1.7,0.95l1.44-0.88c0.36-0.22,0.8-0.22,1.16,0l1.44,0.88
		c0.74,0.45,1.7-0.08,1.7-0.95v-21.8"/>
</g>
<g id="_x31_6" class="st0">
	<g class="st1">
		<g id="Search">
			<path class="st45" d="M70.22,69.05L62.41,58.2c-0.04-0.06-0.09-0.1-0.14-0.16c2.29-2.49,3.9-5.64,4.49-9.23
				c1.59-9.75-5.03-18.94-14.78-20.53c-9.75-1.59-18.94,5.03-20.53,14.78C29.86,52.81,36.48,62,46.23,63.59
				c3.58,0.58,7.09,0.06,10.18-1.33c0.04,0.06,0.06,0.12,0.1,0.18l7.81,10.85c1.17,1.63,3.45,2,5.07,0.83
				C71.02,72.95,71.39,70.68,70.22,69.05z M47.23,57.47c-6.37-1.04-10.69-7.04-9.65-13.41c1.04-6.37,7.04-10.69,13.41-9.65
				c6.37,1.04,10.69,7.04,9.65,13.41S53.6,58.51,47.23,57.47z"/>
		</g>
		<g>
			<g>
				<path class="st21" d="M83.08,12.09H24.2c-2.05,0-3.73,1.67-3.73,3.73v6.63h-3.23c-2.23,0-4.05,1.82-4.05,4.05
					s1.82,4.05,4.05,4.05h3.23v8.16h-3.23c-2.23,0-4.05,1.82-4.05,4.05s1.82,4.05,4.05,4.05h3.23v8.16h-3.23
					c-2.23,0-4.05,1.82-4.05,4.05c0,0.63,0.51,1.14,1.14,1.14c0.63,0,1.14-0.51,1.14-1.14c0-0.98,0.8-1.78,1.78-1.78h8.74
					c0.98,0,1.78,0.8,1.78,1.78s-0.8,1.78-1.78,1.78h-8.2c-0.63,0-1.14,0.51-1.14,1.14s0.51,1.14,1.14,1.14h2.7v8.16h-3.23
					c-2.23,0-4.05,1.82-4.05,4.05c0,2.23,1.82,4.05,4.05,4.05h3.23v6.63c0,2.05,1.67,3.73,3.73,3.73h58.88
					c2.05,0,3.73-1.67,3.73-3.73V15.82C86.81,13.77,85.14,12.09,83.08,12.09z M17.24,28.27c-0.98,0-1.78-0.8-1.78-1.78
					c0-0.98,0.8-1.78,1.78-1.78h8.74c0.98,0,1.78,0.8,1.78,1.78c0,0.98-0.8,1.78-1.78,1.78H17.24z M17.24,44.53
					c-0.98,0-1.78-0.8-1.78-1.78s0.8-1.78,1.78-1.78h8.74c0.98,0,1.78,0.8,1.78,1.78s-0.8,1.78-1.78,1.78H17.24z M17.24,77.04
					c-0.98,0-1.78-0.8-1.78-1.78c0-0.98,0.8-1.78,1.78-1.78h8.74c0.98,0,1.78,0.8,1.78,1.78c0,0.98-0.8,1.78-1.78,1.78H17.24z
					 M74.83,85.94c0,0.8-0.65,1.45-1.45,1.45H36.17H24.2c-0.8,0-1.45-0.65-1.45-1.45v-6.63h3.23c2.23,0,4.05-1.82,4.05-4.05
					c0-2.23-1.82-4.05-4.05-4.05h-3.23v-8.16h3.23c2.23,0,4.05-1.82,4.05-4.05c0-2.23-1.82-4.05-4.05-4.05h-3.23V46.8h3.23
					c2.23,0,4.05-1.82,4.05-4.05s-1.82-4.05-4.05-4.05h-3.23v-8.16h3.23c2.23,0,4.05-1.82,4.05-4.05s-1.82-4.05-4.05-4.05h-3.23
					v-6.63c0-0.8,0.65-1.45,1.45-1.45h27.44h21.74c0.8,0,1.45,0.65,1.45,1.45V85.94z M84.53,85.94c0,0.8-0.65,1.45-1.45,1.45h-6.28
					c0.19-0.45,0.3-0.94,0.3-1.45v-2.86h5.98c0.52,0,1.01-0.11,1.45-0.3V85.94z M84.53,79.36c0,0.8-0.65,1.45-1.45,1.45H77.1V62.46
					h3.72c0.63,0,1.14-0.51,1.14-1.14c0-0.63-0.51-1.14-1.14-1.14H77.1V41.83h7.43V79.36z M84.53,39.56H77.1V21.2h5.98
					c0.8,0,1.45,0.65,1.45,1.45V39.56z M84.53,19.23c-0.45-0.19-0.94-0.3-1.45-0.3H77.1v-3.11c0-0.52-0.11-1.01-0.3-1.45h6.28
					c0.8,0,1.45,0.65,1.45,1.45V19.23z"/>
			</g>
		</g>
		<g>
			<path class="st21" d="M47.94,48.01c-0.74-0.13-1.17-0.78-1.16-1.48l0.04-1.77c0.02-0.86,0.6-1.36,1.43-1.32
				c2.25,0.1,3.39-0.41,3.6-1.66l0.01-0.05c0.2-1.14-0.55-1.95-2.03-2.2c-1.09-0.19-2.09-0.02-3.12,0.51
				c-0.34,0.18-0.78,0.29-1.21,0.21c-0.96-0.16-1.64-1.11-1.47-2.08c0.08-0.48,0.37-0.95,0.89-1.26c1.54-0.89,3.36-1.31,5.59-0.93
				c3.65,0.62,5.82,2.93,5.24,6.3l-0.01,0.05c-0.55,3.22-3.01,4.16-5.87,4.25l-0.15,0.44c-0.21,0.64-0.85,1.13-1.58,1.01
				L47.94,48.01z M47.65,49.68c1.27,0.22,2.05,1.32,1.84,2.53l-0.01,0.05c-0.21,1.22-1.31,1.99-2.58,1.78s-2.05-1.31-1.84-2.53
				l0.01-0.05C45.28,50.25,46.38,49.47,47.65,49.68z"/>
		</g>
	</g>
</g>
<g id="_x31_6_Light">
	<g>
		<g id="Search_2_">
			<path class="st46" d="M70.22,69.05L62.41,58.2c-0.04-0.06-0.09-0.1-0.14-0.16c2.29-2.49,3.9-5.64,4.49-9.23
				c1.59-9.75-5.03-18.94-14.78-20.53c-9.75-1.59-18.94,5.03-20.53,14.78C29.86,52.81,36.48,62,46.23,63.59
				c3.58,0.58,7.09,0.06,10.18-1.33c0.04,0.06,0.06,0.12,0.1,0.18l7.81,10.85c1.17,1.63,3.45,2,5.07,0.83
				C71.02,72.95,71.39,70.68,70.22,69.05z M47.23,57.47c-6.37-1.04-10.69-7.04-9.65-13.41c1.04-6.37,7.04-10.69,13.41-9.65
				c6.37,1.04,10.69,7.04,9.65,13.41S53.6,58.51,47.23,57.47z"/>
		</g>
		<g>
			<g>
				<path class="st28" d="M83.08,12.09H24.2c-2.05,0-3.73,1.67-3.73,3.73v6.63h-3.23c-2.23,0-4.05,1.82-4.05,4.05
					s1.82,4.05,4.05,4.05h3.23v8.16h-3.23c-2.23,0-4.05,1.82-4.05,4.05s1.82,4.05,4.05,4.05h3.23v8.16h-3.23
					c-2.23,0-4.05,1.82-4.05,4.05c0,0.63,0.51,1.14,1.14,1.14c0.63,0,1.14-0.51,1.14-1.14c0-0.98,0.8-1.78,1.78-1.78h8.74
					c0.98,0,1.78,0.8,1.78,1.78s-0.8,1.78-1.78,1.78h-8.2c-0.63,0-1.14,0.51-1.14,1.14s0.51,1.14,1.14,1.14h2.7v8.16h-3.23
					c-2.23,0-4.05,1.82-4.05,4.05c0,2.23,1.82,4.05,4.05,4.05h3.23v6.63c0,2.05,1.67,3.73,3.73,3.73h58.88
					c2.05,0,3.73-1.67,3.73-3.73V15.82C86.81,13.77,85.14,12.09,83.08,12.09z M17.24,28.27c-0.98,0-1.78-0.8-1.78-1.78
					c0-0.98,0.8-1.78,1.78-1.78h8.74c0.98,0,1.78,0.8,1.78,1.78c0,0.98-0.8,1.78-1.78,1.78H17.24z M17.24,44.53
					c-0.98,0-1.78-0.8-1.78-1.78s0.8-1.78,1.78-1.78h8.74c0.98,0,1.78,0.8,1.78,1.78s-0.8,1.78-1.78,1.78H17.24z M17.24,77.04
					c-0.98,0-1.78-0.8-1.78-1.78c0-0.98,0.8-1.78,1.78-1.78h8.74c0.98,0,1.78,0.8,1.78,1.78c0,0.98-0.8,1.78-1.78,1.78H17.24z
					 M74.83,85.94c0,0.8-0.65,1.45-1.45,1.45H36.17H24.2c-0.8,0-1.45-0.65-1.45-1.45v-6.63h3.23c2.23,0,4.05-1.82,4.05-4.05
					c0-2.23-1.82-4.05-4.05-4.05h-3.23v-8.16h3.23c2.23,0,4.05-1.82,4.05-4.05c0-2.23-1.82-4.05-4.05-4.05h-3.23V46.8h3.23
					c2.23,0,4.05-1.82,4.05-4.05s-1.82-4.05-4.05-4.05h-3.23v-8.16h3.23c2.23,0,4.05-1.82,4.05-4.05s-1.82-4.05-4.05-4.05h-3.23
					v-6.63c0-0.8,0.65-1.45,1.45-1.45h27.44h21.74c0.8,0,1.45,0.65,1.45,1.45V85.94z M84.53,85.94c0,0.8-0.65,1.45-1.45,1.45h-6.28
					c0.19-0.45,0.3-0.94,0.3-1.45v-2.86h5.98c0.52,0,1.01-0.11,1.45-0.3V85.94z M84.53,79.36c0,0.8-0.65,1.45-1.45,1.45H77.1V62.46
					h3.72c0.63,0,1.14-0.51,1.14-1.14c0-0.63-0.51-1.14-1.14-1.14H77.1V41.83h7.43V79.36z M84.53,39.56H77.1V21.2h5.98
					c0.8,0,1.45,0.65,1.45,1.45V39.56z M84.53,19.23c-0.45-0.19-0.94-0.3-1.45-0.3H77.1v-3.11c0-0.52-0.11-1.01-0.3-1.45h6.28
					c0.8,0,1.45,0.65,1.45,1.45V19.23z"/>
			</g>
		</g>
		<g>
			<path class="st28" d="M47.94,48.01c-0.74-0.13-1.17-0.78-1.16-1.48l0.04-1.77c0.02-0.86,0.6-1.36,1.43-1.32
				c2.25,0.1,3.39-0.41,3.6-1.66l0.01-0.05c0.2-1.14-0.55-1.95-2.03-2.2c-1.09-0.19-2.09-0.02-3.12,0.51
				c-0.34,0.18-0.78,0.29-1.21,0.21c-0.96-0.16-1.64-1.11-1.47-2.08c0.08-0.48,0.37-0.95,0.89-1.26c1.54-0.89,3.36-1.31,5.59-0.93
				c3.65,0.62,5.82,2.93,5.24,6.3l-0.01,0.05c-0.55,3.22-3.01,4.16-5.87,4.25l-0.15,0.44c-0.21,0.64-0.85,1.13-1.58,1.01
				L47.94,48.01z M47.65,49.68c1.27,0.22,2.05,1.32,1.84,2.53l-0.01,0.05c-0.21,1.22-1.31,1.99-2.58,1.78s-2.05-1.31-1.84-2.53
				l0.01-0.05C45.28,50.25,46.38,49.47,47.65,49.68z"/>
		</g>
	</g>
</g>
<g id="_x31_7" class="st0">
	<g class="st1">
		<path class="st21" d="M30.52,68l-9.41,9.57l0.04-5.14c0-1.11-0.88-2-1.97-2s-1.97,0.9-1.97,2v10.01c0,0.59,0.24,1.07,0.62,1.4
			c0.36,0.37,0.85,0.6,1.4,0.6h9.79c1.09,0,1.97-0.9,1.97-2s-0.88-2-1.97-2h-5.18l9.45-9.61L30.52,68z"/>
		<path class="st21" d="M29.03,21.49c1.09,0,1.97-0.9,1.97-2s-0.88-2-1.97-2h-9.79c-0.55,0-1.05,0.23-1.4,0.6
			c-0.38,0.33-0.62,0.81-0.62,1.4V29.5c0,1.11,0.88,2,1.97,2c1.09,0,1.97-0.9,1.97-2l-0.04-5.14l9.41,9.57l2.79-2.83l-9.45-9.61
			H29.03z"/>
		<path class="st21" d="M80.82,70.43c-1.09,0-1.97,0.9-1.97,2l0.04,5.14L69.48,68l-2.79,2.83l9.45,9.61h-5.18
			c-1.09,0-1.97,0.9-1.97,2s0.88,2,1.97,2h9.79c0.55,0,1.05-0.23,1.4-0.6c0.38-0.33,0.62-0.81,0.62-1.4V72.43
			C82.79,71.32,81.91,70.43,80.82,70.43z"/>
		<path class="st21" d="M80.77,17.49h-9.79c-1.09,0-1.97,0.9-1.97,2c0,1.11,0.88,2,1.97,2h5.18L66.7,31.1l2.79,2.83l9.41-9.57
			l-0.04,5.14c0,1.11,0.88,2,1.97,2c1.09,0,1.97-0.9,1.97-2V19.49c0-0.59-0.24-1.07-0.62-1.4C81.81,17.72,81.32,17.49,80.77,17.49z"
			/>
		<path class="st2" d="M86.23,82.56c0,2.91-2.32,5.26-5.18,5.26h-62.1c-2.86,0-5.18-2.35-5.18-5.26V19.44c0-2.9,2.32-5.26,5.18-5.26
			h62.1c2.86,0,5.18,2.36,5.18,5.26V82.56z"/>
		<path class="st21" d="M59.09,68H40.91c-4.2,0-7.61-3.41-7.61-7.61V41.54c0-4.2,3.41-7.61,7.61-7.61h18.18
			c4.2,0,7.61,3.41,7.61,7.61v18.85C66.7,64.59,63.29,68,59.09,68z"/>
	</g>
</g>
<g id="_x31_7_light" class="st0">
	<g class="st1">
		<path class="st47" d="M30.52,68l-9.41,9.57l0.04-5.14c0-1.11-0.88-2-1.97-2s-1.97,0.9-1.97,2v10.01c0,0.59,0.24,1.07,0.62,1.4
			c0.36,0.37,0.85,0.6,1.4,0.6h9.79c1.09,0,1.97-0.9,1.97-2s-0.88-2-1.97-2h-5.18l9.45-9.61L30.52,68z"/>
		<path class="st47" d="M29.03,21.49c1.09,0,1.97-0.9,1.97-2s-0.88-2-1.97-2h-9.79c-0.55,0-1.05,0.23-1.4,0.6
			c-0.38,0.33-0.62,0.81-0.62,1.4V29.5c0,1.11,0.88,2,1.97,2c1.09,0,1.97-0.9,1.97-2l-0.04-5.14l9.41,9.57l2.79-2.83l-9.45-9.61
			H29.03z"/>
		<path class="st47" d="M80.82,70.43c-1.09,0-1.97,0.9-1.97,2l0.04,5.14L69.48,68l-2.79,2.83l9.45,9.61h-5.18
			c-1.09,0-1.97,0.9-1.97,2s0.88,2,1.97,2h9.79c0.55,0,1.05-0.23,1.4-0.6c0.38-0.33,0.62-0.81,0.62-1.4V72.43
			C82.79,71.32,81.91,70.43,80.82,70.43z"/>
		<path class="st47" d="M80.77,17.49h-9.79c-1.09,0-1.97,0.9-1.97,2c0,1.11,0.88,2,1.97,2h5.18L66.7,31.1l2.79,2.83l9.41-9.57
			l-0.04,5.14c0,1.11,0.88,2,1.97,2c1.09,0,1.97-0.9,1.97-2V19.49c0-0.59-0.24-1.07-0.62-1.4C81.81,17.72,81.32,17.49,80.77,17.49z"
			/>
		<path class="st48" d="M86.23,82.56c0,2.91-2.32,5.26-5.18,5.26h-62.1c-2.86,0-5.18-2.35-5.18-5.26V19.44
			c0-2.9,2.32-5.26,5.18-5.26h62.1c2.86,0,5.18,2.36,5.18,5.26V82.56z"/>
		<path class="st47" d="M59.09,68H40.91c-4.2,0-7.61-3.41-7.61-7.61V41.54c0-4.2,3.41-7.61,7.61-7.61h18.18
			c4.2,0,7.61,3.41,7.61,7.61v18.85C66.7,64.59,63.29,68,59.09,68z"/>
	</g>
</g>
</svg>
