<?xml version="1.0" encoding="utf-8"?>
<!-- Generator: Adobe Illustrator 23.0.1, SVG Export Plug-In . SVG Version: 6.00 Build 0)  -->
<svg version="1.1" id="Layer_1" xmlns="http://www.w3.org/2000/svg" xmlns:xlink="http://www.w3.org/1999/xlink" x="0px" y="0px"
	 viewBox="0 0 100 100" style="enable-background:new 0 0 100 100;" xml:space="preserve">
<style type="text/css">
	.st0{display:none;}
	.st1{display:inline;}
	.st2{fill:none;stroke:#414042;stroke-width:3;stroke-miterlimit:10;}
	.st3{display:inline;fill:none;stroke:#414042;stroke-width:3;stroke-miterlimit:10;}
	.st4{display:inline;fill:#FFFFFF;}
	.st5{display:inline;fill:#383838;}
	.st6{display:inline;fill:none;stroke:#C2C4C6;stroke-width:3;stroke-miterlimit:10;}
	.st7{fill:#AEAAAA;}
	.st8{display:inline;fill:none;stroke:#CDCDCD;stroke-width:3;stroke-miterlimit:10;}
	.st9{display:inline;fill:#CDCDCD;}
	.st10{display:inline;fill:#F4F4F4;}
	.st11{display:inline;fill:none;stroke:#F4F4F4;stroke-width:3;stroke-miterlimit:10;}
	.st12{display:inline;fill:none;stroke:#CDCDCD;stroke-width:2;stroke-miterlimit:10;}
	.st13{display:inline;fill:#F7F7F7;stroke:#F4F4F4;stroke-miterlimit:10;}
	.st14{display:inline;fill:#414042;}
	.st15{display:inline;fill:#D1D3D4;}
	.st16{display:inline;fill:none;stroke:#D1D3D4;stroke-width:3;stroke-miterlimit:10;}
	.st17{display:inline;fill:none;stroke:#414042;stroke-width:2;stroke-miterlimit:10;}
	.st18{display:inline;fill:#D2D2D4;stroke:#D1D3D4;stroke-miterlimit:10;}
	.st19{fill:#414042;}
	.st20{fill:#383838;}
	.st21{fill:#C3C4C5;}
	.st22{fill:none;stroke:#414042;stroke-width:5;stroke-miterlimit:10;}
	.st23{fill:none;stroke:#C2C4C6;stroke-width:3;stroke-miterlimit:10;}
	.st24{fill:#BCBEC0;}
	.st25{fill:#C4C6C8;stroke:#C4C6C8;stroke-miterlimit:10;}
	.st26{display:inline;fill:none;stroke:#C4C6C8;stroke-width:4;stroke-miterlimit:10;}
	.st27{fill:none;stroke:#C4C6C8;stroke-width:3;stroke-miterlimit:10;}
	.st28{display:inline;fill:none;stroke:#C4C6C8;stroke-width:3;stroke-miterlimit:10;}
	.st29{display:inline;fill:none;stroke:#414042;stroke-width:4;stroke-miterlimit:10;}
	.st30{fill:none;stroke:#C4C6C8;stroke-width:4;stroke-miterlimit:10;}
	.st31{fill:#023C6F;}
	.st32{fill:#FFFFFF;}
	.st33{fill:#C4C6C8;}
	.st34{fill:#C4C5C7;}
	.st35{fill-rule:evenodd;clip-rule:evenodd;fill:#414042;}
	.st36{fill-rule:evenodd;clip-rule:evenodd;fill:#C4C6C8;stroke:#C4C6C8;stroke-miterlimit:10;}
	.st37{fill:#B1B3B6;}
	.st38{fill:none;stroke:#B1B3B6;stroke-width:3;stroke-miterlimit:10;}
</style>
<g id="Layer_6">
	<g id="_x34_" class="st0">
		<g class="st1">
			<path class="st2" d="M28,14h50.8c5,0,9,4,9,9v56c0,5-4,9-9,9h-56c-5,0-9-4-9-9V23"/>
			<line class="st2" x1="22.8" y1="14" x2="28" y2="14"/>
		</g>
		<g class="st1">
			<line class="st2" x1="23.7" y1="42.9" x2="78.3" y2="42.9"/>
			<line class="st2" x1="23.7" y1="54.5" x2="78.3" y2="54.5"/>
			<line class="st2" x1="23.7" y1="65.7" x2="78.3" y2="65.7"/>
		</g>
		<line class="st3" x1="14.8" y1="34" x2="36.8" y2="34"/>
		<line class="st3" x1="36.8" y1="14.7" x2="36.8" y2="35.5"/>
		<rect x="11.9" y="12.3" class="st4" width="23.4" height="20.1"/>
		<line class="st3" x1="36.7" y1="13.8" x2="13.8" y2="34"/>
	</g>
	<g id="_x32_" class="st0">
		<path class="st3" d="M21.8,15.1h56c5,0,9,4,9,9v56c0,5-4,9-9,9h-56c-5,0-9-4-9-9v-56"/>
		<polygon class="st5" points="49.8,45.9 41.5,54.2 5.1,15.1 13.5,6.8 		"/>
		<path class="st5" d="M50.3,46.9l2,6.4c0.8,2.4-1.5,4.6-3.8,3.8l-6.2-2.3"/>
	</g>
	<g id="_x32__light" class="st0">
		<path class="st6" d="M21.8,15.1h56c5,0,9,4,9,9v56c0,5-4,9-9,9h-56c-5,0-9-4-9-9v-56"/>
		<g class="st1">
			<polygon class="st7" points="49.8,45.9 41.5,54.2 5.1,15.1 13.5,6.8 			"/>
			<path class="st7" d="M50.3,46.9l2,6.4c0.8,2.4-1.5,4.6-3.8,3.8l-6.2-2.3"/>
		</g>
	</g>
</g>
<g id="Printer_x28_Light_x29_" class="st0">
	<path class="st8" d="M64.8,87.4H35.2c-5,0-9-4-9-9V23.4c0-5,4-9,9-9h29.6c5,0,9,4,9,9v55.1C73.8,83.4,69.8,87.4,64.8,87.4z"/>
	<path class="st9" d="M78.5,63.1h-57c-5,0-9-4-9-9V33.9c0-5,4-9,9-9h57c5,0,9,4,9,9v20.3C87.5,59.1,83.5,63.1,78.5,63.1z"/>
	<circle class="st10" cx="80.4" cy="32.3" r="3"/>
	<circle class="st10" cx="80.4" cy="40.3" r="3"/>
	<path class="st11" d="M26.2,63.1c0-5,4-9,9-9h29.6c5,0,9,4,9,9"/>
	<line class="st12" x1="50" y1="66.3" x2="66.2" y2="66.3"/>
	<line class="st12" x1="50" y1="70.3" x2="66.2" y2="70.3"/>
	<line class="st12" x1="33.8" y1="74.3" x2="66.2" y2="74.3"/>
	<line class="st12" x1="33.8" y1="78.3" x2="66.2" y2="78.3"/>
	<line class="st12" x1="33.8" y1="82.3" x2="66.2" y2="82.3"/>
	<path class="st10" d="M31.3,33.7H19.8c-0.8,0-1.4-0.6-1.4-1.4v-0.6c0-0.8,0.6-1.4,1.4-1.4h11.5c0.8,0,1.4,0.6,1.4,1.4v0.6
		C32.7,33.1,32.1,33.7,31.3,33.7z"/>
	<path class="st10" d="M31.3,38H19.8c-0.8,0-1.4-0.6-1.4-1.4v-0.6c0-0.8,0.6-1.4,1.4-1.4h11.5c0.8,0,1.4,0.6,1.4,1.4v0.6
		C32.7,37.4,32.1,38,31.3,38z"/>
	<path class="st13" d="M72,62.6H27.6v-5.1c0-1.1,0.9-2,2-2H70c1.1,0,2,0.9,2,2C72,57.6,72,62.6,72,62.6z"/>
</g>
<g id="Printer" class="st0">
	<path class="st3" d="M64.8,87.4H35.2c-5,0-9-4-9-9V23.4c0-5,4-9,9-9h29.6c5,0,9,4,9,9v55.1C73.8,83.4,69.8,87.4,64.8,87.4z"/>
	<path class="st14" d="M78.5,63.1h-57c-5,0-9-4-9-9V33.9c0-5,4-9,9-9h57c5,0,9,4,9,9v20.3C87.5,59.1,83.5,63.1,78.5,63.1z"/>
	<circle class="st15" cx="80.4" cy="32.3" r="3"/>
	<circle class="st15" cx="80.4" cy="40.3" r="3"/>
	<path class="st16" d="M26.2,63.1c0-5,4-9,9-9h29.6c5,0,9,4,9,9"/>
	<line class="st17" x1="50" y1="66.3" x2="66.2" y2="66.3"/>
	<line class="st17" x1="50" y1="70.3" x2="66.2" y2="70.3"/>
	<line class="st17" x1="33.8" y1="74.3" x2="66.2" y2="74.3"/>
	<line class="st17" x1="33.8" y1="78.3" x2="66.2" y2="78.3"/>
	<line class="st17" x1="33.8" y1="82.3" x2="66.2" y2="82.3"/>
	<path class="st15" d="M31.3,33.7H19.8c-0.8,0-1.4-0.6-1.4-1.4v-0.6c0-0.8,0.6-1.4,1.4-1.4h11.5c0.8,0,1.4,0.6,1.4,1.4v0.6
		C32.7,33.1,32.1,33.7,31.3,33.7z"/>
	<path class="st15" d="M31.3,38H19.8c-0.8,0-1.4-0.6-1.4-1.4v-0.6c0-0.8,0.6-1.4,1.4-1.4h11.5c0.8,0,1.4,0.6,1.4,1.4v0.6
		C32.7,37.4,32.1,38,31.3,38z"/>
	<path class="st18" d="M72,62.6H27.6v-5.1c0-1.1,0.9-2,2-2H70c1.1,0,2,0.9,2,2C72,57.6,72,62.6,72,62.6z"/>
</g>
<g id="_x32__2_" class="st0">
	<g class="st1">
		<path class="st19" d="M86.4,35.4c-0.8-1.6-1.7-2.8-2.8-3.8L65.4,16.1c-1.1-0.9-2.6-1.7-4.4-2.4c-1.9-0.7-3.6-1-5.1-1H31.2v6.4h19
			l0,20.7c0,1.3,0.5,2.5,1.6,3.4s2.4,1.4,4,1.4h24.3v38.2H20.4l0-34.3h-7.4v35.9c0,1.3,0.5,2.4,1.6,3.4s2.4,1.4,4,1.4H82
			c1.6,0,2.9-0.5,4-1.4c1.1-0.9,1.6-2.1,1.6-3.4V39.8C87.6,38.4,87.2,37,86.4,35.4z M57.7,38.2V19.5c1.1,0.3,1.9,0.7,2.4,1.1
			l18.3,15.6c0.5,0.4,0.9,1.1,1.3,2C79.6,38.2,57.7,38.2,57.7,38.2z"/>
		
			<rect x="16.6" y="8.8" transform="matrix(0.7626 -0.6469 0.6469 0.7626 -13.7706 23.5929)" class="st20" width="17.3" height="43.4"/>
		<path class="st20" d="M43,59l-6.8-8.1l7.5-6.3l6.8,8.1c1,1.2,0.9,3-0.3,4.1l-3,2.6C45.9,60.3,44.1,60.2,43,59z"/>
		<path class="st19" d="M86.4,35.4c-0.8-1.6-1.7-2.8-2.8-3.8L65.4,16.1c-1.1-0.9-2.6-1.7-4.4-2.4c-1.9-0.7-3.6-1-5.1-1H31.2v6.4h19
			l0,20.7c0,1.3,0.5,2.5,1.6,3.4s2.4,1.4,4,1.4h24.3v38.2H20.4l0-34.3h-7.4v35.9c0,1.3,0.5,2.4,1.6,3.4s2.4,1.4,4,1.4H82
			c1.6,0,2.9-0.5,4-1.4c1.1-0.9,1.6-2.1,1.6-3.4V39.8C87.6,38.4,87.2,37,86.4,35.4z M57.7,38.2V19.5c1.1,0.3,1.9,0.7,2.4,1.1
			l18.3,15.6c0.5,0.4,0.9,1.1,1.3,2C79.6,38.2,57.7,38.2,57.7,38.2z"/>
	</g>
</g>
<g id="_x32__light_2_" class="st0">
	<g class="st1">
		<path class="st21" d="M86.4,35.4c-0.8-1.6-1.7-2.8-2.8-3.8L65.4,16.1c-1.1-0.9-2.6-1.7-4.4-2.4c-1.9-0.7-3.6-1-5.1-1H31.2v6.4h19
			l0,20.7c0,1.3,0.5,2.5,1.6,3.4s2.4,1.4,4,1.4h24.3v38.2H20.4l0-34.3h-7.4v35.9c0,1.3,0.5,2.4,1.6,3.4s2.4,1.4,4,1.4H82
			c1.6,0,2.9-0.5,4-1.4c1.1-0.9,1.6-2.1,1.6-3.4V39.8C87.6,38.4,87.2,37,86.4,35.4z M57.7,38.2V19.5c1.1,0.3,1.9,0.7,2.4,1.1
			l18.3,15.6c0.5,0.4,0.9,1.1,1.3,2C79.6,38.2,57.7,38.2,57.7,38.2z"/>
		
			<rect x="16.6" y="8.8" transform="matrix(0.7626 -0.6469 0.6469 0.7626 -13.7706 23.5929)" class="st21" width="17.3" height="43.4"/>
		<path class="st21" d="M43,59l-6.8-8.1l7.5-6.3l6.8,8.1c1,1.2,0.9,3-0.3,4.1l-3,2.6C45.9,60.3,44.1,60.2,43,59z"/>
		<path class="st21" d="M86.4,35.4c-0.8-1.6-1.7-2.8-2.8-3.8L65.4,16.1c-1.1-0.9-2.6-1.7-4.4-2.4c-1.9-0.7-3.6-1-5.1-1H31.2v6.4h19
			l0,20.7c0,1.3,0.5,2.5,1.6,3.4s2.4,1.4,4,1.4h24.3v38.2H20.4l0-34.3h-7.4v35.9c0,1.3,0.5,2.4,1.6,3.4s2.4,1.4,4,1.4H82
			c1.6,0,2.9-0.5,4-1.4c1.1-0.9,1.6-2.1,1.6-3.4V39.8C87.6,38.4,87.2,37,86.4,35.4z M57.7,38.2V19.5c1.1,0.3,1.9,0.7,2.4,1.1
			l18.3,15.6c0.5,0.4,0.9,1.1,1.3,2C79.6,38.2,57.7,38.2,57.7,38.2z"/>
	</g>
</g>
<g id="_x33_" class="st0">
	<g class="st1">
		<path class="st22" d="M21.8,15.1h56c5,0,9,4,9,9v56c0,5-4,9-9,9h-56c-5,0-9-4-9-9v-56"/>
		<line class="st22" x1="12.8" y1="24.2" x2="12.8" y2="16.5"/>
		<line class="st22" x1="11.3" y1="15.1" x2="21.8" y2="15.1"/>
	</g>
	<g class="st1">
		<path d="M21.4,40H30c5,0,8.3,2.6,8.3,7v0.1c0,4.8-3.6,7.2-8.6,7.2h-2.8V60h-5.5V40z M29.6,49.9c2,0,3.2-1.1,3.2-2.6v-0.1
			c0-1.7-1.2-2.6-3.2-2.6H27v5.3H29.6z"/>
		<path d="M40.7,40h7.8c7.1,0,11.3,4.1,11.3,9.9V50c0,5.8-4.2,10.1-11.4,10.1h-7.6L40.7,40L40.7,40z M46.2,44.9v10.2h2.3
			c3.3,0,5.5-1.8,5.5-5.1V50c0-3.2-2.2-5.1-5.5-5.1C48.5,44.9,46.2,44.9,46.2,44.9z"/>
		<path d="M62.6,40h16v4.9H68.1v3.4h9.5v4.6h-9.5V60h-5.5C62.6,60,62.6,40,62.6,40z"/>
	</g>
</g>
<g id="_x32__light_1_" class="st0">
	<g class="st1">
		<path class="st23" d="M21.8,15.1h56c5,0,9,4,9,9v56c0,5-4,9-9,9h-56c-5,0-9-4-9-9v-56"/>
		<line class="st23" x1="12.8" y1="24.2" x2="12.8" y2="16.5"/>
		<line class="st23" x1="11.3" y1="15.1" x2="21.8" y2="15.1"/>
	</g>
	<g class="st1">
		<path class="st24" d="M21.4,40H30c5,0,8.3,2.6,8.3,7v0.1c0,4.8-3.6,7.2-8.6,7.2h-2.8V60h-5.5V40z M29.6,49.9c2,0,3.2-1.1,3.2-2.6
			v-0.1c0-1.7-1.2-2.6-3.2-2.6H27v5.3H29.6z"/>
		<path class="st24" d="M40.7,40h7.8c7.1,0,11.3,4.1,11.3,9.9V50c0,5.8-4.2,10.1-11.4,10.1h-7.6L40.7,40L40.7,40z M46.2,44.9v10.2
			h2.3c3.3,0,5.5-1.8,5.5-5.1V50c0-3.2-2.2-5.1-5.5-5.1C48.5,44.9,46.2,44.9,46.2,44.9z"/>
		<path class="st24" d="M62.6,40h16v4.9H68.1v3.4h9.5v4.6h-9.5V60h-5.5C62.6,60,62.6,40,62.6,40z"/>
	</g>
</g>
<g id="_x34__1_" class="st0">
	<g class="st1">
		<path class="st19" d="M86.4,35.4c-0.8-1.6-1.7-2.8-2.8-3.8L65.4,16.1c-1.1-0.9-2.6-1.7-4.4-2.4c-1.9-0.7-3.6-1-5.1-1H18.5
			c-1.6,0-2.9,0.5-4,1.4s-1.6,2-1.6,3.4v66.8c0,1.3,0.5,2.4,1.6,3.4s2.4,1.4,4,1.4H82c1.6,0,2.9-0.5,4-1.4c1.1-0.9,1.6-2.1,1.6-3.4
			V39.8C87.6,38.4,87.2,37,86.4,35.4z M57.7,19.5c1.1,0.3,1.9,0.7,2.4,1.1l18.3,15.6c0.5,0.4,0.9,1.1,1.3,2H57.7V19.5z M80.1,82.7
			H20.4V19.1h29.9v20.7c0,1.3,0.5,2.5,1.6,3.4s2.4,1.4,4,1.4h24.3C80.1,44.5,80.1,82.7,80.1,82.7z"/>
	</g>
	<line class="st3" x1="32.6" y1="52.5" x2="69.5" y2="52.5"/>
	<line class="st3" x1="32.6" y1="62.2" x2="69.5" y2="62.2"/>
	<line class="st3" x1="32.6" y1="71.8" x2="69.5" y2="71.8"/>
</g>
<g id="_x34__Light" class="st0">
	<g class="st1">
		<path class="st25" d="M86.4,35.4c-0.8-1.6-1.7-2.8-2.8-3.8L65.4,16.1c-1.1-0.9-2.6-1.7-4.4-2.4c-1.9-0.7-3.6-1-5.1-1H18.5
			c-1.6,0-2.9,0.5-4,1.4s-1.6,2-1.6,3.4v66.8c0,1.3,0.5,2.4,1.6,3.4s2.4,1.4,4,1.4H82c1.6,0,2.9-0.5,4-1.4c1.1-0.9,1.6-2.1,1.6-3.4
			V39.8C87.6,38.4,87.2,37,86.4,35.4z M57.7,19.5c1.1,0.3,1.9,0.7,2.4,1.1l18.3,15.6c0.5,0.4,0.9,1.1,1.3,2H57.7V19.5z M80.1,82.7
			H20.4V19.1h29.9v20.7c0,1.3,0.5,2.5,1.6,3.4s2.4,1.4,4,1.4h24.3C80.1,44.5,80.1,82.7,80.1,82.7z"/>
	</g>
	<line class="st26" x1="32.6" y1="52.5" x2="69.5" y2="52.5"/>
	<line class="st26" x1="32.6" y1="62.2" x2="69.5" y2="62.2"/>
	<line class="st26" x1="32.6" y1="71.8" x2="69.5" y2="71.8"/>
</g>
<g id="_x36_" class="st0">
	<g class="st1">
		<path class="st2" d="M85.7,80.1c2.5,2.1,2.5,5.4,0,7.5s-6.5,2.1-9,0L37.5,55.1c-1.2-1-1.9-2.4-1.9-3.7s0.6-2.7,1.9-3.7l39.2-32.4
			c2.5-2.1,6.5-2.1,9,0c2.5,2.1,2.5,5.4,0,7.5L51,51.4L85.7,80.1z M26.2,12.7H14.8c-0.7,0-1.2,0.4-1.2,1v72.7c0,0.6,0.6,1,1.2,1
			h11.4c0.7,0,1.2-0.4,1.2-1V13.7C27.4,13.2,26.9,12.7,26.2,12.7z"/>
	</g>
</g>
<g id="_x36__Light" class="st0">
	<g class="st1">
		<path class="st27" d="M85.7,80.1c2.5,2.1,2.5,5.4,0,7.5s-6.5,2.1-9,0L37.5,55.1c-1.2-1-1.9-2.4-1.9-3.7s0.6-2.7,1.9-3.7l39.2-32.4
			c2.5-2.1,6.5-2.1,9,0c2.5,2.1,2.5,5.4,0,7.5L51,51.4L85.7,80.1z M26.2,12.7H14.8c-0.7,0-1.2,0.4-1.2,1v72.7c0,0.6,0.6,1,1.2,1
			h11.4c0.7,0,1.2-0.4,1.2-1V13.7C27.4,13.2,26.9,12.7,26.2,12.7z"/>
	</g>
</g>
<g id="_x39_" class="st0">
	<g class="st1">
		<path class="st2" d="M15.5,21.7c-2.5-2.1-2.5-5.4,0-7.5s6.5-2.1,9,0l39.2,32.4c1.2,1,1.9,2.4,1.9,3.7s-0.6,2.7-1.9,3.7L24.5,86.5
			c-2.5,2.1-6.5,2.1-9,0s-2.5-5.4,0-7.5l34.7-28.7L15.5,21.7z M74.9,89.1h11.4c0.7,0,1.2-0.4,1.2-1V15.3c0-0.6-0.6-1-1.2-1H74.9
			c-0.7,0-1.2,0.4-1.2,1V88C73.7,88.6,74.3,89.1,74.9,89.1z"/>
	</g>
</g>
<g id="_x39__Light" class="st0">
	<g class="st1">
		<path class="st27" d="M15.5,21.7c-2.5-2.1-2.5-5.4,0-7.5s6.5-2.1,9,0l39.2,32.4c1.2,1,1.9,2.4,1.9,3.7s-0.6,2.7-1.9,3.7L24.5,86.5
			c-2.5,2.1-6.5,2.1-9,0s-2.5-5.4,0-7.5l34.7-28.7L15.5,21.7z M74.9,89.1h11.4c0.7,0,1.2-0.4,1.2-1V15.3c0-0.6-0.6-1-1.2-1H74.9
			c-0.7,0-1.2,0.4-1.2,1V88C73.7,88.6,74.3,89.1,74.9,89.1z"/>
	</g>
</g>
<g id="_x38_" class="st0">
	<path class="st14" d="M83.7,47.2L44.5,14.8c-2.5-2.1-6.5-2.1-9,0s-2.5,5.4,0,7.5l27.7,22.9H6.4c-3.2,0-5.9,2.6-5.9,5.9
		s2.6,5.9,5.9,5.9h56.5L35.5,79.5c-2.5,2.1-2.5,5.4,0,7.5s6.5,2.1,9,0l39.2-32.4c1.2-1,1.9-2.4,1.9-3.7S84.9,48.2,83.7,47.2z"/>
</g>
<g id="_x38__light" class="st0">
	<path class="st28" d="M83.7,47.2L44.5,14.8c-2.5-2.1-6.5-2.1-9,0s-2.5,5.4,0,7.5l27.7,22.9H21.4c-3.2,0-5.9,2.6-5.9,5.9
		s2.6,5.9,5.9,5.9h41.5L35.5,79.5c-2.5,2.1-2.5,5.4,0,7.5s6.5,2.1,9,0l39.2-32.4c1.2-1,1.9-2.4,1.9-3.7S84.9,48.2,83.7,47.2z"/>
</g>
<g id="_x37_" class="st0">
	<path class="st14" d="M17.4,54.6L56.5,87c2.5,2.1,6.5,2.1,9,0s2.5-5.4,0-7.5L37.9,56.7h55.7c3.2,0,5.9-2.6,5.9-5.9
		s-2.6-5.9-5.9-5.9H38.2l27.4-22.6c2.5-2.1,2.5-5.4,0-7.5c-2.5-2.1-6.5-2.1-9,0L17.4,47.2c-1.2,1-1.9,2.4-1.9,3.7
		C15.5,52.2,16.1,53.6,17.4,54.6z"/>
</g>
<g id="_x37__light" class="st0">
	<path class="st28" d="M17.4,54.6L56.5,87c2.5,2.1,6.5,2.1,9,0s2.5-5.4,0-7.5L37.9,56.7h41.7c3.2,0,5.9-2.6,5.9-5.9
		s-2.6-5.9-5.9-5.9H38.2l27.4-22.6c2.5-2.1,2.5-5.4,0-7.5c-2.5-2.1-6.5-2.1-9,0L17.4,47.2c-1.2,1-1.9,2.4-1.9,3.7
		C15.5,52.2,16.1,53.6,17.4,54.6z"/>
</g>
<g id="_x31_2_1_" class="st0">
	<circle class="st3" cx="50" cy="50.3" r="37.5"/>
	<line class="st29" x1="68.5" y1="50" x2="31.5" y2="50"/>
</g>
<g id="_x31_2_Light" class="st0">
	<circle class="st28" cx="50" cy="50.3" r="37.5"/>
	<line class="st26" x1="68.5" y1="50" x2="31.5" y2="50"/>
</g>
<g id="_x31_3" class="st0">
	<circle class="st3" cx="50" cy="50.3" r="37.5"/>
	<g class="st1">
		<line class="st2" x1="50" y1="31.5" x2="50" y2="68.5"/>
		<line class="st2" x1="68.5" y1="50" x2="31.5" y2="50"/>
	</g>
</g>
<g id="_x31_3_light" class="st0">
	<circle class="st28" cx="50" cy="50.3" r="37.5"/>
	<g class="st1">
		<line class="st30" x1="50" y1="31.5" x2="50" y2="68.5"/>
		<line class="st30" x1="68.5" y1="50" x2="31.5" y2="50"/>
	</g>
</g>
<path class="st31" d="M72.5,93.8H27.6c-8.3,0-15.1-8-15.1-17.8V25.1c0-9.9,6.8-17.8,15.1-17.8h44.9c8.3,0,15.1,8,15.1,17.8v50.8
	C87.6,85.8,80.8,93.8,72.5,93.8z"/>
<path class="st32" d="M58.8,45.1H41.3c-0.8,0-1.2,0.8-0.7,1.2l8.8,8.3c0.4,0.3,1,0.3,1.4,0l8.8-8.3C60,45.9,59.5,45.1,58.8,45.1z"/>
<g id="_x31_5" class="st0">
	<g class="st1">
		<g>
			<path class="st19" d="M84.1,12.2H25.2c-2,0-3.7,1.7-3.7,3.7v6.6h-3.2c-2.2,0-4.1,1.8-4.1,4s1.8,4,4.1,4h3.2v8.2h-3.2
				c-2.2,0-4.1,1.8-4.1,4s1.8,4,4.1,4h3.2v8.2h-3.2c-2.2,0-4.1,1.8-4.1,4c0,0.6,0.5,1.1,1.1,1.1s1.1-0.5,1.1-1.1
				c0-1,0.8-1.8,1.8-1.8H27c1,0,1.8,0.8,1.8,1.8S28,60.9,27,60.9h-8.2c-0.6,0-1.1,0.5-1.1,1.1s0.5,1.1,1.1,1.1h2.7v8.2h-3.2
				c-2.2,0-4.1,1.8-4.1,4.1s1.8,4.1,4.1,4.1h3.2v6.6c0,2.1,1.7,3.7,3.7,3.7h58.9c2.1,0,3.7-1.7,3.7-3.7V15.9
				C87.8,13.9,86.1,12.2,84.1,12.2z M18.2,28.4c-1,0-1.8-0.8-1.8-1.8c0-1,0.8-1.8,1.8-1.8H27c1,0,1.8,0.8,1.8,1.8
				c0,1-0.8,1.8-1.8,1.8H18.2z M18.2,44.7c-1,0-1.8-0.8-1.8-1.8s0.8-1.8,1.8-1.8H27c1,0,1.8,0.8,1.8,1.8S28,44.7,27,44.7H18.2z
				 M18.2,77.2c-1,0-1.8-0.8-1.8-1.8c0-1,0.8-1.8,1.8-1.8H27c1,0,1.8,0.8,1.8,1.8c0,1-0.8,1.8-1.8,1.8H18.2z M75.8,86.1
				c0,0.8-0.7,1.4-1.4,1.4H37.2h-12c-0.8,0-1.5-0.7-1.5-1.4v-6.6H27c2.2,0,4-1.8,4-4.1s-1.8-4.1-4-4.1h-3.2v-8.2H27c2.2,0,4-1.8,4-4
				s-1.8-4-4-4h-3.2v-8.2H27c2.2,0,4-1.8,4-4s-1.8-4-4-4h-3.2v-8.2H27c2.2,0,4-1.8,4-4s-1.8-4-4-4h-3.2v-6.6c0-0.8,0.6-1.4,1.5-1.4
				h27.4h21.7c0.8,0,1.4,0.6,1.4,1.4C75.8,15.9,75.8,86.1,75.8,86.1z M85.5,86.1c0,0.8-0.7,1.4-1.4,1.4h-6.3
				c0.2-0.4,0.3-0.9,0.3-1.4v-2.9h6c0.5,0,1-0.1,1.4-0.3C85.5,82.9,85.5,86.1,85.5,86.1z M85.5,79.5c0,0.8-0.7,1.4-1.4,1.4h-6V62.6
				h3.7c0.6,0,1.1-0.5,1.1-1.1s-0.5-1.1-1.1-1.1h-3.7V42h7.4V79.5z M85.5,39.7h-7.4V21.3h6c0.8,0,1.4,0.6,1.4,1.5V39.7z M85.5,19.3
				c-0.4-0.2-0.9-0.3-1.4-0.3h-6v-3.1c0-0.5-0.1-1-0.3-1.4h6.3c0.8,0,1.4,0.6,1.4,1.4C85.5,15.9,85.5,19.3,85.5,19.3z"/>
		</g>
	</g>
	<path class="st3" d="M48.8,12.8v21.8c0,0.9,1,1.4,1.7,1l1.4-0.9c0.4-0.2,0.8-0.2,1.2,0l1.4,0.9c0.7,0.5,1.7-0.1,1.7-1V12.8"/>
	<g class="st1">
		<path class="st19" d="M32.2,39.7c0-0.5,0.4-0.9,0.9-0.9H36c1,0,1.7,0.3,2.2,0.7c0.4,0.4,0.6,0.8,0.6,1.4v0c0,0.9-0.5,1.5-1.1,1.8
			c1,0.4,1.6,0.9,1.6,2v0c0,1.5-1.2,2.3-3.1,2.3h-3c-0.5,0-0.9-0.4-0.9-0.9C32.2,46.2,32.2,39.7,32.2,39.7z M35.6,42.1
			c0.8,0,1.3-0.3,1.3-0.9v0c0-0.5-0.4-0.8-1.2-0.8h-1.8v1.8L35.6,42.1L35.6,42.1z M36.1,45.5c0.8,0,1.3-0.3,1.3-0.9v0
			c0-0.6-0.4-0.9-1.3-0.9h-2.1v1.8L36.1,45.5L36.1,45.5z"/>
		<path class="st19" d="M40.3,42.9L40.3,42.9c0-2.4,1.9-4.3,4.4-4.3c2.6,0,4.4,1.9,4.4,4.3v0c0,2.4-1.9,4.3-4.4,4.3
			C42.2,47.2,40.3,45.3,40.3,42.9z M47.3,42.9L47.3,42.9c0-1.4-1-2.6-2.5-2.6c-1.5,0-2.5,1.2-2.5,2.6v0c0,1.4,1,2.6,2.5,2.6
			C46.2,45.5,47.3,44.4,47.3,42.9z"/>
		<path class="st19" d="M50.5,42.9L50.5,42.9c0-2.4,1.9-4.3,4.4-4.3c2.6,0,4.4,1.9,4.4,4.3v0c0,2.4-1.9,4.3-4.4,4.3
			C52.3,47.2,50.5,45.3,50.5,42.9z M57.4,42.9L57.4,42.9c0-1.4-1-2.6-2.5-2.6c-1.5,0-2.5,1.2-2.5,2.6v0c0,1.4,1,2.6,2.5,2.6
			C56.3,45.5,57.4,44.4,57.4,42.9z"/>
		<path class="st19" d="M60.9,39.6c0-0.5,0.4-0.9,0.9-0.9s0.9,0.4,0.9,0.9v2.8l3.4-3.3c0.2-0.2,0.4-0.4,0.8-0.4
			c0.5,0,0.8,0.4,0.8,0.8c0,0.3-0.1,0.5-0.3,0.7L65,42.4l2.6,3.2c0.1,0.2,0.2,0.4,0.2,0.6c0,0.5-0.4,0.9-0.9,0.9
			c-0.4,0-0.6-0.2-0.8-0.4l-2.4-3.1l-1,1v1.7c0,0.5-0.4,0.9-0.9,0.9s-0.9-0.4-0.9-0.9V39.6z"/>
		<path class="st19" d="M32.2,53.9c0-0.5,0.4-0.9,0.9-0.9h0.2c0.4,0,0.7,0.2,0.8,0.5l2.2,3.6l2.2-3.6c0.2-0.3,0.5-0.5,0.8-0.5h0.2
			c0.5,0,0.9,0.4,0.9,0.9v6.6c0,0.5-0.4,0.9-0.9,0.9c-0.5,0-0.9-0.4-0.9-0.9v-4.1L37,58.8c-0.2,0.3-0.4,0.5-0.8,0.5
			c-0.3,0-0.6-0.2-0.8-0.5l-1.6-2.4v4.1c0,0.5-0.4,0.9-0.9,0.9s-0.9-0.4-0.9-0.9V53.9z"/>
		<path class="st19" d="M42,60.1l2.9-6.5c0.2-0.5,0.6-0.7,1.1-0.7h0.1c0.5,0,0.8,0.3,1.1,0.7l2.9,6.5c0.1,0.1,0.1,0.2,0.1,0.4
			c0,0.5-0.4,0.9-0.9,0.9c-0.4,0-0.7-0.2-0.9-0.6l-0.6-1.3h-3.7l-0.6,1.4c-0.2,0.4-0.5,0.6-0.8,0.6c-0.5,0-0.8-0.4-0.8-0.9
			C41.9,60.4,41.9,60.3,42,60.1z M47.1,57.8L46,55.1l-1.2,2.7H47.1z"/>
		<path class="st19" d="M51.5,53.9c0-0.5,0.4-0.9,0.9-0.9h2.9c1.1,0,1.9,0.3,2.4,0.8c0.5,0.5,0.7,1.1,0.7,1.9v0
			c0,1.3-0.7,2.1-1.7,2.5l1.3,1.5c0.2,0.2,0.3,0.4,0.3,0.7c0,0.5-0.4,0.8-0.9,0.8c-0.4,0-0.7-0.2-0.9-0.5l-1.8-2.2h-1.5v1.8
			c0,0.5-0.4,0.9-0.9,0.9s-0.9-0.4-0.9-0.9C51.5,60.5,51.5,53.9,51.5,53.9z M55.2,57c0.9,0,1.4-0.5,1.4-1.2v0c0-0.8-0.5-1.2-1.4-1.2
			h-1.8V57H55.2z"/>
		<path class="st19" d="M60.1,53.8c0-0.5,0.4-0.9,0.9-0.9s0.9,0.4,0.9,0.9v2.8l3.4-3.3c0.2-0.2,0.4-0.4,0.8-0.4
			c0.5,0,0.8,0.4,0.8,0.8c0,0.3-0.1,0.5-0.3,0.7l-2.3,2.2l2.6,3.2c0.1,0.2,0.2,0.4,0.2,0.6c0,0.5-0.4,0.9-0.9,0.9
			c-0.4,0-0.6-0.2-0.8-0.4L63,57.8l-1,1v1.7c0,0.5-0.4,0.9-0.9,0.9s-0.9-0.4-0.9-0.9C60.1,60.5,60.1,53.8,60.1,53.8z"/>
	</g>
</g>
<g id="_x31_5_light" class="st0">
	<g class="st1">
		<g>
			<path class="st33" d="M84.1,12.2H25.2c-2,0-3.7,1.7-3.7,3.7v6.6h-3.2c-2.2,0-4.1,1.8-4.1,4s1.8,4,4.1,4h3.2v8.2h-3.2
				c-2.2,0-4.1,1.8-4.1,4s1.8,4,4.1,4h3.2v8.2h-3.2c-2.2,0-4.1,1.8-4.1,4c0,0.6,0.5,1.1,1.1,1.1s1.1-0.5,1.1-1.1
				c0-1,0.8-1.8,1.8-1.8H27c1,0,1.8,0.8,1.8,1.8S28,60.9,27,60.9h-8.2c-0.6,0-1.1,0.5-1.1,1.1s0.5,1.1,1.1,1.1h2.7v8.2h-3.2
				c-2.2,0-4.1,1.8-4.1,4.1s1.8,4.1,4.1,4.1h3.2v6.6c0,2.1,1.7,3.7,3.7,3.7h58.9c2.1,0,3.7-1.7,3.7-3.7V16
				C87.8,13.9,86.1,12.2,84.1,12.2z M18.2,28.4c-1,0-1.8-0.8-1.8-1.8s0.8-1.8,1.8-1.8H27c1,0,1.8,0.8,1.8,1.8s-0.8,1.8-1.8,1.8H18.2
				z M18.2,44.7c-1,0-1.8-0.8-1.8-1.8s0.8-1.8,1.8-1.8H27c1,0,1.8,0.8,1.8,1.8s-0.8,1.8-1.8,1.8H18.2z M18.2,77.2
				c-1,0-1.8-0.8-1.8-1.8c0-1,0.8-1.8,1.8-1.8H27c1,0,1.8,0.8,1.8,1.8c0,1-0.8,1.8-1.8,1.8H18.2z M75.8,86.1c0,0.8-0.7,1.4-1.4,1.4
				H37.2h-12c-0.8,0-1.5-0.7-1.5-1.4v-6.6H27c2.2,0,4-1.8,4-4.1s-1.8-4.1-4-4.1h-3.2v-8.2H27c2.2,0,4-1.8,4-4s-1.8-4-4-4h-3.2v-8.2
				H27c2.2,0,4-1.8,4-4s-1.8-4-4-4h-3.2v-8.2H27c2.2,0,4-1.8,4-4s-1.8-4-4-4h-3.2V16c0-0.8,0.6-1.4,1.5-1.4h27.4h21.7
				c0.8,0,1.4,0.6,1.4,1.4V86.1z M85.5,86.1c0,0.8-0.7,1.4-1.4,1.4h-6.3c0.2-0.4,0.3-0.9,0.3-1.4v-2.9h6c0.5,0,1-0.1,1.4-0.3
				C85.5,82.9,85.5,86.1,85.5,86.1z M85.5,79.5c0,0.8-0.7,1.4-1.4,1.4h-6V62.6h3.7c0.6,0,1.1-0.5,1.1-1.1s-0.5-1.1-1.1-1.1h-3.7V42
				h7.4V79.5z M85.5,39.7h-7.4V21.4h6c0.8,0,1.4,0.6,1.4,1.5V39.7z M85.5,19.4c-0.4-0.2-0.9-0.3-1.4-0.3h-6V16c0-0.5-0.1-1-0.3-1.4
				h6.3c0.8,0,1.4,0.6,1.4,1.4C85.5,16,85.5,19.4,85.5,19.4z"/>
		</g>
	</g>
	<g class="st1">
		<path class="st34" d="M32.2,39.7c0-0.5,0.4-0.9,0.9-0.9H36c1,0,1.7,0.3,2.2,0.7c0.4,0.4,0.6,0.8,0.6,1.4v0c0,0.9-0.5,1.5-1.1,1.8
			c1,0.4,1.6,0.9,1.6,2v0c0,1.5-1.2,2.3-3.1,2.3h-3c-0.5,0-0.9-0.4-0.9-0.9C32.2,46.2,32.2,39.7,32.2,39.7z M35.6,42.1
			c0.8,0,1.3-0.3,1.3-0.9v0c0-0.5-0.4-0.8-1.2-0.8h-1.8v1.8L35.6,42.1L35.6,42.1z M36.1,45.5c0.8,0,1.3-0.3,1.3-0.9v0
			c0-0.6-0.4-0.9-1.3-0.9h-2.1v1.8L36.1,45.5L36.1,45.5z"/>
		<path class="st34" d="M40.3,42.9L40.3,42.9c0-2.4,1.9-4.3,4.4-4.3c2.6,0,4.4,1.9,4.4,4.3v0c0,2.4-1.9,4.3-4.4,4.3
			C42.2,47.2,40.3,45.3,40.3,42.9z M47.3,42.9L47.3,42.9c0-1.4-1-2.6-2.5-2.6c-1.5,0-2.5,1.2-2.5,2.6v0c0,1.4,1,2.6,2.5,2.6
			C46.2,45.5,47.3,44.4,47.3,42.9z"/>
		<path class="st34" d="M50.5,42.9L50.5,42.9c0-2.4,1.9-4.3,4.4-4.3c2.6,0,4.4,1.9,4.4,4.3v0c0,2.4-1.9,4.3-4.4,4.3
			C52.3,47.2,50.5,45.3,50.5,42.9z M57.4,42.9L57.4,42.9c0-1.4-1-2.6-2.5-2.6c-1.5,0-2.5,1.2-2.5,2.6v0c0,1.4,1,2.6,2.5,2.6
			C56.3,45.5,57.4,44.4,57.4,42.9z"/>
		<path class="st34" d="M60.9,39.6c0-0.5,0.4-0.9,0.9-0.9s0.9,0.4,0.9,0.9v2.8l3.4-3.3c0.2-0.2,0.4-0.4,0.8-0.4
			c0.5,0,0.8,0.4,0.8,0.8c0,0.3-0.1,0.5-0.3,0.7L65,42.4l2.6,3.2c0.1,0.2,0.2,0.4,0.2,0.6c0,0.5-0.4,0.9-0.9,0.9
			c-0.4,0-0.6-0.2-0.8-0.4l-2.4-3.1l-1,1v1.7c0,0.5-0.4,0.9-0.9,0.9s-0.9-0.4-0.9-0.9V39.6z"/>
		<path class="st34" d="M32.2,53.9c0-0.5,0.4-0.9,0.9-0.9h0.2c0.4,0,0.7,0.2,0.8,0.5l2.2,3.6l2.2-3.6c0.2-0.3,0.5-0.5,0.8-0.5h0.2
			c0.5,0,0.9,0.4,0.9,0.9v6.6c0,0.5-0.4,0.9-0.9,0.9c-0.5,0-0.9-0.4-0.9-0.9v-4.1L37,58.8c-0.2,0.3-0.4,0.5-0.8,0.5
			c-0.3,0-0.6-0.2-0.8-0.5l-1.6-2.4v4.1c0,0.5-0.4,0.9-0.9,0.9s-0.9-0.4-0.9-0.9V53.9z"/>
		<path class="st34" d="M42,60.1l2.9-6.5c0.2-0.5,0.6-0.7,1.1-0.7h0.1c0.5,0,0.8,0.3,1.1,0.7l2.9,6.5c0.1,0.1,0.1,0.2,0.1,0.4
			c0,0.5-0.4,0.9-0.9,0.9c-0.4,0-0.7-0.2-0.9-0.6l-0.6-1.3h-3.7l-0.6,1.4c-0.2,0.4-0.5,0.6-0.8,0.6c-0.5,0-0.8-0.4-0.8-0.9
			C41.9,60.4,41.9,60.3,42,60.1z M47.1,57.8L46,55.1l-1.2,2.7H47.1z"/>
		<path class="st34" d="M51.5,53.9c0-0.5,0.4-0.9,0.9-0.9h2.9c1.1,0,1.9,0.3,2.4,0.8c0.5,0.5,0.7,1.1,0.7,1.9v0
			c0,1.3-0.7,2.1-1.7,2.5l1.3,1.5c0.2,0.2,0.3,0.4,0.3,0.7c0,0.5-0.4,0.8-0.9,0.8c-0.4,0-0.7-0.2-0.9-0.5l-1.8-2.2h-1.5v1.8
			c0,0.5-0.4,0.9-0.9,0.9s-0.9-0.4-0.9-0.9C51.5,60.5,51.5,53.9,51.5,53.9z M55.2,57c0.9,0,1.4-0.5,1.4-1.2v0c0-0.8-0.5-1.2-1.4-1.2
			h-1.8V57H55.2z"/>
		<path class="st34" d="M60.1,53.8c0-0.5,0.4-0.9,0.9-0.9s0.9,0.4,0.9,0.9v2.8l3.4-3.3c0.2-0.2,0.4-0.4,0.8-0.4
			c0.5,0,0.8,0.4,0.8,0.8c0,0.3-0.1,0.5-0.3,0.7l-2.3,2.2l2.6,3.2c0.1,0.2,0.2,0.4,0.2,0.6c0,0.5-0.4,0.9-0.9,0.9
			c-0.4,0-0.6-0.2-0.8-0.4L63,57.8l-1,1v1.7c0,0.5-0.4,0.9-0.9,0.9s-0.9-0.4-0.9-0.9C60.1,60.5,60.1,53.8,60.1,53.8z"/>
	</g>
	<path class="st28" d="M48.8,12.8v21.8c0,0.9,1,1.4,1.7,1l1.4-0.9c0.4-0.2,0.8-0.2,1.2,0l1.4,0.9c0.7,0.5,1.7-0.1,1.7-1V12.8"/>
</g>
<g id="_x31_6" class="st0">
	<g class="st1">
		<g id="Search">
			<path class="st35" d="M70.2,69.1l-7.8-10.9c0-0.1-0.1-0.1-0.1-0.2c2.3-2.5,3.9-5.6,4.5-9.2c1.6-9.8-5-18.9-14.8-20.5
				s-18.9,5-20.5,14.8c-1.6,9.8,5,18.9,14.8,20.5c3.6,0.6,7.1,0.1,10.2-1.3c0,0.1,0.1,0.1,0.1,0.2l7.8,10.9c1.2,1.6,3.4,2,5.1,0.8
				C71,72.9,71.4,70.7,70.2,69.1z M47.2,57.5c-6.4-1-10.7-7-9.6-13.4s7-10.7,13.4-9.6s10.7,7,9.6,13.4S53.6,58.5,47.2,57.5z"/>
		</g>
		<g>
			<g>
				<path class="st19" d="M83.1,12.1H24.2c-2,0-3.7,1.7-3.7,3.7v6.6h-3.2c-2.2,0-4.1,1.8-4.1,4s1.8,4,4.1,4h3.2v8.2h-3.2
					c-2.2,0-4.1,1.8-4.1,4s1.8,4,4.1,4h3.2V55h-3.2c-2.2,0-4.1,1.8-4.1,4c0,0.6,0.5,1.1,1.1,1.1s1.1-0.5,1.1-1.1
					c0-1,0.8-1.8,1.8-1.8H26c1,0,1.8,0.8,1.8,1.8S27,60.8,26,60.8h-8.2c-0.6,0-1.1,0.5-1.1,1.1s0.5,1.1,1.1,1.1h2.7v8.2h-3.2
					c-2.2,0-4.1,1.8-4.1,4.1s1.8,4.1,4.1,4.1h3.2V86c0,2.1,1.7,3.7,3.7,3.7h58.9c2.1,0,3.7-1.7,3.7-3.7V15.8
					C86.8,13.8,85.1,12.1,83.1,12.1z M17.2,28.3c-1,0-1.8-0.8-1.8-1.8c0-1,0.8-1.8,1.8-1.8H26c1,0,1.8,0.8,1.8,1.8
					c0,1-0.8,1.8-1.8,1.8H17.2z M17.2,44.5c-1,0-1.8-0.8-1.8-1.8s0.8-1.8,1.8-1.8H26c1,0,1.8,0.8,1.8,1.8S27,44.5,26,44.5H17.2z
					 M17.2,77c-1,0-1.8-0.8-1.8-1.8c0-1,0.8-1.8,1.8-1.8H26c1,0,1.8,0.8,1.8,1.8c0,1-0.8,1.8-1.8,1.8H17.2z M74.8,85.9
					c0,0.8-0.7,1.4-1.4,1.4H36.2h-12c-0.8,0-1.5-0.7-1.5-1.4v-6.6H26c2.2,0,4-1.8,4-4.1s-1.8-4.1-4-4.1h-3.2V63H26c2.2,0,4-1.8,4-4
					s-1.8-4-4-4h-3.2v-8.2H26c2.2,0,4-1.8,4-4s-1.8-4-4-4h-3.2v-8.2H26c2.2,0,4-1.8,4-4s-1.8-4-4-4h-3.2v-6.6c0-0.8,0.6-1.4,1.5-1.4
					h27.4h21.7c0.8,0,1.4,0.6,1.4,1.4C74.8,15.8,74.8,85.9,74.8,85.9z M84.5,85.9c0,0.8-0.7,1.4-1.4,1.4h-6.3
					c0.2-0.4,0.3-0.9,0.3-1.4v-2.9h6c0.5,0,1-0.1,1.4-0.3C84.5,82.8,84.5,85.9,84.5,85.9z M84.5,79.4c0,0.8-0.7,1.4-1.4,1.4h-6V62.5
					h3.7c0.6,0,1.1-0.5,1.1-1.1s-0.5-1.1-1.1-1.1h-3.7V41.8h7.4V79.4z M84.5,39.6h-7.4V21.2h6c0.8,0,1.4,0.6,1.4,1.5V39.6z
					 M84.5,19.2c-0.4-0.2-0.9-0.3-1.4-0.3h-6v-3.1c0-0.5-0.1-1-0.3-1.4h6.3c0.8,0,1.4,0.6,1.4,1.4C84.5,15.8,84.5,19.2,84.5,19.2z"
					/>
			</g>
		</g>
		<g>
			<path class="st19" d="M47.9,48c-0.7-0.1-1.2-0.8-1.2-1.5l0-1.8c0-0.9,0.6-1.4,1.4-1.3c2.2,0.1,3.4-0.4,3.6-1.7l0,0
				c0.2-1.1-0.5-2-2-2.2c-1.1-0.2-2.1,0-3.1,0.5c-0.3,0.2-0.8,0.3-1.2,0.2c-1-0.2-1.6-1.1-1.5-2.1c0.1-0.5,0.4-1,0.9-1.3
				c1.5-0.9,3.4-1.3,5.6-0.9c3.7,0.6,5.8,2.9,5.2,6.3l0,0c-0.5,3.2-3,4.2-5.9,4.2L49.7,47c-0.2,0.6-0.8,1.1-1.6,1L47.9,48z
				 M47.7,49.7c1.3,0.2,2,1.3,1.8,2.5l0,0c-0.2,1.2-1.3,2-2.6,1.8s-2-1.3-1.8-2.5l0,0C45.3,50.2,46.4,49.5,47.7,49.7z"/>
		</g>
	</g>
</g>
<g id="_x31_6_Light" class="st0">
	<g class="st1">
		<g id="Search_2_">
			<path class="st36" d="M70.2,69.1l-7.8-10.9c0-0.1-0.1-0.1-0.1-0.2c2.3-2.5,3.9-5.6,4.5-9.2c1.6-9.8-5-18.9-14.8-20.5
				s-18.9,5-20.5,14.8c-1.6,9.8,5,18.9,14.8,20.5c3.6,0.6,7.1,0.1,10.2-1.3c0,0.1,0.1,0.1,0.1,0.2l7.8,10.9c1.2,1.6,3.4,2,5.1,0.8
				C71,72.9,71.4,70.7,70.2,69.1z M47.2,57.5c-6.4-1-10.7-7-9.6-13.4s7-10.7,13.4-9.6s10.7,7,9.6,13.4S53.6,58.5,47.2,57.5z"/>
		</g>
		<g>
			<g>
				<path class="st25" d="M83.1,12.1H24.2c-2,0-3.7,1.7-3.7,3.7v6.6h-3.2c-2.2,0-4.1,1.8-4.1,4s1.8,4,4.1,4h3.2v8.2h-3.2
					c-2.2,0-4.1,1.8-4.1,4s1.8,4,4.1,4h3.2V55h-3.2c-2.2,0-4.1,1.8-4.1,4c0,0.6,0.5,1.1,1.1,1.1s1.1-0.5,1.1-1.1
					c0-1,0.8-1.8,1.8-1.8H26c1,0,1.8,0.8,1.8,1.8S27,60.8,26,60.8h-8.2c-0.6,0-1.1,0.5-1.1,1.1s0.5,1.1,1.1,1.1h2.7v8.2h-3.2
					c-2.2,0-4.1,1.8-4.1,4.1s1.8,4.1,4.1,4.1h3.2V86c0,2.1,1.7,3.7,3.7,3.7h58.9c2.1,0,3.7-1.7,3.7-3.7V15.8
					C86.8,13.8,85.1,12.1,83.1,12.1z M17.2,28.3c-1,0-1.8-0.8-1.8-1.8c0-1,0.8-1.8,1.8-1.8H26c1,0,1.8,0.8,1.8,1.8
					c0,1-0.8,1.8-1.8,1.8H17.2z M17.2,44.5c-1,0-1.8-0.8-1.8-1.8s0.8-1.8,1.8-1.8H26c1,0,1.8,0.8,1.8,1.8S27,44.5,26,44.5H17.2z
					 M17.2,77c-1,0-1.8-0.8-1.8-1.8c0-1,0.8-1.8,1.8-1.8H26c1,0,1.8,0.8,1.8,1.8c0,1-0.8,1.8-1.8,1.8H17.2z M74.8,85.9
					c0,0.8-0.7,1.4-1.4,1.4H36.2h-12c-0.8,0-1.5-0.7-1.5-1.4v-6.6H26c2.2,0,4-1.8,4-4.1s-1.8-4.1-4-4.1h-3.2V63H26c2.2,0,4-1.8,4-4
					s-1.8-4-4-4h-3.2v-8.2H26c2.2,0,4-1.8,4-4s-1.8-4-4-4h-3.2v-8.2H26c2.2,0,4-1.8,4-4s-1.8-4-4-4h-3.2v-6.6c0-0.8,0.6-1.4,1.5-1.4
					h27.4h21.7c0.8,0,1.4,0.6,1.4,1.4C74.8,15.8,74.8,85.9,74.8,85.9z M84.5,85.9c0,0.8-0.7,1.4-1.4,1.4h-6.3
					c0.2-0.4,0.3-0.9,0.3-1.4v-2.9h6c0.5,0,1-0.1,1.4-0.3C84.5,82.8,84.5,85.9,84.5,85.9z M84.5,79.4c0,0.8-0.7,1.4-1.4,1.4h-6V62.5
					h3.7c0.6,0,1.1-0.5,1.1-1.1s-0.5-1.1-1.1-1.1h-3.7V41.8h7.4V79.4z M84.5,39.6h-7.4V21.2h6c0.8,0,1.4,0.6,1.4,1.5V39.6z
					 M84.5,19.2c-0.4-0.2-0.9-0.3-1.4-0.3h-6v-3.1c0-0.5-0.1-1-0.3-1.4h6.3c0.8,0,1.4,0.6,1.4,1.4C84.5,15.8,84.5,19.2,84.5,19.2z"
					/>
			</g>
		</g>
		<g>
			<path class="st25" d="M47.9,48c-0.7-0.1-1.2-0.8-1.2-1.5l0-1.8c0-0.9,0.6-1.4,1.4-1.3c2.2,0.1,3.4-0.4,3.6-1.7l0,0
				c0.2-1.1-0.5-2-2-2.2c-1.1-0.2-2.1,0-3.1,0.5c-0.3,0.2-0.8,0.3-1.2,0.2c-1-0.2-1.6-1.1-1.5-2.1c0.1-0.5,0.4-1,0.9-1.3
				c1.5-0.9,3.4-1.3,5.6-0.9c3.7,0.6,5.8,2.9,5.2,6.3l0,0c-0.5,3.2-3,4.2-5.9,4.2L49.7,47c-0.2,0.6-0.8,1.1-1.6,1L47.9,48z
				 M47.7,49.7c1.3,0.2,2,1.3,1.8,2.5l0,0c-0.2,1.2-1.3,2-2.6,1.8s-2-1.3-1.8-2.5l0,0C45.3,50.2,46.4,49.5,47.7,49.7z"/>
		</g>
	</g>
</g>
<g id="_x31_7" class="st0">
	<g class="st1">
		<path class="st19" d="M30.5,68l-9.4,9.6l0-5.1c0-1.1-0.9-2-2-2s-2,0.9-2,2v10c0,0.6,0.2,1.1,0.6,1.4c0.4,0.4,0.9,0.6,1.4,0.6H29
			c1.1,0,2-0.9,2-2s-0.9-2-2-2h-5.2l9.5-9.6L30.5,68z"/>
		<path class="st19" d="M29,21.5c1.1,0,2-0.9,2-2s-0.9-2-2-2h-9.8c-0.5,0-1,0.2-1.4,0.6c-0.4,0.3-0.6,0.8-0.6,1.4v10
			c0,1.1,0.9,2,2,2s2-0.9,2-2l0-5.1l9.4,9.6l2.8-2.8l-9.5-9.6C23.9,21.5,29,21.5,29,21.5z"/>
		<path class="st19" d="M80.8,70.4c-1.1,0-2,0.9-2,2l0,5.1L69.5,68l-2.8,2.8l9.4,9.6H71c-1.1,0-2,0.9-2,2s0.9,2,2,2h9.8
			c0.6,0,1.1-0.2,1.4-0.6c0.4-0.3,0.6-0.8,0.6-1.4v-10C82.8,71.3,81.9,70.4,80.8,70.4z"/>
		<path class="st19" d="M80.8,17.5H71c-1.1,0-2,0.9-2,2c0,1.1,0.9,2,2,2h5.2l-9.5,9.6l2.8,2.8l9.4-9.6l0,5.1c0,1.1,0.9,2,2,2
			c1.1,0,2-0.9,2-2v-10c0-0.6-0.2-1.1-0.6-1.4C81.8,17.7,81.3,17.5,80.8,17.5z"/>
		<path class="st2" d="M86.2,82.6c0,2.9-2.3,5.3-5.2,5.3H19c-2.9,0-5.2-2.3-5.2-5.3V19.4c0-2.9,2.3-5.3,5.2-5.3h62.1
			c2.9,0,5.2,2.4,5.2,5.3V82.6z"/>
		<path class="st19" d="M59.1,68H40.9c-4.2,0-7.6-3.4-7.6-7.6V41.5c0-4.2,3.4-7.6,7.6-7.6h18.2c4.2,0,7.6,3.4,7.6,7.6v18.8
			C66.7,64.6,63.3,68,59.1,68z"/>
	</g>
</g>
<g id="_x31_7_light" class="st0">
	<g class="st1">
		<path class="st37" d="M30.5,68l-9.4,9.6l0-5.1c0-1.1-0.9-2-2-2s-2,0.9-2,2v10c0,0.6,0.2,1.1,0.6,1.4c0.4,0.4,0.9,0.6,1.4,0.6H29
			c1.1,0,2-0.9,2-2s-0.9-2-2-2h-5.2l9.5-9.6L30.5,68z"/>
		<path class="st37" d="M29,21.5c1.1,0,2-0.9,2-2s-0.9-2-2-2h-9.8c-0.5,0-1,0.2-1.4,0.6c-0.4,0.3-0.6,0.8-0.6,1.4v10
			c0,1.1,0.9,2,2,2s2-0.9,2-2l0-5.1l9.4,9.6l2.8-2.8l-9.5-9.6C23.9,21.5,29,21.5,29,21.5z"/>
		<path class="st37" d="M80.8,70.4c-1.1,0-2,0.9-2,2l0,5.1L69.5,68l-2.8,2.8l9.4,9.6H71c-1.1,0-2,0.9-2,2s0.9,2,2,2h9.8
			c0.6,0,1.1-0.2,1.4-0.6c0.4-0.3,0.6-0.8,0.6-1.4v-10C82.8,71.3,81.9,70.4,80.8,70.4z"/>
		<path class="st37" d="M80.8,17.5H71c-1.1,0-2,0.9-2,2c0,1.1,0.9,2,2,2h5.2l-9.5,9.6l2.8,2.8l9.4-9.6l0,5.1c0,1.1,0.9,2,2,2
			c1.1,0,2-0.9,2-2v-10c0-0.6-0.2-1.1-0.6-1.4C81.8,17.7,81.3,17.5,80.8,17.5z"/>
		<path class="st38" d="M86.2,82.6c0,2.9-2.3,5.3-5.2,5.3H19c-2.9,0-5.2-2.3-5.2-5.3V19.4c0-2.9,2.3-5.3,5.2-5.3h62.1
			c2.9,0,5.2,2.4,5.2,5.3V82.6z"/>
		<path class="st37" d="M59.1,68H40.9c-4.2,0-7.6-3.4-7.6-7.6V41.5c0-4.2,3.4-7.6,7.6-7.6h18.2c4.2,0,7.6,3.4,7.6,7.6v18.8
			C66.7,64.6,63.3,68,59.1,68z"/>
	</g>
</g>
</svg>
