<svg xmlns="http://www.w3.org/2000/svg" viewBox="0 0 265.3 82.8"><defs><style>.cls-1{fill:#ce232a;stroke:#fff;stroke-width:1.81px;}</style></defs><title>Asset 1</title><g id="Layer_2" data-name="Layer 2"><g id="Layer_1-2" data-name="Layer 1"><path class="cls-1" d="M61.5,2.3H86.9V15.6c-2.6,2.1-2.9,5.5-3.5,8.7L73.5,77.5H50.9L44.3,41.6h-.2L36.8,77.5h-22L4.8,24.4c-.6-3.1-1.2-6.8-3.9-8.7V2.3H30.2V15.6a4,4,0,0,0-2.5,4l3,23.8h.2L38.8,2.3H53.2l8.2,41h.2L64,19.7a4,4,0,0,0-2.5-4Zm48.9,20.6c0-.5-.3-5.8,4.6-5.8s4.6,5.3,4.6,5.8v34c0,.5.3,5.9-4.6,5.9s-4.6-5.4-4.6-5.9Zm32.5,1.2c0-18.6-11.4-23.2-28-23.2s-28,4.6-28,23.2V55.8c0,18.6,11.4,23.2,28,23.2s28-4.7,28-23.2Zm26.2-1.2c0-.5-.3-5.8,4.6-5.8s4.6,5.3,4.6,5.8v34c0,.5.3,5.9-4.6,5.9s-4.6-5.4-4.6-5.9Zm32.6,1.2c0-18.6-11.4-23.2-28-23.2s-28,4.6-28,23.2V55.8c0,18.6,11.4,23.2,28,23.2s28-4.7,28-23.2Zm27.7-5.4h1.8c5.1,0,6.7,1.8,6.7,7.3V54.4c0,5.4-1.6,7.3-6.7,7.3h-1.8ZM203,2.3V15.6c2.7,1.1,2.9,3.3,3,6V58.2c-.1,2.5-.3,4.8-3,6V77.5h33.2c7.1,0,13.8-.4,19.1-5.5,5.7-5.4,6.1-11.1,6.1-18.4V25.4c0-7.2-.6-14-6.8-18.9-5.4-4.1-12.7-4.2-19.1-4.2Z"/><path d="M258.2,78.9a3.24,3.24,0,0,1,3.2-3.3,3.3,3.3,0,1,1-3.2,3.3Zm-.7,0a3.9,3.9,0,0,0,7.8,0,3.82,3.82,0,0,0-3.9-3.8A3.7,3.7,0,0,0,257.5,78.9Zm2.4,2.2h.7V79.2h.7l1.2,1.9h.8l-1.3-2c.7-.1,1.2-.4,1.2-1.2s-.5-1.3-1.6-1.3h-1.7v4.5Zm.7-3.9h.9c.5,0,1,.1,1,.7s-.6.7-1.2.7h-.7V77.2Z"/></g></g></svg>